%TF.GenerationSoftware,KiCad,Pcbnew,(5.1.9)-1*%
%TF.CreationDate,2021-04-15T23:19:31+05:30*%
%TF.ProjectId,8051 Transmitter End,38303531-2054-4726-916e-736d69747465,01*%
%TF.SameCoordinates,Original*%
%TF.FileFunction,Copper,L2,Bot*%
%TF.FilePolarity,Positive*%
%FSLAX46Y46*%
G04 Gerber Fmt 4.6, Leading zero omitted, Abs format (unit mm)*
G04 Created by KiCad (PCBNEW (5.1.9)-1) date 2021-04-15 23:19:31*
%MOMM*%
%LPD*%
G01*
G04 APERTURE LIST*
%TA.AperFunction,NonConductor*%
%ADD10C,0.300000*%
%TD*%
%TA.AperFunction,ComponentPad*%
%ADD11O,1.700000X1.700000*%
%TD*%
%TA.AperFunction,ComponentPad*%
%ADD12R,1.700000X1.700000*%
%TD*%
%TA.AperFunction,ComponentPad*%
%ADD13O,2.400000X1.600000*%
%TD*%
%TA.AperFunction,ComponentPad*%
%ADD14O,2.400000X1.000000*%
%TD*%
%TA.AperFunction,ComponentPad*%
%ADD15R,2.400000X1.600000*%
%TD*%
%TA.AperFunction,ComponentPad*%
%ADD16O,1.350000X1.350000*%
%TD*%
%TA.AperFunction,ComponentPad*%
%ADD17R,1.350000X1.350000*%
%TD*%
%TA.AperFunction,ComponentPad*%
%ADD18O,1.600000X1.600000*%
%TD*%
%TA.AperFunction,ComponentPad*%
%ADD19C,1.600000*%
%TD*%
%TA.AperFunction,ComponentPad*%
%ADD20O,2.200000X2.200000*%
%TD*%
%TA.AperFunction,ComponentPad*%
%ADD21R,2.200000X2.200000*%
%TD*%
%TA.AperFunction,ComponentPad*%
%ADD22R,1.600000X1.600000*%
%TD*%
%TA.AperFunction,ComponentPad*%
%ADD23C,1.500000*%
%TD*%
%TA.AperFunction,ComponentPad*%
%ADD24O,2.000000X1.905000*%
%TD*%
%TA.AperFunction,ComponentPad*%
%ADD25R,2.000000X1.905000*%
%TD*%
%TA.AperFunction,ComponentPad*%
%ADD26C,2.000000*%
%TD*%
%TA.AperFunction,ComponentPad*%
%ADD27C,1.750000*%
%TD*%
%TA.AperFunction,ComponentPad*%
%ADD28C,2.999740*%
%TD*%
%TA.AperFunction,ComponentPad*%
%ADD29C,3.000000*%
%TD*%
%TA.AperFunction,ComponentPad*%
%ADD30O,1.800000X2.600000*%
%TD*%
%TA.AperFunction,ComponentPad*%
%ADD31R,1.800000X2.600000*%
%TD*%
%TA.AperFunction,ComponentPad*%
%ADD32C,1.800000*%
%TD*%
%TA.AperFunction,ComponentPad*%
%ADD33R,1.800000X1.800000*%
%TD*%
%TA.AperFunction,ComponentPad*%
%ADD34C,1.200000*%
%TD*%
%TA.AperFunction,ComponentPad*%
%ADD35R,1.200000X1.200000*%
%TD*%
%TA.AperFunction,ViaPad*%
%ADD36C,0.800000*%
%TD*%
%TA.AperFunction,Conductor*%
%ADD37C,0.300000*%
%TD*%
%TA.AperFunction,Conductor*%
%ADD38C,0.250000*%
%TD*%
%TA.AperFunction,Conductor*%
%ADD39C,0.254000*%
%TD*%
%TA.AperFunction,Conductor*%
%ADD40C,0.100000*%
%TD*%
G04 APERTURE END LIST*
D10*
X66464571Y-115491142D02*
X64964571Y-115491142D01*
X64964571Y-115848285D01*
X65036000Y-116062571D01*
X65178857Y-116205428D01*
X65321714Y-116276857D01*
X65607428Y-116348285D01*
X65821714Y-116348285D01*
X66107428Y-116276857D01*
X66250285Y-116205428D01*
X66393142Y-116062571D01*
X66464571Y-115848285D01*
X66464571Y-115491142D01*
X66321714Y-117848285D02*
X66393142Y-117776857D01*
X66464571Y-117562571D01*
X66464571Y-117419714D01*
X66393142Y-117205428D01*
X66250285Y-117062571D01*
X66107428Y-116991142D01*
X65821714Y-116919714D01*
X65607428Y-116919714D01*
X65321714Y-116991142D01*
X65178857Y-117062571D01*
X65036000Y-117205428D01*
X64964571Y-117419714D01*
X64964571Y-117562571D01*
X65036000Y-117776857D01*
X65107428Y-117848285D01*
X64964571Y-118491142D02*
X66178857Y-118491142D01*
X66321714Y-118562571D01*
X66393142Y-118634000D01*
X66464571Y-118776857D01*
X66464571Y-119062571D01*
X66393142Y-119205428D01*
X66321714Y-119276857D01*
X66178857Y-119348285D01*
X64964571Y-119348285D01*
X66464571Y-120919714D02*
X65750285Y-120419714D01*
X66464571Y-120062571D02*
X64964571Y-120062571D01*
X64964571Y-120634000D01*
X65036000Y-120776857D01*
X65107428Y-120848285D01*
X65250285Y-120919714D01*
X65464571Y-120919714D01*
X65607428Y-120848285D01*
X65678857Y-120776857D01*
X65750285Y-120634000D01*
X65750285Y-120062571D01*
X66393142Y-121491142D02*
X66464571Y-121705428D01*
X66464571Y-122062571D01*
X66393142Y-122205428D01*
X66321714Y-122276857D01*
X66178857Y-122348285D01*
X66036000Y-122348285D01*
X65893142Y-122276857D01*
X65821714Y-122205428D01*
X65750285Y-122062571D01*
X65678857Y-121776857D01*
X65607428Y-121634000D01*
X65536000Y-121562571D01*
X65393142Y-121491142D01*
X65250285Y-121491142D01*
X65107428Y-121562571D01*
X65036000Y-121634000D01*
X64964571Y-121776857D01*
X64964571Y-122134000D01*
X65036000Y-122348285D01*
X66464571Y-122991142D02*
X64964571Y-122991142D01*
X64964571Y-123348285D01*
X65036000Y-123562571D01*
X65178857Y-123705428D01*
X65321714Y-123776857D01*
X65607428Y-123848285D01*
X65821714Y-123848285D01*
X66107428Y-123776857D01*
X66250285Y-123705428D01*
X66393142Y-123562571D01*
X66464571Y-123348285D01*
X66464571Y-122991142D01*
D11*
%TO.P,P1,6*%
%TO.N,GND*%
X71374000Y-105410000D03*
%TO.P,P1,5*%
%TO.N,RESET*%
X68834000Y-105410000D03*
%TO.P,P1,4*%
%TO.N,MISO*%
X71374000Y-102870000D03*
%TO.P,P1,3*%
%TO.N,SCK*%
X68834000Y-102870000D03*
%TO.P,P1,2*%
%TO.N,Vin2*%
X71374000Y-100330000D03*
D12*
%TO.P,P1,1*%
%TO.N,MOSI*%
X68834000Y-100330000D03*
%TD*%
D13*
%TO.P,IC1,40*%
%TO.N,Vin*%
X106878000Y-80822000D03*
%TO.P,IC1,20*%
%TO.N,GND*%
X91638000Y-129082000D03*
%TO.P,IC1,39*%
%TO.N,Net-(IC1-Pad39)*%
X106878000Y-83362000D03*
%TO.P,IC1,19*%
%TO.N,XTAL1*%
X91638000Y-126542000D03*
D14*
%TO.P,IC1,38*%
%TO.N,Net-(IC1-Pad38)*%
X106878000Y-85902000D03*
D13*
%TO.P,IC1,18*%
%TO.N,XTAL2*%
X91638000Y-124002000D03*
D14*
%TO.P,IC1,37*%
%TO.N,Net-(IC1-Pad37)*%
X106878000Y-88442000D03*
D13*
%TO.P,IC1,17*%
%TO.N,Net-(IC1-Pad17)*%
X91638000Y-121462000D03*
%TO.P,IC1,36*%
%TO.N,Net-(IC1-Pad36)*%
X106878000Y-90982000D03*
%TO.P,IC1,16*%
%TO.N,Net-(IC1-Pad16)*%
X91638000Y-118922000D03*
%TO.P,IC1,35*%
%TO.N,Net-(IC1-Pad35)*%
X106878000Y-93522000D03*
%TO.P,IC1,15*%
%TO.N,Net-(IC1-Pad15)*%
X91638000Y-116382000D03*
%TO.P,IC1,34*%
%TO.N,Net-(IC1-Pad34)*%
X106878000Y-96062000D03*
%TO.P,IC1,14*%
%TO.N,Net-(IC1-Pad14)*%
X91638000Y-113842000D03*
%TO.P,IC1,33*%
%TO.N,Net-(IC1-Pad33)*%
X106878000Y-98602000D03*
%TO.P,IC1,13*%
%TO.N,Net-(IC1-Pad13)*%
X91638000Y-111302000D03*
%TO.P,IC1,32*%
%TO.N,Net-(IC1-Pad32)*%
X106878000Y-101142000D03*
%TO.P,IC1,12*%
%TO.N,Net-(IC1-Pad12)*%
X91638000Y-108762000D03*
D14*
%TO.P,IC1,31*%
%TO.N,Vin*%
X106878000Y-103682000D03*
D13*
%TO.P,IC1,11*%
%TO.N,Tx*%
X91638000Y-106222000D03*
D14*
%TO.P,IC1,30*%
%TO.N,Net-(IC1-Pad30)*%
X106878000Y-106222000D03*
D13*
%TO.P,IC1,10*%
%TO.N,Rx*%
X91638000Y-103682000D03*
%TO.P,IC1,29*%
%TO.N,Net-(IC1-Pad29)*%
X106878000Y-108762000D03*
%TO.P,IC1,9*%
%TO.N,RESET*%
X91638000Y-101142000D03*
%TO.P,IC1,28*%
%TO.N,DATA0*%
X106878000Y-111302000D03*
%TO.P,IC1,8*%
%TO.N,SCK*%
X91638000Y-98602000D03*
%TO.P,IC1,27*%
%TO.N,DATA1*%
X106878000Y-113842000D03*
%TO.P,IC1,7*%
%TO.N,MISO*%
X91638000Y-96062000D03*
%TO.P,IC1,26*%
%TO.N,DATA2*%
X106878000Y-116382000D03*
%TO.P,IC1,6*%
%TO.N,MOSI*%
X91638000Y-93522000D03*
%TO.P,IC1,25*%
%TO.N,DATA3*%
X106878000Y-118922000D03*
%TO.P,IC1,5*%
%TO.N,Net-(IC1-Pad5)*%
X91638000Y-90982000D03*
D14*
%TO.P,IC1,24*%
%TO.N,DATA4*%
X106878000Y-121462000D03*
%TO.P,IC1,4*%
%TO.N,Net-(IC1-Pad4)*%
X91638000Y-88442000D03*
%TO.P,IC1,23*%
%TO.N,DATA5*%
X106878000Y-124002000D03*
%TO.P,IC1,3*%
%TO.N,RS*%
X91638000Y-85902000D03*
D13*
%TO.P,IC1,22*%
%TO.N,DATA6*%
X106878000Y-126542000D03*
%TO.P,IC1,2*%
%TO.N,RW*%
X91638000Y-83362000D03*
%TO.P,IC1,21*%
%TO.N,DATA7*%
X106878000Y-129082000D03*
D15*
%TO.P,IC1,1*%
%TO.N,EN*%
X91638000Y-80822000D03*
%TD*%
D16*
%TO.P,J3,16*%
%TO.N,Net-(DS1-Pad16)*%
X95634000Y-72898000D03*
%TO.P,J3,15*%
%TO.N,Vin1*%
X97634000Y-72898000D03*
%TO.P,J3,14*%
%TO.N,DATA7*%
X99634000Y-72898000D03*
%TO.P,J3,13*%
%TO.N,DATA6*%
X101634000Y-72898000D03*
%TO.P,J3,12*%
%TO.N,DATA5*%
X103634000Y-72898000D03*
%TO.P,J3,11*%
%TO.N,DATA4*%
X105634000Y-72898000D03*
%TO.P,J3,10*%
%TO.N,DATA3*%
X107634000Y-72898000D03*
%TO.P,J3,9*%
%TO.N,DATA2*%
X109634000Y-72898000D03*
%TO.P,J3,8*%
%TO.N,DATA1*%
X111634000Y-72898000D03*
%TO.P,J3,7*%
%TO.N,DATA0*%
X113634000Y-72898000D03*
%TO.P,J3,6*%
%TO.N,EN*%
X115634000Y-72898000D03*
%TO.P,J3,5*%
%TO.N,RW*%
X117634000Y-72898000D03*
%TO.P,J3,4*%
%TO.N,RS*%
X119634000Y-72898000D03*
%TO.P,J3,3*%
%TO.N,Net-(DS1-Pad3)*%
X121634000Y-72898000D03*
%TO.P,J3,2*%
%TO.N,Vin1*%
X123634000Y-72898000D03*
D17*
%TO.P,J3,1*%
%TO.N,GND*%
X125634000Y-72898000D03*
%TD*%
D11*
%TO.P,J2,2*%
%TO.N,Tx*%
X129286000Y-125222000D03*
D12*
%TO.P,J2,1*%
%TO.N,Rx*%
X129286000Y-122682000D03*
%TD*%
D18*
%TO.P,R3,2*%
%TO.N,GND*%
X66040000Y-72644000D03*
D19*
%TO.P,R3,1*%
%TO.N,Net-(DS1-Pad16)*%
X78740000Y-72644000D03*
%TD*%
D18*
%TO.P,R2,2*%
%TO.N,Net-(D1-Pad2)*%
X86106000Y-102108000D03*
D19*
%TO.P,R2,1*%
%TO.N,VCC*%
X86106000Y-89408000D03*
%TD*%
D18*
%TO.P,R1,2*%
%TO.N,GND*%
X116586000Y-116332000D03*
D19*
%TO.P,R1,1*%
%TO.N,RESET*%
X116586000Y-103632000D03*
%TD*%
D20*
%TO.P,D5,2*%
%TO.N,VCC*%
X79756000Y-91694000D03*
D21*
%TO.P,D5,1*%
%TO.N,Net-(D5-Pad1)*%
X72136000Y-91694000D03*
%TD*%
D20*
%TO.P,D4,2*%
%TO.N,GND*%
X121666000Y-116078000D03*
D21*
%TO.P,D4,1*%
%TO.N,Vin1*%
X121666000Y-108458000D03*
%TD*%
D18*
%TO.P,D3,2*%
%TO.N,Vin2*%
X119888000Y-84074000D03*
D22*
%TO.P,D3,1*%
%TO.N,Vin*%
X112268000Y-84074000D03*
%TD*%
D18*
%TO.P,D2,2*%
%TO.N,Vin1*%
X119888000Y-81280000D03*
D22*
%TO.P,D2,1*%
%TO.N,Vin*%
X112268000Y-81280000D03*
%TD*%
D23*
%TO.P,Y1,2*%
%TO.N,XTAL1*%
X81918000Y-126482000D03*
%TO.P,Y1,1*%
%TO.N,XTAL2*%
X81918000Y-121602000D03*
%TD*%
D24*
%TO.P,U1,3*%
%TO.N,Vin1*%
X74168000Y-84582000D03*
%TO.P,U1,2*%
%TO.N,GND*%
X74168000Y-82042000D03*
D25*
%TO.P,U1,1*%
%TO.N,VCC*%
X74168000Y-79502000D03*
%TD*%
D26*
%TO.P,SW2,1*%
%TO.N,GND*%
X116436000Y-129032000D03*
%TO.P,SW2,2*%
%TO.N,Net-(IC1-Pad12)*%
X116436000Y-124532000D03*
%TO.P,SW2,1*%
%TO.N,GND*%
X122936000Y-129032000D03*
%TO.P,SW2,2*%
%TO.N,Net-(IC1-Pad12)*%
X122936000Y-124532000D03*
%TD*%
%TO.P,RST,1*%
%TO.N,RESET*%
X118872000Y-98956000D03*
%TO.P,RST,2*%
%TO.N,Vin*%
X114372000Y-98956000D03*
%TO.P,RST,1*%
%TO.N,RESET*%
X118872000Y-92456000D03*
%TO.P,RST,2*%
%TO.N,Vin*%
X114372000Y-92456000D03*
%TD*%
D27*
%TO.P,RV1,1*%
%TO.N,Net-(RV1-Pad1)*%
X126218000Y-82102000D03*
%TO.P,RV1,2*%
%TO.N,Net-(DS1-Pad3)*%
X128758000Y-79562000D03*
%TO.P,RV1,3*%
%TO.N,GND*%
X131298000Y-82102000D03*
%TD*%
D28*
%TO.P,J1,2*%
%TO.N,GND*%
X64516000Y-80599280D03*
%TO.P,J1,1*%
%TO.N,Net-(D5-Pad1)*%
X64516000Y-85598000D03*
%TD*%
D29*
%TO.P,DS1,*%
%TO.N,*%
X61564000Y-58166000D03*
X61564520Y-27165300D03*
X136563100Y-27165300D03*
X136563100Y-58166000D03*
D30*
%TO.P,DS1,16*%
%TO.N,Net-(DS1-Pad16)*%
X92964000Y-58166000D03*
%TO.P,DS1,15*%
%TO.N,Vin1*%
X95504000Y-58166000D03*
%TO.P,DS1,14*%
%TO.N,DATA7*%
X98044000Y-58166000D03*
%TO.P,DS1,13*%
%TO.N,DATA6*%
X100584000Y-58166000D03*
%TO.P,DS1,12*%
%TO.N,DATA5*%
X103124000Y-58166000D03*
%TO.P,DS1,11*%
%TO.N,DATA4*%
X105664000Y-58166000D03*
%TO.P,DS1,10*%
%TO.N,DATA3*%
X108204000Y-58166000D03*
%TO.P,DS1,9*%
%TO.N,DATA2*%
X110744000Y-58166000D03*
%TO.P,DS1,8*%
%TO.N,DATA1*%
X113284000Y-58166000D03*
%TO.P,DS1,7*%
%TO.N,DATA0*%
X115824000Y-58166000D03*
%TO.P,DS1,6*%
%TO.N,EN*%
X118364000Y-58166000D03*
%TO.P,DS1,5*%
%TO.N,RW*%
X120904000Y-58166000D03*
%TO.P,DS1,4*%
%TO.N,RS*%
X123444000Y-58166000D03*
%TO.P,DS1,3*%
%TO.N,Net-(DS1-Pad3)*%
X125984000Y-58166000D03*
%TO.P,DS1,2*%
%TO.N,Vin1*%
X128524000Y-58166000D03*
D31*
%TO.P,DS1,1*%
%TO.N,GND*%
X131064000Y-58166000D03*
%TD*%
D32*
%TO.P,Tx,2*%
%TO.N,Tx*%
X84836000Y-113538000D03*
D33*
%TO.P,Tx,1*%
%TO.N,GND*%
X84836000Y-110998000D03*
%TD*%
D32*
%TO.P,Rx,2*%
%TO.N,Rx*%
X78232000Y-113538000D03*
D33*
%TO.P,Rx,1*%
%TO.N,GND*%
X78232000Y-110998000D03*
%TD*%
D32*
%TO.P,D1,2*%
%TO.N,Net-(D1-Pad2)*%
X81534000Y-81026000D03*
D33*
%TO.P,D1,1*%
%TO.N,GND*%
X84074000Y-81026000D03*
%TD*%
D19*
%TO.P,C5,2*%
%TO.N,GND*%
X84288000Y-85344000D03*
%TO.P,C5,1*%
%TO.N,Vin1*%
X81788000Y-85344000D03*
%TD*%
%TO.P,C4,2*%
%TO.N,GND*%
X74422000Y-128484000D03*
%TO.P,C4,1*%
%TO.N,XTAL1*%
X74422000Y-125984000D03*
%TD*%
D34*
%TO.P,C3,2*%
%TO.N,RESET*%
X123952000Y-96750000D03*
D35*
%TO.P,C3,1*%
%TO.N,Vin*%
X123952000Y-95250000D03*
%TD*%
D19*
%TO.P,C2,2*%
%TO.N,GND*%
X74168000Y-122134000D03*
%TO.P,C2,1*%
%TO.N,XTAL2*%
X74168000Y-119634000D03*
%TD*%
%TO.P,C1,2*%
%TO.N,GND*%
X84034000Y-76454000D03*
%TO.P,C1,1*%
%TO.N,VCC*%
X81534000Y-76454000D03*
%TD*%
D36*
%TO.N,GND*%
X79502000Y-106426000D03*
%TO.N,Vin1*%
X90170000Y-75692000D03*
%TO.N,Net-(D1-Pad2)*%
X82913001Y-87993001D03*
%TD*%
D37*
%TO.N,VCC*%
X79756000Y-91694000D02*
X81788000Y-89662000D01*
X85852000Y-89662000D02*
X86106000Y-89408000D01*
X81788000Y-89662000D02*
X85852000Y-89662000D01*
D38*
X74168000Y-79502000D02*
X77724000Y-79502000D01*
X82804000Y-75184000D02*
X81534000Y-76454000D01*
X87122000Y-75692000D02*
X86614000Y-75184000D01*
X86614000Y-75184000D02*
X82804000Y-75184000D01*
X87122000Y-88392000D02*
X87122000Y-75692000D01*
X86106000Y-89408000D02*
X87122000Y-88392000D01*
X79375000Y-77851000D02*
X79375000Y-76835000D01*
X77724000Y-79502000D02*
X79375000Y-77851000D01*
X79756000Y-76454000D02*
X81534000Y-76454000D01*
X79375000Y-76835000D02*
X79756000Y-76454000D01*
%TO.N,XTAL2*%
X91638000Y-124002000D02*
X89966000Y-124002000D01*
X87566000Y-121602000D02*
X81918000Y-121602000D01*
X89966000Y-124002000D02*
X87566000Y-121602000D01*
X81918000Y-121602000D02*
X81918000Y-120526000D01*
X81026000Y-119634000D02*
X74168000Y-119634000D01*
X81918000Y-120526000D02*
X81026000Y-119634000D01*
%TO.N,RESET*%
X118872000Y-92456000D02*
X118872000Y-98956000D01*
D37*
X121746000Y-98956000D02*
X123952000Y-96750000D01*
X118872000Y-98956000D02*
X121746000Y-98956000D01*
X116586000Y-101242000D02*
X118872000Y-98956000D01*
X116586000Y-103632000D02*
X116586000Y-101242000D01*
D38*
%TO.N,XTAL1*%
X81978000Y-126542000D02*
X81918000Y-126482000D01*
X91638000Y-126542000D02*
X81978000Y-126542000D01*
X81420000Y-125984000D02*
X81918000Y-126482000D01*
X74422000Y-125984000D02*
X81420000Y-125984000D01*
D37*
%TO.N,Vin1*%
X74168000Y-84582000D02*
X74168000Y-85852000D01*
X74168000Y-85852000D02*
X75184000Y-86868000D01*
X75184000Y-86868000D02*
X81280000Y-86868000D01*
X81788000Y-86360000D02*
X81788000Y-85344000D01*
X81280000Y-86868000D02*
X81788000Y-86360000D01*
D38*
X97634000Y-72898000D02*
X97634000Y-71530000D01*
X97634000Y-71530000D02*
X98298000Y-70866000D01*
X98298000Y-70866000D02*
X122936000Y-70866000D01*
X123634000Y-71564000D02*
X123634000Y-72898000D01*
X122936000Y-70866000D02*
X123634000Y-71564000D01*
X97634000Y-75340000D02*
X97634000Y-72898000D01*
X97282000Y-75692000D02*
X97634000Y-75340000D01*
X90170000Y-75692000D02*
X97282000Y-75692000D01*
D37*
X125730000Y-108458000D02*
X121666000Y-108458000D01*
X127000000Y-107188000D02*
X125730000Y-108458000D01*
X127000000Y-91440000D02*
X127000000Y-107188000D01*
X124452008Y-88892008D02*
X127000000Y-91440000D01*
X123698000Y-81280000D02*
X124452008Y-82034008D01*
X121920000Y-81280000D02*
X123698000Y-81280000D01*
X124452008Y-83827992D02*
X127754008Y-83827992D01*
X124452008Y-82034008D02*
X124452008Y-83827992D01*
X124452008Y-83827992D02*
X124452008Y-88892008D01*
X127754008Y-83827992D02*
X128778000Y-82804000D01*
X128778000Y-82804000D02*
X128778000Y-82042000D01*
X128778000Y-82042000D02*
X130810000Y-80010000D01*
X130810000Y-80010000D02*
X130810000Y-77216000D01*
X130810000Y-77216000D02*
X129286000Y-75692000D01*
X129286000Y-75692000D02*
X124714000Y-75692000D01*
X123634000Y-74612000D02*
X123634000Y-72898000D01*
X124714000Y-75692000D02*
X123634000Y-74612000D01*
X121920000Y-81280000D02*
X119888000Y-81280000D01*
D38*
%TO.N,Net-(D1-Pad2)*%
X82913001Y-83675001D02*
X82913001Y-87993001D01*
X81534000Y-82804000D02*
X82913001Y-83675001D01*
D37*
X81534000Y-82804000D02*
X81534000Y-81026000D01*
D38*
%TO.N,Vin*%
X106878000Y-103682000D02*
X108154000Y-103682000D01*
X108154000Y-103682000D02*
X108712000Y-103124000D01*
X108712000Y-103124000D02*
X108712000Y-81280000D01*
X108254000Y-80822000D02*
X106878000Y-80822000D01*
X108712000Y-81280000D02*
X108254000Y-80822000D01*
X112268000Y-84074000D02*
X112268000Y-81280000D01*
X114372000Y-92456000D02*
X114372000Y-98956000D01*
D37*
X114372000Y-92456000D02*
X114372000Y-89844000D01*
X114372000Y-89844000D02*
X115570000Y-88646000D01*
X115570000Y-88646000D02*
X122174000Y-88646000D01*
X123952000Y-90424000D02*
X123952000Y-95250000D01*
X122174000Y-88646000D02*
X123952000Y-90424000D01*
X111810000Y-80822000D02*
X112268000Y-81280000D01*
X106878000Y-80822000D02*
X111810000Y-80822000D01*
D38*
%TO.N,Rx*%
X91638000Y-103682000D02*
X77166000Y-103682000D01*
X77166000Y-103682000D02*
X75692000Y-105156000D01*
X75692000Y-110998000D02*
X78232000Y-113538000D01*
X75692000Y-105156000D02*
X75692000Y-110998000D01*
D37*
X78232000Y-113538000D02*
X73406000Y-113538000D01*
X73406000Y-113538000D02*
X70866000Y-116078000D01*
X70866000Y-116078000D02*
X70866000Y-133096000D01*
X70866000Y-133096000D02*
X73660000Y-135890000D01*
X73660000Y-135890000D02*
X127000000Y-135890000D01*
X127000000Y-135890000D02*
X131572000Y-131318000D01*
X131572000Y-131318000D02*
X131572000Y-123952000D01*
X130302000Y-122682000D02*
X129286000Y-122682000D01*
X131572000Y-123952000D02*
X130302000Y-122682000D01*
%TO.N,Tx*%
X84836000Y-113538000D02*
X87376000Y-113538000D01*
X87376000Y-113538000D02*
X88392000Y-112522000D01*
X88392000Y-112522000D02*
X88392000Y-106934000D01*
X89104000Y-106222000D02*
X91638000Y-106222000D01*
X88392000Y-106934000D02*
X89104000Y-106222000D01*
D38*
X129286000Y-130556000D02*
X129286000Y-125222000D01*
X125984000Y-133858000D02*
X129286000Y-130556000D01*
X91948000Y-133858000D02*
X125984000Y-133858000D01*
X91694000Y-133858000D02*
X91948000Y-133858000D01*
D37*
X84836000Y-113538000D02*
X82550000Y-115824000D01*
X82550000Y-115824000D02*
X72898000Y-115824000D01*
X72898000Y-115824000D02*
X72136000Y-116586000D01*
X72136000Y-116586000D02*
X72136000Y-131826000D01*
X74168000Y-133858000D02*
X91694000Y-133858000D01*
X72136000Y-131826000D02*
X74168000Y-133858000D01*
D38*
%TO.N,Net-(DS1-Pad16)*%
X78740000Y-72644000D02*
X78994000Y-72644000D01*
X79248000Y-72898000D02*
X95634000Y-72898000D01*
X78994000Y-72644000D02*
X79248000Y-72898000D01*
%TO.N,DATA7*%
X99634000Y-72898000D02*
X99634000Y-74610000D01*
X99634000Y-74610000D02*
X97790000Y-76454000D01*
X95758000Y-76454000D02*
X94996000Y-77216000D01*
X97790000Y-76454000D02*
X95758000Y-76454000D01*
X94996000Y-77216000D02*
X94996000Y-127508000D01*
X96570000Y-129082000D02*
X106878000Y-129082000D01*
X94996000Y-127508000D02*
X96570000Y-129082000D01*
%TO.N,DATA6*%
X106878000Y-126542000D02*
X97586000Y-126542000D01*
X97586000Y-126542000D02*
X96520000Y-125476000D01*
X96520000Y-125476000D02*
X96520000Y-78232000D01*
X96520000Y-78232000D02*
X97536000Y-77216000D01*
X97536000Y-77216000D02*
X99060000Y-77216000D01*
X101634000Y-74642000D02*
X101634000Y-72898000D01*
X99060000Y-77216000D02*
X101634000Y-74642000D01*
%TO.N,DATA5*%
X103634000Y-72898000D02*
X103634000Y-74928000D01*
X103634000Y-74928000D02*
X100330000Y-78232000D01*
X100330000Y-78232000D02*
X98806000Y-78232000D01*
X98806000Y-78232000D02*
X98044000Y-78994000D01*
X98044000Y-78994000D02*
X98044000Y-122682000D01*
X99364000Y-124002000D02*
X106878000Y-124002000D01*
X98044000Y-122682000D02*
X99364000Y-124002000D01*
%TO.N,DATA4*%
X105634000Y-74198000D02*
X105634000Y-72898000D01*
X99568000Y-80264000D02*
X105634000Y-74198000D01*
X99568000Y-120396000D02*
X99568000Y-80264000D01*
X100634000Y-121462000D02*
X99568000Y-120396000D01*
X106878000Y-121462000D02*
X100634000Y-121462000D01*
%TO.N,DATA3*%
X101904000Y-118922000D02*
X106878000Y-118922000D01*
X101600000Y-118618000D02*
X101904000Y-118922000D01*
X101600000Y-80010000D02*
X101600000Y-118618000D01*
X107634000Y-73976000D02*
X101600000Y-80010000D01*
X107634000Y-72898000D02*
X107634000Y-73976000D01*
%TO.N,DATA2*%
X106878000Y-116382000D02*
X104190000Y-116382000D01*
X104190000Y-116382000D02*
X102870000Y-115062000D01*
X102870000Y-115062000D02*
X102870000Y-80264000D01*
X109634000Y-73500000D02*
X109634000Y-72898000D01*
X102870000Y-80264000D02*
X109634000Y-73500000D01*
%TO.N,DATA1*%
X111634000Y-72898000D02*
X104648000Y-79884000D01*
X105714000Y-113842000D02*
X106878000Y-113842000D01*
X104648000Y-112776000D02*
X105714000Y-113842000D01*
X104648000Y-79884000D02*
X104648000Y-112776000D01*
D37*
%TO.N,DATA0*%
X113634000Y-72898000D02*
X113634000Y-74772000D01*
X113634000Y-74772000D02*
X114300000Y-75438000D01*
X114300000Y-75438000D02*
X114300000Y-85598000D01*
X114300000Y-85598000D02*
X110490000Y-89408000D01*
X110490000Y-89408000D02*
X110490000Y-110236000D01*
X109424000Y-111302000D02*
X108916000Y-111302000D01*
X110490000Y-110236000D02*
X109424000Y-111302000D01*
X108916000Y-111302000D02*
X109220000Y-111302000D01*
X106878000Y-111302000D02*
X108916000Y-111302000D01*
D38*
%TO.N,Net-(DS1-Pad3)*%
X121634000Y-72898000D02*
X121634000Y-78200000D01*
X122996000Y-79562000D02*
X128758000Y-79562000D01*
X121634000Y-78200000D02*
X122996000Y-79562000D01*
%TO.N,Net-(IC1-Pad12)*%
X116436000Y-124532000D02*
X122500000Y-124532000D01*
X122500000Y-124532000D02*
X122936000Y-124532000D01*
%TO.N,SCK*%
X66294000Y-103632000D02*
X67056000Y-102870000D01*
X66294000Y-106426000D02*
X66294000Y-103632000D01*
X67310000Y-107442000D02*
X66294000Y-106426000D01*
X74168000Y-106426000D02*
X73152000Y-107442000D01*
X73152000Y-107442000D02*
X67310000Y-107442000D01*
X74168000Y-98298000D02*
X74168000Y-106426000D01*
X74930000Y-97536000D02*
X74168000Y-98298000D01*
X67056000Y-102870000D02*
X68834000Y-102870000D01*
X88900000Y-97536000D02*
X74930000Y-97536000D01*
X89966000Y-98602000D02*
X88900000Y-97536000D01*
X91638000Y-98602000D02*
X89966000Y-98602000D01*
%TO.N,MISO*%
X71374000Y-102870000D02*
X72136000Y-102870000D01*
X72136000Y-102870000D02*
X73152000Y-101854000D01*
X73152000Y-101854000D02*
X73152000Y-97282000D01*
X74372000Y-96062000D02*
X91638000Y-96062000D01*
X73152000Y-97282000D02*
X74372000Y-96062000D01*
%TO.N,MOSI*%
X91638000Y-93522000D02*
X81484000Y-93522000D01*
X81484000Y-93522000D02*
X80518000Y-94488000D01*
X80518000Y-94488000D02*
X69850000Y-94488000D01*
X68834000Y-95504000D02*
X68834000Y-100330000D01*
X69850000Y-94488000D02*
X68834000Y-95504000D01*
D37*
%TO.N,Net-(D5-Pad1)*%
X72136000Y-91694000D02*
X65532000Y-91694000D01*
X64516000Y-90678000D02*
X64516000Y-85598000D01*
X65532000Y-91694000D02*
X64516000Y-90678000D01*
%TD*%
D39*
%TO.N,GND*%
X134268001Y-137824000D02*
X62074000Y-137824000D01*
X62074000Y-114149000D01*
X63796000Y-114149000D01*
X63796000Y-125119000D01*
X68016000Y-125119000D01*
X68016000Y-114149000D01*
X63796000Y-114149000D01*
X62074000Y-114149000D01*
X62074000Y-85368035D01*
X62181130Y-85368035D01*
X62181130Y-85827965D01*
X62270858Y-86279056D01*
X62446865Y-86703975D01*
X62702388Y-87086393D01*
X63027607Y-87411612D01*
X63410025Y-87667135D01*
X63531001Y-87717245D01*
X63531000Y-90629620D01*
X63526235Y-90678000D01*
X63536239Y-90779576D01*
X63545253Y-90871093D01*
X63601576Y-91056766D01*
X63693040Y-91227884D01*
X63816130Y-91377870D01*
X63853715Y-91408715D01*
X64801289Y-92356290D01*
X64832130Y-92393870D01*
X64982116Y-92516960D01*
X65153233Y-92608424D01*
X65338906Y-92664747D01*
X65532000Y-92683765D01*
X65580380Y-92679000D01*
X70196960Y-92679000D01*
X70196960Y-92794000D01*
X70213082Y-92957689D01*
X70260828Y-93115087D01*
X70338364Y-93260146D01*
X70442709Y-93387291D01*
X70569854Y-93491636D01*
X70637886Y-93528000D01*
X69897152Y-93528000D01*
X69850000Y-93523356D01*
X69802848Y-93528000D01*
X69802838Y-93528000D01*
X69661807Y-93541890D01*
X69480846Y-93596784D01*
X69314071Y-93685927D01*
X69204526Y-93775829D01*
X69167893Y-93805893D01*
X69137829Y-93842526D01*
X68188531Y-94791825D01*
X68151893Y-94821893D01*
X68031927Y-94968072D01*
X67942784Y-95134847D01*
X67887890Y-95315808D01*
X67874000Y-95456839D01*
X67874000Y-95456848D01*
X67869356Y-95504000D01*
X67874000Y-95551152D01*
X67874001Y-98651794D01*
X67820311Y-98657082D01*
X67662913Y-98704828D01*
X67517854Y-98782364D01*
X67390709Y-98886709D01*
X67286364Y-99013854D01*
X67208828Y-99158913D01*
X67161082Y-99316311D01*
X67144960Y-99480000D01*
X67144960Y-101180000D01*
X67161082Y-101343689D01*
X67208828Y-101501087D01*
X67286364Y-101646146D01*
X67390709Y-101773291D01*
X67487299Y-101852560D01*
X67448919Y-101910000D01*
X67103160Y-101910000D01*
X67056000Y-101905355D01*
X67008840Y-101910000D01*
X67008838Y-101910000D01*
X66867807Y-101923890D01*
X66686846Y-101978784D01*
X66520071Y-102067927D01*
X66412238Y-102156424D01*
X66373893Y-102187893D01*
X66343829Y-102224526D01*
X65648526Y-102919830D01*
X65611894Y-102949893D01*
X65581830Y-102986526D01*
X65581829Y-102986527D01*
X65491927Y-103096072D01*
X65402784Y-103262847D01*
X65387617Y-103312847D01*
X65347891Y-103443807D01*
X65340833Y-103515474D01*
X65329356Y-103632000D01*
X65334001Y-103679162D01*
X65334000Y-106378848D01*
X65329356Y-106426000D01*
X65334000Y-106473152D01*
X65334000Y-106473161D01*
X65347890Y-106614192D01*
X65402784Y-106795153D01*
X65491927Y-106961928D01*
X65611893Y-107108107D01*
X65648531Y-107138175D01*
X66597829Y-108087474D01*
X66627893Y-108124107D01*
X66664526Y-108154171D01*
X66774071Y-108244073D01*
X66813049Y-108264907D01*
X66940846Y-108333216D01*
X67121807Y-108388110D01*
X67262838Y-108402000D01*
X67262848Y-108402000D01*
X67310000Y-108406644D01*
X67357152Y-108402000D01*
X73104848Y-108402000D01*
X73152000Y-108406644D01*
X73199152Y-108402000D01*
X73199162Y-108402000D01*
X73340193Y-108388110D01*
X73521154Y-108333216D01*
X73687928Y-108244073D01*
X73834107Y-108124107D01*
X73864175Y-108087469D01*
X74732000Y-107219645D01*
X74732001Y-110950838D01*
X74727356Y-110998000D01*
X74745891Y-111186192D01*
X74800784Y-111367153D01*
X74889927Y-111533928D01*
X74950369Y-111607576D01*
X75009894Y-111680107D01*
X75046526Y-111710170D01*
X75889356Y-112553000D01*
X73454377Y-112553000D01*
X73405999Y-112548235D01*
X73357621Y-112553000D01*
X73357620Y-112553000D01*
X73212906Y-112567253D01*
X73027233Y-112623576D01*
X72856116Y-112715040D01*
X72706130Y-112838130D01*
X72675284Y-112875716D01*
X70203716Y-115347284D01*
X70166130Y-115378130D01*
X70043040Y-115528116D01*
X69955384Y-115692110D01*
X69951576Y-115699234D01*
X69895253Y-115884907D01*
X69876235Y-116078000D01*
X69881000Y-116126380D01*
X69881001Y-133047610D01*
X69876235Y-133096000D01*
X69895253Y-133289093D01*
X69951576Y-133474766D01*
X69951577Y-133474767D01*
X70043041Y-133645884D01*
X70166131Y-133795870D01*
X70203711Y-133826711D01*
X72929289Y-136552290D01*
X72960130Y-136589870D01*
X72997709Y-136620710D01*
X73110116Y-136712960D01*
X73281233Y-136804424D01*
X73466906Y-136860747D01*
X73660000Y-136879765D01*
X73708380Y-136875000D01*
X126951620Y-136875000D01*
X127000000Y-136879765D01*
X127048380Y-136875000D01*
X127193094Y-136860747D01*
X127378767Y-136804424D01*
X127549884Y-136712960D01*
X127699870Y-136589870D01*
X127730716Y-136552284D01*
X132234284Y-132048716D01*
X132271870Y-132017870D01*
X132394960Y-131867884D01*
X132486424Y-131696767D01*
X132542747Y-131511094D01*
X132557000Y-131366380D01*
X132557000Y-131366379D01*
X132561765Y-131318001D01*
X132557000Y-131269621D01*
X132557000Y-124000379D01*
X132561765Y-123951999D01*
X132542747Y-123758905D01*
X132517570Y-123675909D01*
X132486424Y-123573233D01*
X132394960Y-123402116D01*
X132271870Y-123252130D01*
X132234284Y-123221284D01*
X131032716Y-122019716D01*
X131001870Y-121982130D01*
X130975040Y-121960111D01*
X130975040Y-121832000D01*
X130958918Y-121668311D01*
X130911172Y-121510913D01*
X130833636Y-121365854D01*
X130729291Y-121238709D01*
X130602146Y-121134364D01*
X130457087Y-121056828D01*
X130299689Y-121009082D01*
X130136000Y-120992960D01*
X128436000Y-120992960D01*
X128272311Y-121009082D01*
X128114913Y-121056828D01*
X127969854Y-121134364D01*
X127842709Y-121238709D01*
X127738364Y-121365854D01*
X127660828Y-121510913D01*
X127613082Y-121668311D01*
X127596960Y-121832000D01*
X127596960Y-123532000D01*
X127613082Y-123695689D01*
X127660828Y-123853087D01*
X127738364Y-123998146D01*
X127842709Y-124125291D01*
X127939299Y-124204560D01*
X127792772Y-124423853D01*
X127665754Y-124730504D01*
X127601000Y-125056042D01*
X127601000Y-125387958D01*
X127665754Y-125713496D01*
X127792772Y-126020147D01*
X127977175Y-126296125D01*
X128211875Y-126530825D01*
X128326001Y-126607082D01*
X128326000Y-130158355D01*
X125586356Y-132898000D01*
X91922522Y-132898000D01*
X91887094Y-132887253D01*
X91742380Y-132873000D01*
X74576001Y-132873000D01*
X73121000Y-131418000D01*
X73121000Y-129513162D01*
X73534966Y-129513162D01*
X73598617Y-129788270D01*
X73868888Y-129923843D01*
X74160416Y-130004084D01*
X74461996Y-130025909D01*
X74762039Y-129988479D01*
X75049015Y-129893232D01*
X75245383Y-129788270D01*
X75309034Y-129513162D01*
X75216746Y-129420874D01*
X89740874Y-129420874D01*
X89781385Y-129576569D01*
X89905859Y-129851238D01*
X90081527Y-130096345D01*
X90301637Y-130302471D01*
X90557731Y-130461695D01*
X90839967Y-130567899D01*
X91137500Y-130617000D01*
X91537500Y-130617000D01*
X91537500Y-129182500D01*
X91738500Y-129182500D01*
X91738500Y-130617000D01*
X92138500Y-130617000D01*
X92436033Y-130567899D01*
X92718269Y-130461695D01*
X92974363Y-130302471D01*
X93194473Y-130096345D01*
X93370141Y-129851238D01*
X93494615Y-129576569D01*
X93535126Y-129420874D01*
X93385507Y-129182500D01*
X91738500Y-129182500D01*
X91537500Y-129182500D01*
X89890493Y-129182500D01*
X89740874Y-129420874D01*
X75216746Y-129420874D01*
X74422000Y-128626128D01*
X73534966Y-129513162D01*
X73121000Y-129513162D01*
X73121000Y-129308140D01*
X73392838Y-129371034D01*
X74279872Y-128484000D01*
X74564128Y-128484000D01*
X75451162Y-129371034D01*
X75726270Y-129307383D01*
X75861843Y-129037112D01*
X75942084Y-128745584D01*
X75963909Y-128444004D01*
X75926479Y-128143961D01*
X75831232Y-127856985D01*
X75726270Y-127660617D01*
X75451162Y-127596966D01*
X74564128Y-128484000D01*
X74279872Y-128484000D01*
X73392838Y-127596966D01*
X73121000Y-127659860D01*
X73121000Y-126979838D01*
X73152013Y-127026252D01*
X73379748Y-127253987D01*
X73554431Y-127370707D01*
X73534966Y-127454838D01*
X74422000Y-128341872D01*
X75309034Y-127454838D01*
X75289569Y-127370707D01*
X75464252Y-127253987D01*
X75691987Y-127026252D01*
X75746946Y-126944000D01*
X80393846Y-126944000D01*
X80393911Y-126944327D01*
X80513391Y-127232779D01*
X80686850Y-127492379D01*
X80907621Y-127713150D01*
X81167221Y-127886609D01*
X81455673Y-128006089D01*
X81761891Y-128067000D01*
X82074109Y-128067000D01*
X82380327Y-128006089D01*
X82668779Y-127886609D01*
X82928379Y-127713150D01*
X83139529Y-127502000D01*
X89910744Y-127502000D01*
X90076286Y-127703714D01*
X90286200Y-127875985D01*
X90081527Y-128067655D01*
X89905859Y-128312762D01*
X89781385Y-128587431D01*
X89740874Y-128743126D01*
X89890493Y-128981500D01*
X91537500Y-128981500D01*
X91537500Y-128961500D01*
X91738500Y-128961500D01*
X91738500Y-128981500D01*
X93385507Y-128981500D01*
X93535126Y-128743126D01*
X93494615Y-128587431D01*
X93370141Y-128312762D01*
X93194473Y-128067655D01*
X92989800Y-127875985D01*
X93199714Y-127703714D01*
X93404031Y-127454752D01*
X93555852Y-127170715D01*
X93649343Y-126862516D01*
X93680911Y-126542000D01*
X93649343Y-126221484D01*
X93555852Y-125913285D01*
X93404031Y-125629248D01*
X93199714Y-125380286D01*
X93067767Y-125272000D01*
X93199714Y-125163714D01*
X93404031Y-124914752D01*
X93555852Y-124630715D01*
X93649343Y-124322516D01*
X93680911Y-124002000D01*
X93649343Y-123681484D01*
X93555852Y-123373285D01*
X93404031Y-123089248D01*
X93199714Y-122840286D01*
X93067767Y-122732000D01*
X93199714Y-122623714D01*
X93404031Y-122374752D01*
X93555852Y-122090715D01*
X93649343Y-121782516D01*
X93680911Y-121462000D01*
X93649343Y-121141484D01*
X93555852Y-120833285D01*
X93404031Y-120549248D01*
X93199714Y-120300286D01*
X93067767Y-120192000D01*
X93199714Y-120083714D01*
X93404031Y-119834752D01*
X93555852Y-119550715D01*
X93649343Y-119242516D01*
X93680911Y-118922000D01*
X93649343Y-118601484D01*
X93555852Y-118293285D01*
X93404031Y-118009248D01*
X93199714Y-117760286D01*
X93067767Y-117652000D01*
X93199714Y-117543714D01*
X93404031Y-117294752D01*
X93555852Y-117010715D01*
X93649343Y-116702516D01*
X93680911Y-116382000D01*
X93649343Y-116061484D01*
X93555852Y-115753285D01*
X93404031Y-115469248D01*
X93199714Y-115220286D01*
X93067767Y-115112000D01*
X93199714Y-115003714D01*
X93404031Y-114754752D01*
X93555852Y-114470715D01*
X93649343Y-114162516D01*
X93680911Y-113842000D01*
X93649343Y-113521484D01*
X93555852Y-113213285D01*
X93404031Y-112929248D01*
X93199714Y-112680286D01*
X93067767Y-112572000D01*
X93199714Y-112463714D01*
X93404031Y-112214752D01*
X93555852Y-111930715D01*
X93649343Y-111622516D01*
X93680911Y-111302000D01*
X93649343Y-110981484D01*
X93555852Y-110673285D01*
X93404031Y-110389248D01*
X93199714Y-110140286D01*
X93067767Y-110032000D01*
X93199714Y-109923714D01*
X93404031Y-109674752D01*
X93555852Y-109390715D01*
X93649343Y-109082516D01*
X93680911Y-108762000D01*
X93649343Y-108441484D01*
X93555852Y-108133285D01*
X93404031Y-107849248D01*
X93199714Y-107600286D01*
X93067767Y-107492000D01*
X93199714Y-107383714D01*
X93404031Y-107134752D01*
X93555852Y-106850715D01*
X93649343Y-106542516D01*
X93680911Y-106222000D01*
X93649343Y-105901484D01*
X93555852Y-105593285D01*
X93404031Y-105309248D01*
X93199714Y-105060286D01*
X93067767Y-104952000D01*
X93199714Y-104843714D01*
X93404031Y-104594752D01*
X93555852Y-104310715D01*
X93649343Y-104002516D01*
X93680911Y-103682000D01*
X93649343Y-103361484D01*
X93555852Y-103053285D01*
X93404031Y-102769248D01*
X93199714Y-102520286D01*
X93067767Y-102412000D01*
X93199714Y-102303714D01*
X93404031Y-102054752D01*
X93555852Y-101770715D01*
X93649343Y-101462516D01*
X93680911Y-101142000D01*
X93649343Y-100821484D01*
X93555852Y-100513285D01*
X93404031Y-100229248D01*
X93199714Y-99980286D01*
X93067767Y-99872000D01*
X93199714Y-99763714D01*
X93404031Y-99514752D01*
X93555852Y-99230715D01*
X93649343Y-98922516D01*
X93680911Y-98602000D01*
X93649343Y-98281484D01*
X93555852Y-97973285D01*
X93404031Y-97689248D01*
X93199714Y-97440286D01*
X93067767Y-97332000D01*
X93199714Y-97223714D01*
X93404031Y-96974752D01*
X93555852Y-96690715D01*
X93649343Y-96382516D01*
X93680911Y-96062000D01*
X93649343Y-95741484D01*
X93555852Y-95433285D01*
X93404031Y-95149248D01*
X93199714Y-94900286D01*
X93067767Y-94792000D01*
X93199714Y-94683714D01*
X93404031Y-94434752D01*
X93555852Y-94150715D01*
X93649343Y-93842516D01*
X93680911Y-93522000D01*
X93649343Y-93201484D01*
X93555852Y-92893285D01*
X93404031Y-92609248D01*
X93199714Y-92360286D01*
X93067767Y-92252000D01*
X93199714Y-92143714D01*
X93404031Y-91894752D01*
X93555852Y-91610715D01*
X93649343Y-91302516D01*
X93680911Y-90982000D01*
X93649343Y-90661484D01*
X93555852Y-90353285D01*
X93404031Y-90069248D01*
X93199714Y-89820286D01*
X92959790Y-89623386D01*
X93083275Y-89557382D01*
X93286555Y-89390555D01*
X93453382Y-89187275D01*
X93577347Y-88955354D01*
X93653683Y-88703706D01*
X93679459Y-88442000D01*
X93653683Y-88180294D01*
X93577347Y-87928646D01*
X93453382Y-87696725D01*
X93286555Y-87493445D01*
X93083275Y-87326618D01*
X92851354Y-87202653D01*
X92750304Y-87172000D01*
X92851354Y-87141347D01*
X93083275Y-87017382D01*
X93286555Y-86850555D01*
X93453382Y-86647275D01*
X93577347Y-86415354D01*
X93653683Y-86163706D01*
X93679459Y-85902000D01*
X93653683Y-85640294D01*
X93577347Y-85388646D01*
X93453382Y-85156725D01*
X93286555Y-84953445D01*
X93083275Y-84786618D01*
X92959790Y-84720614D01*
X93199714Y-84523714D01*
X93404031Y-84274752D01*
X93555852Y-83990715D01*
X93649343Y-83682516D01*
X93680911Y-83362000D01*
X93649343Y-83041484D01*
X93555852Y-82733285D01*
X93404031Y-82449248D01*
X93299639Y-82322045D01*
X93304146Y-82319636D01*
X93431291Y-82215291D01*
X93535636Y-82088146D01*
X93613172Y-81943087D01*
X93660918Y-81785689D01*
X93677040Y-81622000D01*
X93677040Y-80022000D01*
X93660918Y-79858311D01*
X93613172Y-79700913D01*
X93535636Y-79555854D01*
X93431291Y-79428709D01*
X93304146Y-79324364D01*
X93159087Y-79246828D01*
X93001689Y-79199082D01*
X92838000Y-79182960D01*
X90438000Y-79182960D01*
X90274311Y-79199082D01*
X90116913Y-79246828D01*
X89971854Y-79324364D01*
X89844709Y-79428709D01*
X89740364Y-79555854D01*
X89662828Y-79700913D01*
X89615082Y-79858311D01*
X89598960Y-80022000D01*
X89598960Y-81622000D01*
X89615082Y-81785689D01*
X89662828Y-81943087D01*
X89740364Y-82088146D01*
X89844709Y-82215291D01*
X89971854Y-82319636D01*
X89976361Y-82322045D01*
X89871969Y-82449248D01*
X89720148Y-82733285D01*
X89626657Y-83041484D01*
X89595089Y-83362000D01*
X89626657Y-83682516D01*
X89720148Y-83990715D01*
X89871969Y-84274752D01*
X90076286Y-84523714D01*
X90316210Y-84720614D01*
X90192725Y-84786618D01*
X89989445Y-84953445D01*
X89822618Y-85156725D01*
X89698653Y-85388646D01*
X89622317Y-85640294D01*
X89596541Y-85902000D01*
X89622317Y-86163706D01*
X89698653Y-86415354D01*
X89822618Y-86647275D01*
X89989445Y-86850555D01*
X90192725Y-87017382D01*
X90424646Y-87141347D01*
X90525696Y-87172000D01*
X90424646Y-87202653D01*
X90192725Y-87326618D01*
X89989445Y-87493445D01*
X89822618Y-87696725D01*
X89698653Y-87928646D01*
X89622317Y-88180294D01*
X89596541Y-88442000D01*
X89622317Y-88703706D01*
X89698653Y-88955354D01*
X89822618Y-89187275D01*
X89989445Y-89390555D01*
X90192725Y-89557382D01*
X90316210Y-89623386D01*
X90076286Y-89820286D01*
X89871969Y-90069248D01*
X89720148Y-90353285D01*
X89626657Y-90661484D01*
X89595089Y-90982000D01*
X89626657Y-91302516D01*
X89720148Y-91610715D01*
X89871969Y-91894752D01*
X90076286Y-92143714D01*
X90208233Y-92252000D01*
X90076286Y-92360286D01*
X89910744Y-92562000D01*
X81531151Y-92562000D01*
X81492470Y-92558190D01*
X81616639Y-92258419D01*
X81691000Y-91884581D01*
X81691000Y-91503419D01*
X81632696Y-91210305D01*
X82196001Y-90647000D01*
X85032761Y-90647000D01*
X85063748Y-90677987D01*
X85331537Y-90856918D01*
X85629088Y-90980168D01*
X85944967Y-91043000D01*
X86267033Y-91043000D01*
X86582912Y-90980168D01*
X86880463Y-90856918D01*
X87148252Y-90677987D01*
X87375987Y-90450252D01*
X87554918Y-90182463D01*
X87678168Y-89884912D01*
X87741000Y-89569033D01*
X87741000Y-89246967D01*
X87721701Y-89149944D01*
X87767474Y-89104171D01*
X87804107Y-89074107D01*
X87865163Y-88999710D01*
X87924073Y-88927929D01*
X88013216Y-88761154D01*
X88029300Y-88708131D01*
X88068110Y-88580193D01*
X88082000Y-88439162D01*
X88082000Y-88439152D01*
X88086644Y-88392000D01*
X88082000Y-88344848D01*
X88082000Y-75739151D01*
X88086644Y-75691999D01*
X88082000Y-75644847D01*
X88082000Y-75644838D01*
X88068110Y-75503807D01*
X88013216Y-75322846D01*
X87924073Y-75156072D01*
X87804107Y-75009893D01*
X87767469Y-74979825D01*
X87326175Y-74538531D01*
X87296107Y-74501893D01*
X87149928Y-74381927D01*
X86983154Y-74292784D01*
X86802193Y-74237890D01*
X86661162Y-74224000D01*
X86661152Y-74224000D01*
X86614000Y-74219356D01*
X86566848Y-74224000D01*
X82851151Y-74224000D01*
X82803999Y-74219356D01*
X82756847Y-74224000D01*
X82756838Y-74224000D01*
X82615807Y-74237890D01*
X82480286Y-74279000D01*
X82434846Y-74292784D01*
X82268071Y-74381927D01*
X82180486Y-74453807D01*
X82121893Y-74501893D01*
X82091829Y-74538526D01*
X81792056Y-74838299D01*
X81695033Y-74819000D01*
X81372967Y-74819000D01*
X81057088Y-74881832D01*
X80759537Y-75005082D01*
X80491748Y-75184013D01*
X80264013Y-75411748D01*
X80209054Y-75494000D01*
X79803151Y-75494000D01*
X79755999Y-75489356D01*
X79708847Y-75494000D01*
X79708838Y-75494000D01*
X79567807Y-75507890D01*
X79386846Y-75562784D01*
X79220072Y-75651927D01*
X79073893Y-75771893D01*
X79043825Y-75808531D01*
X78729527Y-76122829D01*
X78692894Y-76152893D01*
X78662830Y-76189526D01*
X78662829Y-76189527D01*
X78572927Y-76299072D01*
X78483784Y-76465847D01*
X78468886Y-76514960D01*
X78430291Y-76642194D01*
X78428891Y-76646808D01*
X78410356Y-76835000D01*
X78415001Y-76882161D01*
X78415000Y-77453355D01*
X77326356Y-78542000D01*
X76006301Y-78542000D01*
X75990918Y-78385811D01*
X75943172Y-78228413D01*
X75865636Y-78083354D01*
X75761291Y-77956209D01*
X75634146Y-77851864D01*
X75489087Y-77774328D01*
X75331689Y-77726582D01*
X75168000Y-77710460D01*
X73168000Y-77710460D01*
X73004311Y-77726582D01*
X72846913Y-77774328D01*
X72701854Y-77851864D01*
X72574709Y-77956209D01*
X72470364Y-78083354D01*
X72392828Y-78228413D01*
X72345082Y-78385811D01*
X72328960Y-78549500D01*
X72328960Y-80454500D01*
X72345082Y-80618189D01*
X72392828Y-80775587D01*
X72470364Y-80920646D01*
X72574709Y-81047791D01*
X72696218Y-81147511D01*
X72567252Y-81384303D01*
X72472456Y-81679223D01*
X72620112Y-81941500D01*
X74067500Y-81941500D01*
X74067500Y-81921500D01*
X74268500Y-81921500D01*
X74268500Y-81941500D01*
X75715888Y-81941500D01*
X75863544Y-81679223D01*
X75768748Y-81384303D01*
X75639782Y-81147511D01*
X75761291Y-81047791D01*
X75865636Y-80920646D01*
X75943172Y-80775587D01*
X75990918Y-80618189D01*
X76006301Y-80462000D01*
X77676848Y-80462000D01*
X77724000Y-80466644D01*
X77771152Y-80462000D01*
X77771162Y-80462000D01*
X77912193Y-80448110D01*
X78093154Y-80393216D01*
X78259928Y-80304073D01*
X78406107Y-80184107D01*
X78436175Y-80147469D01*
X80020474Y-78563171D01*
X80057107Y-78533107D01*
X80177073Y-78386928D01*
X80266216Y-78220154D01*
X80321110Y-78039193D01*
X80335000Y-77898162D01*
X80335000Y-77898160D01*
X80339645Y-77851000D01*
X80335000Y-77803840D01*
X80335000Y-77567239D01*
X80491748Y-77723987D01*
X80759537Y-77902918D01*
X81057088Y-78026168D01*
X81372967Y-78089000D01*
X81695033Y-78089000D01*
X82010912Y-78026168D01*
X82308463Y-77902918D01*
X82576252Y-77723987D01*
X82803987Y-77496252D01*
X82812733Y-77483162D01*
X83146966Y-77483162D01*
X83210617Y-77758270D01*
X83480888Y-77893843D01*
X83772416Y-77974084D01*
X84073996Y-77995909D01*
X84374039Y-77958479D01*
X84661015Y-77863232D01*
X84857383Y-77758270D01*
X84921034Y-77483162D01*
X84034000Y-76596128D01*
X83146966Y-77483162D01*
X82812733Y-77483162D01*
X82920707Y-77321569D01*
X83004838Y-77341034D01*
X83891872Y-76454000D01*
X83877730Y-76439858D01*
X84019858Y-76297730D01*
X84034000Y-76311872D01*
X84048143Y-76297730D01*
X84190271Y-76439858D01*
X84176128Y-76454000D01*
X85063162Y-77341034D01*
X85338270Y-77277383D01*
X85473843Y-77007112D01*
X85554084Y-76715584D01*
X85575909Y-76414004D01*
X85542226Y-76144000D01*
X86162001Y-76144000D01*
X86162000Y-87773000D01*
X85944967Y-87773000D01*
X85629088Y-87835832D01*
X85331537Y-87959082D01*
X85063748Y-88138013D01*
X84836013Y-88365748D01*
X84657082Y-88633537D01*
X84639079Y-88677000D01*
X83941290Y-88677000D01*
X84007444Y-88577993D01*
X84100541Y-88353237D01*
X84148001Y-88114638D01*
X84148001Y-87871364D01*
X84100541Y-87632765D01*
X84007444Y-87408009D01*
X83873001Y-87206801D01*
X83873001Y-86821858D01*
X84026416Y-86864084D01*
X84327996Y-86885909D01*
X84628039Y-86848479D01*
X84915015Y-86753232D01*
X85111383Y-86648270D01*
X85175034Y-86373162D01*
X84288000Y-85486128D01*
X84273858Y-85500271D01*
X84131730Y-85358143D01*
X84145872Y-85344000D01*
X84430128Y-85344000D01*
X85317162Y-86231034D01*
X85592270Y-86167383D01*
X85727843Y-85897112D01*
X85808084Y-85605584D01*
X85829909Y-85304004D01*
X85792479Y-85003961D01*
X85697232Y-84716985D01*
X85592270Y-84520617D01*
X85317162Y-84456966D01*
X84430128Y-85344000D01*
X84145872Y-85344000D01*
X84131730Y-85329858D01*
X84273858Y-85187730D01*
X84288000Y-85201872D01*
X85175034Y-84314838D01*
X85111383Y-84039730D01*
X84841112Y-83904157D01*
X84549584Y-83823916D01*
X84248004Y-83802091D01*
X83947961Y-83839521D01*
X83873001Y-83864400D01*
X83873001Y-83709784D01*
X83877326Y-83650207D01*
X83867174Y-83568678D01*
X83859111Y-83486808D01*
X83855496Y-83474893D01*
X83853960Y-83462553D01*
X83828097Y-83384568D01*
X83804217Y-83305847D01*
X83798348Y-83294867D01*
X83794433Y-83283062D01*
X83753837Y-83211594D01*
X83715074Y-83139073D01*
X83707180Y-83129454D01*
X83701034Y-83118634D01*
X83647255Y-83056435D01*
X83595108Y-82992894D01*
X83585491Y-82985002D01*
X83577351Y-82975587D01*
X83512467Y-82925072D01*
X83448929Y-82872928D01*
X83396239Y-82844765D01*
X83099273Y-82657196D01*
X83174000Y-82664556D01*
X83789750Y-82661000D01*
X83973500Y-82477250D01*
X83973500Y-81126500D01*
X84174500Y-81126500D01*
X84174500Y-82477250D01*
X84358250Y-82661000D01*
X84974000Y-82664556D01*
X85118085Y-82650365D01*
X85256633Y-82608337D01*
X85384320Y-82540087D01*
X85496238Y-82448238D01*
X85588087Y-82336320D01*
X85656337Y-82208633D01*
X85698365Y-82070085D01*
X85712556Y-81926000D01*
X85709000Y-81310250D01*
X85525250Y-81126500D01*
X84174500Y-81126500D01*
X83973500Y-81126500D01*
X83953500Y-81126500D01*
X83953500Y-80925500D01*
X83973500Y-80925500D01*
X83973500Y-79574750D01*
X84174500Y-79574750D01*
X84174500Y-80925500D01*
X85525250Y-80925500D01*
X85709000Y-80741750D01*
X85712556Y-80126000D01*
X85698365Y-79981915D01*
X85656337Y-79843367D01*
X85588087Y-79715680D01*
X85496238Y-79603762D01*
X85384320Y-79511913D01*
X85256633Y-79443663D01*
X85118085Y-79401635D01*
X84974000Y-79387444D01*
X84358250Y-79391000D01*
X84174500Y-79574750D01*
X83973500Y-79574750D01*
X83789750Y-79391000D01*
X83174000Y-79387444D01*
X83029915Y-79401635D01*
X82891367Y-79443663D01*
X82763680Y-79511913D01*
X82651762Y-79603762D01*
X82608069Y-79657002D01*
X82355831Y-79488463D01*
X82040081Y-79357675D01*
X81704883Y-79291000D01*
X81363117Y-79291000D01*
X81027919Y-79357675D01*
X80712169Y-79488463D01*
X80428002Y-79678337D01*
X80186337Y-79920002D01*
X79996463Y-80204169D01*
X79865675Y-80519919D01*
X79799000Y-80855117D01*
X79799000Y-81196883D01*
X79865675Y-81532081D01*
X79996463Y-81847831D01*
X80186337Y-82131998D01*
X80428002Y-82373663D01*
X80549000Y-82454511D01*
X80549000Y-82852379D01*
X80563253Y-82997093D01*
X80619576Y-83182766D01*
X80711040Y-83353884D01*
X80834130Y-83503870D01*
X80984116Y-83626960D01*
X81155233Y-83718424D01*
X81210686Y-83735245D01*
X81285435Y-83782458D01*
X81013537Y-83895082D01*
X80745748Y-84074013D01*
X80518013Y-84301748D01*
X80339082Y-84569537D01*
X80215832Y-84867088D01*
X80153000Y-85182967D01*
X80153000Y-85505033D01*
X80215832Y-85820912D01*
X80241550Y-85883000D01*
X75592001Y-85883000D01*
X75519600Y-85810600D01*
X75708942Y-85579886D01*
X75874924Y-85269356D01*
X75977136Y-84932411D01*
X76011648Y-84582000D01*
X75977136Y-84231589D01*
X75874924Y-83894644D01*
X75708942Y-83584114D01*
X75485568Y-83311932D01*
X75400454Y-83242081D01*
X75610593Y-82990083D01*
X75768748Y-82699697D01*
X75863544Y-82404777D01*
X75715888Y-82142500D01*
X74268500Y-82142500D01*
X74268500Y-82162500D01*
X74067500Y-82162500D01*
X74067500Y-82142500D01*
X72620112Y-82142500D01*
X72472456Y-82404777D01*
X72567252Y-82699697D01*
X72725407Y-82990083D01*
X72935546Y-83242081D01*
X72850432Y-83311932D01*
X72627058Y-83584114D01*
X72461076Y-83894644D01*
X72358864Y-84231589D01*
X72324352Y-84582000D01*
X72358864Y-84932411D01*
X72461076Y-85269356D01*
X72627058Y-85579886D01*
X72850432Y-85852068D01*
X73122614Y-86075442D01*
X73222685Y-86128931D01*
X73253576Y-86230766D01*
X73259273Y-86241424D01*
X73345041Y-86401884D01*
X73468131Y-86551870D01*
X73505711Y-86582711D01*
X74453289Y-87530290D01*
X74484130Y-87567870D01*
X74634116Y-87690960D01*
X74787602Y-87773000D01*
X74805233Y-87782424D01*
X74990906Y-87838747D01*
X75184000Y-87857765D01*
X75232380Y-87853000D01*
X81231620Y-87853000D01*
X81280000Y-87857765D01*
X81328380Y-87853000D01*
X81473094Y-87838747D01*
X81658767Y-87782424D01*
X81700085Y-87760339D01*
X81678001Y-87871364D01*
X81678001Y-88114638D01*
X81725461Y-88353237D01*
X81818558Y-88577993D01*
X81884712Y-88677000D01*
X81836380Y-88677000D01*
X81788000Y-88672235D01*
X81739620Y-88677000D01*
X81594906Y-88691253D01*
X81409233Y-88747576D01*
X81238116Y-88839040D01*
X81088130Y-88962130D01*
X81057289Y-88999710D01*
X80239695Y-89817304D01*
X79946581Y-89759000D01*
X79565419Y-89759000D01*
X79191581Y-89833361D01*
X78839434Y-89979225D01*
X78522509Y-90190987D01*
X78252987Y-90460509D01*
X78041225Y-90777434D01*
X77895361Y-91129581D01*
X77821000Y-91503419D01*
X77821000Y-91884581D01*
X77895361Y-92258419D01*
X78041225Y-92610566D01*
X78252987Y-92927491D01*
X78522509Y-93197013D01*
X78839434Y-93408775D01*
X79127269Y-93528000D01*
X73634114Y-93528000D01*
X73702146Y-93491636D01*
X73829291Y-93387291D01*
X73933636Y-93260146D01*
X74011172Y-93115087D01*
X74058918Y-92957689D01*
X74075040Y-92794000D01*
X74075040Y-90594000D01*
X74058918Y-90430311D01*
X74011172Y-90272913D01*
X73933636Y-90127854D01*
X73829291Y-90000709D01*
X73702146Y-89896364D01*
X73557087Y-89818828D01*
X73399689Y-89771082D01*
X73236000Y-89754960D01*
X71036000Y-89754960D01*
X70872311Y-89771082D01*
X70714913Y-89818828D01*
X70569854Y-89896364D01*
X70442709Y-90000709D01*
X70338364Y-90127854D01*
X70260828Y-90272913D01*
X70213082Y-90430311D01*
X70196960Y-90594000D01*
X70196960Y-90709000D01*
X65940001Y-90709000D01*
X65501000Y-90270000D01*
X65501000Y-87717244D01*
X65621975Y-87667135D01*
X66004393Y-87411612D01*
X66329612Y-87086393D01*
X66585135Y-86703975D01*
X66761142Y-86279056D01*
X66850870Y-85827965D01*
X66850870Y-85368035D01*
X66761142Y-84916944D01*
X66585135Y-84492025D01*
X66329612Y-84109607D01*
X66004393Y-83784388D01*
X65621975Y-83528865D01*
X65197056Y-83352858D01*
X64745965Y-83263130D01*
X64286035Y-83263130D01*
X63834944Y-83352858D01*
X63410025Y-83528865D01*
X63027607Y-83784388D01*
X62702388Y-84109607D01*
X62446865Y-84492025D01*
X62270858Y-84916944D01*
X62181130Y-85368035D01*
X62074000Y-85368035D01*
X62074000Y-82126619D01*
X63130790Y-82126619D01*
X63278649Y-82473329D01*
X63668033Y-82678715D01*
X64090004Y-82804189D01*
X64528345Y-82844930D01*
X64966213Y-82799373D01*
X65386779Y-82669267D01*
X65753351Y-82473329D01*
X65901210Y-82126619D01*
X64516000Y-80741408D01*
X63130790Y-82126619D01*
X62074000Y-82126619D01*
X62074000Y-80611625D01*
X62270350Y-80611625D01*
X62315907Y-81049493D01*
X62446013Y-81470059D01*
X62641951Y-81836631D01*
X62988661Y-81984490D01*
X64373872Y-80599280D01*
X64658128Y-80599280D01*
X66043339Y-81984490D01*
X66390049Y-81836631D01*
X66595435Y-81447247D01*
X66720909Y-81025276D01*
X66761650Y-80586935D01*
X66716093Y-80149067D01*
X66585987Y-79728501D01*
X66390049Y-79361929D01*
X66043339Y-79214070D01*
X64658128Y-80599280D01*
X64373872Y-80599280D01*
X62988661Y-79214070D01*
X62641951Y-79361929D01*
X62436565Y-79751313D01*
X62311091Y-80173284D01*
X62270350Y-80611625D01*
X62074000Y-80611625D01*
X62074000Y-79071941D01*
X63130790Y-79071941D01*
X64516000Y-80457152D01*
X65901210Y-79071941D01*
X65753351Y-78725231D01*
X65363967Y-78519845D01*
X64941996Y-78394371D01*
X64503655Y-78353630D01*
X64065787Y-78399187D01*
X63645221Y-78529293D01*
X63278649Y-78725231D01*
X63130790Y-79071941D01*
X62074000Y-79071941D01*
X62074000Y-72982874D01*
X64542874Y-72982874D01*
X64606914Y-73193997D01*
X64741749Y-73463010D01*
X64926475Y-73700549D01*
X65153994Y-73897486D01*
X65415561Y-74046252D01*
X65701125Y-74141130D01*
X65939500Y-73991960D01*
X65939500Y-72744500D01*
X66140500Y-72744500D01*
X66140500Y-73991960D01*
X66378875Y-74141130D01*
X66664439Y-74046252D01*
X66926006Y-73897486D01*
X67153525Y-73700549D01*
X67338251Y-73463010D01*
X67473086Y-73193997D01*
X67537126Y-72982874D01*
X67387507Y-72744500D01*
X66140500Y-72744500D01*
X65939500Y-72744500D01*
X64692493Y-72744500D01*
X64542874Y-72982874D01*
X62074000Y-72982874D01*
X62074000Y-72305126D01*
X64542874Y-72305126D01*
X64692493Y-72543500D01*
X65939500Y-72543500D01*
X65939500Y-71296040D01*
X66140500Y-71296040D01*
X66140500Y-72543500D01*
X67387507Y-72543500D01*
X67425501Y-72482967D01*
X77105000Y-72482967D01*
X77105000Y-72805033D01*
X77167832Y-73120912D01*
X77291082Y-73418463D01*
X77470013Y-73686252D01*
X77697748Y-73913987D01*
X77965537Y-74092918D01*
X78263088Y-74216168D01*
X78578967Y-74279000D01*
X78901033Y-74279000D01*
X79216912Y-74216168D01*
X79514463Y-74092918D01*
X79782252Y-73913987D01*
X79838239Y-73858000D01*
X94459390Y-73858000D01*
X94461107Y-73860569D01*
X94671431Y-74070893D01*
X94918747Y-74236144D01*
X95193549Y-74349971D01*
X95485278Y-74408000D01*
X95782722Y-74408000D01*
X96074451Y-74349971D01*
X96349253Y-74236144D01*
X96596569Y-74070893D01*
X96634000Y-74033462D01*
X96671431Y-74070893D01*
X96674001Y-74072610D01*
X96674000Y-74732000D01*
X90956200Y-74732000D01*
X90754992Y-74597557D01*
X90530236Y-74504460D01*
X90291637Y-74457000D01*
X90048363Y-74457000D01*
X89809764Y-74504460D01*
X89585008Y-74597557D01*
X89382733Y-74732713D01*
X89210713Y-74904733D01*
X89075557Y-75107008D01*
X88982460Y-75331764D01*
X88935000Y-75570363D01*
X88935000Y-75813637D01*
X88982460Y-76052236D01*
X89075557Y-76276992D01*
X89210713Y-76479267D01*
X89382733Y-76651287D01*
X89585008Y-76786443D01*
X89809764Y-76879540D01*
X90048363Y-76927000D01*
X90291637Y-76927000D01*
X90530236Y-76879540D01*
X90754992Y-76786443D01*
X90956200Y-76652000D01*
X94216965Y-76652000D01*
X94193927Y-76680072D01*
X94104784Y-76846847D01*
X94049890Y-77027808D01*
X94036000Y-77168839D01*
X94036000Y-77168848D01*
X94031356Y-77216000D01*
X94036000Y-77263152D01*
X94036001Y-127460838D01*
X94031356Y-127508000D01*
X94036001Y-127555162D01*
X94049891Y-127696193D01*
X94055035Y-127713150D01*
X94104784Y-127877153D01*
X94193927Y-128043928D01*
X94283829Y-128153473D01*
X94313894Y-128190107D01*
X94350526Y-128220170D01*
X95857829Y-129727474D01*
X95887893Y-129764107D01*
X95924525Y-129794170D01*
X96034071Y-129884073D01*
X96108476Y-129923843D01*
X96200846Y-129973216D01*
X96381807Y-130028110D01*
X96522838Y-130042000D01*
X96522847Y-130042000D01*
X96569999Y-130046644D01*
X96617151Y-130042000D01*
X105150744Y-130042000D01*
X105316286Y-130243714D01*
X105565248Y-130448031D01*
X105849285Y-130599852D01*
X106157484Y-130693343D01*
X106397678Y-130717000D01*
X107358322Y-130717000D01*
X107598516Y-130693343D01*
X107906715Y-130599852D01*
X108190752Y-130448031D01*
X108439714Y-130243714D01*
X108472628Y-130203608D01*
X115406520Y-130203608D01*
X115494268Y-130499163D01*
X115798592Y-130654695D01*
X116127412Y-130747867D01*
X116468091Y-130775100D01*
X116807536Y-130735346D01*
X117132703Y-130630134D01*
X117377732Y-130499163D01*
X117465480Y-130203608D01*
X121906520Y-130203608D01*
X121994268Y-130499163D01*
X122298592Y-130654695D01*
X122627412Y-130747867D01*
X122968091Y-130775100D01*
X123307536Y-130735346D01*
X123632703Y-130630134D01*
X123877732Y-130499163D01*
X123965480Y-130203608D01*
X122936000Y-129174128D01*
X121906520Y-130203608D01*
X117465480Y-130203608D01*
X116436000Y-129174128D01*
X115406520Y-130203608D01*
X108472628Y-130203608D01*
X108644031Y-129994752D01*
X108795852Y-129710715D01*
X108889343Y-129402516D01*
X108920911Y-129082000D01*
X108919148Y-129064091D01*
X114692900Y-129064091D01*
X114732654Y-129403536D01*
X114837866Y-129728703D01*
X114968837Y-129973732D01*
X115264392Y-130061480D01*
X116293872Y-129032000D01*
X116578128Y-129032000D01*
X117607608Y-130061480D01*
X117903163Y-129973732D01*
X118058695Y-129669408D01*
X118151867Y-129340588D01*
X118173969Y-129064091D01*
X121192900Y-129064091D01*
X121232654Y-129403536D01*
X121337866Y-129728703D01*
X121468837Y-129973732D01*
X121764392Y-130061480D01*
X122793872Y-129032000D01*
X123078128Y-129032000D01*
X124107608Y-130061480D01*
X124403163Y-129973732D01*
X124558695Y-129669408D01*
X124651867Y-129340588D01*
X124679100Y-128999909D01*
X124639346Y-128660464D01*
X124534134Y-128335297D01*
X124403163Y-128090268D01*
X124107608Y-128002520D01*
X123078128Y-129032000D01*
X122793872Y-129032000D01*
X121764392Y-128002520D01*
X121468837Y-128090268D01*
X121313305Y-128394592D01*
X121220133Y-128723412D01*
X121192900Y-129064091D01*
X118173969Y-129064091D01*
X118179100Y-128999909D01*
X118139346Y-128660464D01*
X118034134Y-128335297D01*
X117903163Y-128090268D01*
X117607608Y-128002520D01*
X116578128Y-129032000D01*
X116293872Y-129032000D01*
X115264392Y-128002520D01*
X114968837Y-128090268D01*
X114813305Y-128394592D01*
X114720133Y-128723412D01*
X114692900Y-129064091D01*
X108919148Y-129064091D01*
X108889343Y-128761484D01*
X108795852Y-128453285D01*
X108644031Y-128169248D01*
X108439714Y-127920286D01*
X108366733Y-127860392D01*
X115406520Y-127860392D01*
X116436000Y-128889872D01*
X117465480Y-127860392D01*
X121906520Y-127860392D01*
X122936000Y-128889872D01*
X123965480Y-127860392D01*
X123877732Y-127564837D01*
X123573408Y-127409305D01*
X123244588Y-127316133D01*
X122903909Y-127288900D01*
X122564464Y-127328654D01*
X122239297Y-127433866D01*
X121994268Y-127564837D01*
X121906520Y-127860392D01*
X117465480Y-127860392D01*
X117377732Y-127564837D01*
X117073408Y-127409305D01*
X116744588Y-127316133D01*
X116403909Y-127288900D01*
X116064464Y-127328654D01*
X115739297Y-127433866D01*
X115494268Y-127564837D01*
X115406520Y-127860392D01*
X108366733Y-127860392D01*
X108307767Y-127812000D01*
X108439714Y-127703714D01*
X108644031Y-127454752D01*
X108795852Y-127170715D01*
X108889343Y-126862516D01*
X108920911Y-126542000D01*
X108889343Y-126221484D01*
X108795852Y-125913285D01*
X108644031Y-125629248D01*
X108439714Y-125380286D01*
X108199790Y-125183386D01*
X108323275Y-125117382D01*
X108526555Y-124950555D01*
X108693382Y-124747275D01*
X108817347Y-124515354D01*
X108867121Y-124351268D01*
X114601000Y-124351268D01*
X114601000Y-124712732D01*
X114671518Y-125067250D01*
X114809844Y-125401199D01*
X115010662Y-125701744D01*
X115266256Y-125957338D01*
X115566801Y-126158156D01*
X115900750Y-126296482D01*
X116255268Y-126367000D01*
X116616732Y-126367000D01*
X116971250Y-126296482D01*
X117305199Y-126158156D01*
X117605744Y-125957338D01*
X117861338Y-125701744D01*
X118001485Y-125492000D01*
X121370515Y-125492000D01*
X121510662Y-125701744D01*
X121766256Y-125957338D01*
X122066801Y-126158156D01*
X122400750Y-126296482D01*
X122755268Y-126367000D01*
X123116732Y-126367000D01*
X123471250Y-126296482D01*
X123805199Y-126158156D01*
X124105744Y-125957338D01*
X124361338Y-125701744D01*
X124562156Y-125401199D01*
X124700482Y-125067250D01*
X124771000Y-124712732D01*
X124771000Y-124351268D01*
X124700482Y-123996750D01*
X124562156Y-123662801D01*
X124361338Y-123362256D01*
X124105744Y-123106662D01*
X123805199Y-122905844D01*
X123471250Y-122767518D01*
X123116732Y-122697000D01*
X122755268Y-122697000D01*
X122400750Y-122767518D01*
X122066801Y-122905844D01*
X121766256Y-123106662D01*
X121510662Y-123362256D01*
X121370515Y-123572000D01*
X118001485Y-123572000D01*
X117861338Y-123362256D01*
X117605744Y-123106662D01*
X117305199Y-122905844D01*
X116971250Y-122767518D01*
X116616732Y-122697000D01*
X116255268Y-122697000D01*
X115900750Y-122767518D01*
X115566801Y-122905844D01*
X115266256Y-123106662D01*
X115010662Y-123362256D01*
X114809844Y-123662801D01*
X114671518Y-123996750D01*
X114601000Y-124351268D01*
X108867121Y-124351268D01*
X108893683Y-124263706D01*
X108919459Y-124002000D01*
X108893683Y-123740294D01*
X108817347Y-123488646D01*
X108693382Y-123256725D01*
X108526555Y-123053445D01*
X108323275Y-122886618D01*
X108091354Y-122762653D01*
X107990304Y-122732000D01*
X108091354Y-122701347D01*
X108323275Y-122577382D01*
X108526555Y-122410555D01*
X108693382Y-122207275D01*
X108817347Y-121975354D01*
X108893683Y-121723706D01*
X108919459Y-121462000D01*
X108893683Y-121200294D01*
X108817347Y-120948646D01*
X108693382Y-120716725D01*
X108526555Y-120513445D01*
X108323275Y-120346618D01*
X108199790Y-120280614D01*
X108439714Y-120083714D01*
X108644031Y-119834752D01*
X108795852Y-119550715D01*
X108889343Y-119242516D01*
X108920911Y-118922000D01*
X108889343Y-118601484D01*
X108795852Y-118293285D01*
X108644031Y-118009248D01*
X108439714Y-117760286D01*
X108307767Y-117652000D01*
X108439714Y-117543714D01*
X108644031Y-117294752D01*
X108795852Y-117010715D01*
X108889343Y-116702516D01*
X108892459Y-116670875D01*
X115088870Y-116670875D01*
X115183748Y-116956439D01*
X115332514Y-117218006D01*
X115529451Y-117445525D01*
X115766990Y-117630251D01*
X116036003Y-117765086D01*
X116247126Y-117829126D01*
X116485500Y-117679507D01*
X116485500Y-116432500D01*
X116686500Y-116432500D01*
X116686500Y-117679507D01*
X116924874Y-117829126D01*
X117135997Y-117765086D01*
X117405010Y-117630251D01*
X117642549Y-117445525D01*
X117839486Y-117218006D01*
X117988252Y-116956439D01*
X118083130Y-116670875D01*
X117953604Y-116463890D01*
X119872031Y-116463890D01*
X119981785Y-116806461D01*
X120156262Y-117121038D01*
X120388758Y-117395532D01*
X120670338Y-117619394D01*
X120990180Y-117784021D01*
X121280111Y-117871966D01*
X121565500Y-117726189D01*
X121565500Y-116178500D01*
X121766500Y-116178500D01*
X121766500Y-117726189D01*
X122051889Y-117871966D01*
X122341820Y-117784021D01*
X122661662Y-117619394D01*
X122943242Y-117395532D01*
X123175738Y-117121038D01*
X123350215Y-116806461D01*
X123459969Y-116463890D01*
X123314499Y-116178500D01*
X121766500Y-116178500D01*
X121565500Y-116178500D01*
X120017501Y-116178500D01*
X119872031Y-116463890D01*
X117953604Y-116463890D01*
X117933960Y-116432500D01*
X116686500Y-116432500D01*
X116485500Y-116432500D01*
X115238040Y-116432500D01*
X115088870Y-116670875D01*
X108892459Y-116670875D01*
X108920911Y-116382000D01*
X108889343Y-116061484D01*
X108868607Y-115993125D01*
X115088870Y-115993125D01*
X115238040Y-116231500D01*
X116485500Y-116231500D01*
X116485500Y-114984493D01*
X116686500Y-114984493D01*
X116686500Y-116231500D01*
X117933960Y-116231500D01*
X118083130Y-115993125D01*
X117988252Y-115707561D01*
X117979465Y-115692110D01*
X119872031Y-115692110D01*
X120017501Y-115977500D01*
X121565500Y-115977500D01*
X121565500Y-114429811D01*
X121766500Y-114429811D01*
X121766500Y-115977500D01*
X123314499Y-115977500D01*
X123459969Y-115692110D01*
X123350215Y-115349539D01*
X123175738Y-115034962D01*
X122943242Y-114760468D01*
X122661662Y-114536606D01*
X122341820Y-114371979D01*
X122051889Y-114284034D01*
X121766500Y-114429811D01*
X121565500Y-114429811D01*
X121280111Y-114284034D01*
X120990180Y-114371979D01*
X120670338Y-114536606D01*
X120388758Y-114760468D01*
X120156262Y-115034962D01*
X119981785Y-115349539D01*
X119872031Y-115692110D01*
X117979465Y-115692110D01*
X117839486Y-115445994D01*
X117642549Y-115218475D01*
X117405010Y-115033749D01*
X117135997Y-114898914D01*
X116924874Y-114834874D01*
X116686500Y-114984493D01*
X116485500Y-114984493D01*
X116247126Y-114834874D01*
X116036003Y-114898914D01*
X115766990Y-115033749D01*
X115529451Y-115218475D01*
X115332514Y-115445994D01*
X115183748Y-115707561D01*
X115088870Y-115993125D01*
X108868607Y-115993125D01*
X108795852Y-115753285D01*
X108644031Y-115469248D01*
X108439714Y-115220286D01*
X108307767Y-115112000D01*
X108439714Y-115003714D01*
X108644031Y-114754752D01*
X108795852Y-114470715D01*
X108889343Y-114162516D01*
X108920911Y-113842000D01*
X108889343Y-113521484D01*
X108795852Y-113213285D01*
X108644031Y-112929248D01*
X108439714Y-112680286D01*
X108307767Y-112572000D01*
X108439714Y-112463714D01*
X108584739Y-112287000D01*
X109375620Y-112287000D01*
X109424000Y-112291765D01*
X109472380Y-112287000D01*
X109617094Y-112272747D01*
X109802767Y-112216424D01*
X109973884Y-112124960D01*
X110123870Y-112001870D01*
X110154715Y-111964285D01*
X111152290Y-110966711D01*
X111189870Y-110935870D01*
X111312960Y-110785884D01*
X111404424Y-110614767D01*
X111460747Y-110429094D01*
X111475000Y-110284380D01*
X111479765Y-110236000D01*
X111475000Y-110187620D01*
X111475000Y-89816000D01*
X114962290Y-86328711D01*
X114999870Y-86297870D01*
X115122960Y-86147884D01*
X115214424Y-85976767D01*
X115270747Y-85791094D01*
X115285000Y-85646380D01*
X115289765Y-85598000D01*
X115285000Y-85549620D01*
X115285000Y-75486379D01*
X115289765Y-75437999D01*
X115270747Y-75244905D01*
X115250430Y-75177929D01*
X115214424Y-75059233D01*
X115122960Y-74888116D01*
X114999870Y-74738130D01*
X114962284Y-74707284D01*
X114619000Y-74364000D01*
X114619000Y-74048462D01*
X114634000Y-74033462D01*
X114671431Y-74070893D01*
X114918747Y-74236144D01*
X115193549Y-74349971D01*
X115485278Y-74408000D01*
X115782722Y-74408000D01*
X116074451Y-74349971D01*
X116349253Y-74236144D01*
X116596569Y-74070893D01*
X116634000Y-74033462D01*
X116671431Y-74070893D01*
X116918747Y-74236144D01*
X117193549Y-74349971D01*
X117485278Y-74408000D01*
X117782722Y-74408000D01*
X118074451Y-74349971D01*
X118349253Y-74236144D01*
X118596569Y-74070893D01*
X118634000Y-74033462D01*
X118671431Y-74070893D01*
X118918747Y-74236144D01*
X119193549Y-74349971D01*
X119485278Y-74408000D01*
X119782722Y-74408000D01*
X120074451Y-74349971D01*
X120349253Y-74236144D01*
X120596569Y-74070893D01*
X120634000Y-74033462D01*
X120671431Y-74070893D01*
X120674000Y-74072610D01*
X120674001Y-78152838D01*
X120669356Y-78200000D01*
X120674001Y-78247162D01*
X120687767Y-78386928D01*
X120687891Y-78388192D01*
X120742784Y-78569153D01*
X120831927Y-78735928D01*
X120889276Y-78805807D01*
X120951894Y-78882107D01*
X120988526Y-78912170D01*
X122283829Y-80207474D01*
X122313893Y-80244107D01*
X122350526Y-80274171D01*
X122375906Y-80295000D01*
X121196242Y-80295000D01*
X121157987Y-80237748D01*
X120930252Y-80010013D01*
X120662463Y-79831082D01*
X120364912Y-79707832D01*
X120049033Y-79645000D01*
X119726967Y-79645000D01*
X119411088Y-79707832D01*
X119113537Y-79831082D01*
X118845748Y-80010013D01*
X118618013Y-80237748D01*
X118439082Y-80505537D01*
X118315832Y-80803088D01*
X118253000Y-81118967D01*
X118253000Y-81441033D01*
X118315832Y-81756912D01*
X118439082Y-82054463D01*
X118618013Y-82322252D01*
X118845748Y-82549987D01*
X119035836Y-82677000D01*
X118845748Y-82804013D01*
X118618013Y-83031748D01*
X118439082Y-83299537D01*
X118315832Y-83597088D01*
X118253000Y-83912967D01*
X118253000Y-84235033D01*
X118315832Y-84550912D01*
X118439082Y-84848463D01*
X118618013Y-85116252D01*
X118845748Y-85343987D01*
X119113537Y-85522918D01*
X119411088Y-85646168D01*
X119726967Y-85709000D01*
X120049033Y-85709000D01*
X120364912Y-85646168D01*
X120662463Y-85522918D01*
X120930252Y-85343987D01*
X121157987Y-85116252D01*
X121336918Y-84848463D01*
X121460168Y-84550912D01*
X121523000Y-84235033D01*
X121523000Y-83912967D01*
X121460168Y-83597088D01*
X121336918Y-83299537D01*
X121157987Y-83031748D01*
X120930252Y-82804013D01*
X120740164Y-82677000D01*
X120930252Y-82549987D01*
X121157987Y-82322252D01*
X121196242Y-82265000D01*
X123290000Y-82265000D01*
X123467008Y-82442008D01*
X123467009Y-83779602D01*
X123462243Y-83827992D01*
X123467008Y-83876372D01*
X123467009Y-88546009D01*
X122904716Y-87983716D01*
X122873870Y-87946130D01*
X122723884Y-87823040D01*
X122552767Y-87731576D01*
X122367094Y-87675253D01*
X122222380Y-87661000D01*
X122174000Y-87656235D01*
X122125620Y-87661000D01*
X115618380Y-87661000D01*
X115570000Y-87656235D01*
X115521620Y-87661000D01*
X115376906Y-87675253D01*
X115191233Y-87731576D01*
X115020116Y-87823040D01*
X114870130Y-87946130D01*
X114839289Y-87983710D01*
X113709711Y-89113289D01*
X113672131Y-89144130D01*
X113549041Y-89294116D01*
X113514028Y-89359621D01*
X113457576Y-89465234D01*
X113401253Y-89650907D01*
X113382235Y-89844000D01*
X113387001Y-89892390D01*
X113387001Y-90907219D01*
X113202256Y-91030662D01*
X112946662Y-91286256D01*
X112745844Y-91586801D01*
X112607518Y-91920750D01*
X112537000Y-92275268D01*
X112537000Y-92636732D01*
X112607518Y-92991250D01*
X112745844Y-93325199D01*
X112946662Y-93625744D01*
X113202256Y-93881338D01*
X113412000Y-94021485D01*
X113412001Y-97390515D01*
X113202256Y-97530662D01*
X112946662Y-97786256D01*
X112745844Y-98086801D01*
X112607518Y-98420750D01*
X112537000Y-98775268D01*
X112537000Y-99136732D01*
X112607518Y-99491250D01*
X112745844Y-99825199D01*
X112946662Y-100125744D01*
X113202256Y-100381338D01*
X113502801Y-100582156D01*
X113836750Y-100720482D01*
X114191268Y-100791000D01*
X114552732Y-100791000D01*
X114907250Y-100720482D01*
X115241199Y-100582156D01*
X115541744Y-100381338D01*
X115797338Y-100125744D01*
X115998156Y-99825199D01*
X116136482Y-99491250D01*
X116207000Y-99136732D01*
X116207000Y-98775268D01*
X116136482Y-98420750D01*
X115998156Y-98086801D01*
X115797338Y-97786256D01*
X115541744Y-97530662D01*
X115332000Y-97390515D01*
X115332000Y-94021485D01*
X115541744Y-93881338D01*
X115797338Y-93625744D01*
X115998156Y-93325199D01*
X116136482Y-92991250D01*
X116207000Y-92636732D01*
X116207000Y-92275268D01*
X116136482Y-91920750D01*
X115998156Y-91586801D01*
X115797338Y-91286256D01*
X115541744Y-91030662D01*
X115357000Y-90907220D01*
X115357000Y-90252000D01*
X115978001Y-89631000D01*
X121766000Y-89631000D01*
X122967000Y-90832001D01*
X122967001Y-93908990D01*
X122885854Y-93952364D01*
X122758709Y-94056709D01*
X122654364Y-94183854D01*
X122576828Y-94328913D01*
X122529082Y-94486311D01*
X122512960Y-94650000D01*
X122512960Y-95850000D01*
X122529082Y-96013689D01*
X122576828Y-96171087D01*
X122611609Y-96236157D01*
X122572147Y-96331426D01*
X122517000Y-96608665D01*
X122517000Y-96792000D01*
X121338000Y-97971000D01*
X120420780Y-97971000D01*
X120297338Y-97786256D01*
X120041744Y-97530662D01*
X119832000Y-97390515D01*
X119832000Y-94021485D01*
X120041744Y-93881338D01*
X120297338Y-93625744D01*
X120498156Y-93325199D01*
X120636482Y-92991250D01*
X120707000Y-92636732D01*
X120707000Y-92275268D01*
X120636482Y-91920750D01*
X120498156Y-91586801D01*
X120297338Y-91286256D01*
X120041744Y-91030662D01*
X119741199Y-90829844D01*
X119407250Y-90691518D01*
X119052732Y-90621000D01*
X118691268Y-90621000D01*
X118336750Y-90691518D01*
X118002801Y-90829844D01*
X117702256Y-91030662D01*
X117446662Y-91286256D01*
X117245844Y-91586801D01*
X117107518Y-91920750D01*
X117037000Y-92275268D01*
X117037000Y-92636732D01*
X117107518Y-92991250D01*
X117245844Y-93325199D01*
X117446662Y-93625744D01*
X117702256Y-93881338D01*
X117912000Y-94021485D01*
X117912001Y-97390515D01*
X117702256Y-97530662D01*
X117446662Y-97786256D01*
X117245844Y-98086801D01*
X117107518Y-98420750D01*
X117037000Y-98775268D01*
X117037000Y-99136732D01*
X117080347Y-99354653D01*
X115923711Y-100511289D01*
X115886131Y-100542130D01*
X115763041Y-100692116D01*
X115747879Y-100720482D01*
X115671576Y-100863234D01*
X115615253Y-101048907D01*
X115596235Y-101242000D01*
X115601001Y-101290390D01*
X115601001Y-102323758D01*
X115543748Y-102362013D01*
X115316013Y-102589748D01*
X115137082Y-102857537D01*
X115013832Y-103155088D01*
X114951000Y-103470967D01*
X114951000Y-103793033D01*
X115013832Y-104108912D01*
X115137082Y-104406463D01*
X115316013Y-104674252D01*
X115543748Y-104901987D01*
X115811537Y-105080918D01*
X116109088Y-105204168D01*
X116424967Y-105267000D01*
X116747033Y-105267000D01*
X117062912Y-105204168D01*
X117360463Y-105080918D01*
X117628252Y-104901987D01*
X117855987Y-104674252D01*
X118034918Y-104406463D01*
X118158168Y-104108912D01*
X118221000Y-103793033D01*
X118221000Y-103470967D01*
X118158168Y-103155088D01*
X118034918Y-102857537D01*
X117855987Y-102589748D01*
X117628252Y-102362013D01*
X117571000Y-102323758D01*
X117571000Y-101650000D01*
X118473347Y-100747653D01*
X118691268Y-100791000D01*
X119052732Y-100791000D01*
X119407250Y-100720482D01*
X119741199Y-100582156D01*
X120041744Y-100381338D01*
X120297338Y-100125744D01*
X120420780Y-99941000D01*
X121697620Y-99941000D01*
X121746000Y-99945765D01*
X121794380Y-99941000D01*
X121939094Y-99926747D01*
X122124767Y-99870424D01*
X122295884Y-99778960D01*
X122445870Y-99655870D01*
X122476716Y-99618284D01*
X123910000Y-98185000D01*
X124093335Y-98185000D01*
X124370574Y-98129853D01*
X124631727Y-98021680D01*
X124866759Y-97864637D01*
X125066637Y-97664759D01*
X125223680Y-97429727D01*
X125331853Y-97168574D01*
X125387000Y-96891335D01*
X125387000Y-96608665D01*
X125331853Y-96331426D01*
X125292391Y-96236157D01*
X125327172Y-96171087D01*
X125374918Y-96013689D01*
X125391040Y-95850000D01*
X125391040Y-94650000D01*
X125374918Y-94486311D01*
X125327172Y-94328913D01*
X125249636Y-94183854D01*
X125145291Y-94056709D01*
X125018146Y-93952364D01*
X124937000Y-93908990D01*
X124937000Y-90770000D01*
X126015000Y-91848001D01*
X126015001Y-106779999D01*
X125322000Y-107473000D01*
X123605040Y-107473000D01*
X123605040Y-107358000D01*
X123588918Y-107194311D01*
X123541172Y-107036913D01*
X123463636Y-106891854D01*
X123359291Y-106764709D01*
X123232146Y-106660364D01*
X123087087Y-106582828D01*
X122929689Y-106535082D01*
X122766000Y-106518960D01*
X120566000Y-106518960D01*
X120402311Y-106535082D01*
X120244913Y-106582828D01*
X120099854Y-106660364D01*
X119972709Y-106764709D01*
X119868364Y-106891854D01*
X119790828Y-107036913D01*
X119743082Y-107194311D01*
X119726960Y-107358000D01*
X119726960Y-109558000D01*
X119743082Y-109721689D01*
X119790828Y-109879087D01*
X119868364Y-110024146D01*
X119972709Y-110151291D01*
X120099854Y-110255636D01*
X120244913Y-110333172D01*
X120402311Y-110380918D01*
X120566000Y-110397040D01*
X122766000Y-110397040D01*
X122929689Y-110380918D01*
X123087087Y-110333172D01*
X123232146Y-110255636D01*
X123359291Y-110151291D01*
X123463636Y-110024146D01*
X123541172Y-109879087D01*
X123588918Y-109721689D01*
X123605040Y-109558000D01*
X123605040Y-109443000D01*
X125681620Y-109443000D01*
X125730000Y-109447765D01*
X125778380Y-109443000D01*
X125923094Y-109428747D01*
X126108767Y-109372424D01*
X126279884Y-109280960D01*
X126429870Y-109157870D01*
X126460716Y-109120284D01*
X127662284Y-107918716D01*
X127699870Y-107887870D01*
X127822960Y-107737884D01*
X127914424Y-107566767D01*
X127967850Y-107390645D01*
X127970747Y-107381095D01*
X127989765Y-107188001D01*
X127985000Y-107139621D01*
X127985000Y-91488380D01*
X127989765Y-91440000D01*
X127970747Y-91246906D01*
X127914424Y-91061233D01*
X127904678Y-91043000D01*
X127822960Y-90890116D01*
X127699870Y-90740130D01*
X127662290Y-90709289D01*
X125437008Y-88484008D01*
X125437008Y-84812992D01*
X127705628Y-84812992D01*
X127754008Y-84817757D01*
X127802388Y-84812992D01*
X127947102Y-84798739D01*
X128132775Y-84742416D01*
X128303892Y-84650952D01*
X128453878Y-84527862D01*
X128484724Y-84490276D01*
X129440284Y-83534716D01*
X129477870Y-83503870D01*
X129600960Y-83353884D01*
X129691449Y-83184590D01*
X130357538Y-83184590D01*
X130430230Y-83467364D01*
X130713273Y-83610422D01*
X131018787Y-83695513D01*
X131335031Y-83719365D01*
X131649852Y-83681064D01*
X131951151Y-83582080D01*
X132165770Y-83467364D01*
X132238462Y-83184590D01*
X131298000Y-82244128D01*
X130357538Y-83184590D01*
X129691449Y-83184590D01*
X129692424Y-83182767D01*
X129740654Y-83023773D01*
X129748747Y-82997095D01*
X129767765Y-82804001D01*
X129763000Y-82755621D01*
X129763000Y-82587979D01*
X129817920Y-82755151D01*
X129932636Y-82969770D01*
X130215410Y-83042462D01*
X131155872Y-82102000D01*
X131440128Y-82102000D01*
X132380590Y-83042462D01*
X132663364Y-82969770D01*
X132806422Y-82686727D01*
X132891513Y-82381213D01*
X132915365Y-82064969D01*
X132877064Y-81750148D01*
X132778080Y-81448849D01*
X132663364Y-81234230D01*
X132380590Y-81161538D01*
X131440128Y-82102000D01*
X131155872Y-82102000D01*
X131141730Y-82087858D01*
X131283858Y-81945730D01*
X131298000Y-81959872D01*
X132238462Y-81019410D01*
X132165770Y-80736636D01*
X131882727Y-80593578D01*
X131649649Y-80528662D01*
X131724424Y-80388767D01*
X131780747Y-80203094D01*
X131795000Y-80058380D01*
X131795000Y-80058379D01*
X131799765Y-80010000D01*
X131795000Y-79961620D01*
X131795000Y-77264377D01*
X131799765Y-77215999D01*
X131786470Y-77081015D01*
X131780747Y-77022906D01*
X131724424Y-76837233D01*
X131632960Y-76666116D01*
X131509870Y-76516130D01*
X131472284Y-76485284D01*
X130016716Y-75029716D01*
X129985870Y-74992130D01*
X129835884Y-74869040D01*
X129664767Y-74777576D01*
X129479094Y-74721253D01*
X129334380Y-74707000D01*
X129286000Y-74702235D01*
X129237620Y-74707000D01*
X125122001Y-74707000D01*
X124663414Y-74248413D01*
X124676367Y-74255337D01*
X124814915Y-74297365D01*
X124959000Y-74311556D01*
X125349750Y-74308000D01*
X125533500Y-74124250D01*
X125533500Y-72998500D01*
X125734500Y-72998500D01*
X125734500Y-74124250D01*
X125918250Y-74308000D01*
X126309000Y-74311556D01*
X126453085Y-74297365D01*
X126591633Y-74255337D01*
X126719320Y-74187087D01*
X126831238Y-74095238D01*
X126923087Y-73983320D01*
X126991337Y-73855633D01*
X127033365Y-73717085D01*
X127047556Y-73573000D01*
X127044000Y-73182250D01*
X126860250Y-72998500D01*
X125734500Y-72998500D01*
X125533500Y-72998500D01*
X125513500Y-72998500D01*
X125513500Y-72797500D01*
X125533500Y-72797500D01*
X125533500Y-71671750D01*
X125734500Y-71671750D01*
X125734500Y-72797500D01*
X126860250Y-72797500D01*
X127044000Y-72613750D01*
X127047556Y-72223000D01*
X127033365Y-72078915D01*
X126991337Y-71940367D01*
X126923087Y-71812680D01*
X126831238Y-71700762D01*
X126719320Y-71608913D01*
X126591633Y-71540663D01*
X126453085Y-71498635D01*
X126309000Y-71484444D01*
X125918250Y-71488000D01*
X125734500Y-71671750D01*
X125533500Y-71671750D01*
X125349750Y-71488000D01*
X124959000Y-71484444D01*
X124814915Y-71498635D01*
X124676367Y-71540663D01*
X124596751Y-71583219D01*
X124598644Y-71563999D01*
X124594000Y-71516847D01*
X124594000Y-71516838D01*
X124580110Y-71375807D01*
X124525216Y-71194846D01*
X124499572Y-71146870D01*
X124436073Y-71028071D01*
X124346171Y-70918526D01*
X124316107Y-70881893D01*
X124279474Y-70851829D01*
X123648175Y-70220531D01*
X123618107Y-70183893D01*
X123471928Y-70063927D01*
X123305154Y-69974784D01*
X123124193Y-69919890D01*
X122983162Y-69906000D01*
X122983152Y-69906000D01*
X122936000Y-69901356D01*
X122888848Y-69906000D01*
X98345160Y-69906000D01*
X98298000Y-69901355D01*
X98250840Y-69906000D01*
X98250838Y-69906000D01*
X98109807Y-69919890D01*
X97928846Y-69974784D01*
X97762071Y-70063927D01*
X97652526Y-70153829D01*
X97615893Y-70183893D01*
X97585829Y-70220526D01*
X96988526Y-70817830D01*
X96951894Y-70847893D01*
X96921830Y-70884526D01*
X96921829Y-70884527D01*
X96831927Y-70994072D01*
X96742784Y-71160847D01*
X96704543Y-71286914D01*
X96687891Y-71341807D01*
X96683094Y-71390514D01*
X96669356Y-71530000D01*
X96674001Y-71577162D01*
X96674001Y-71723390D01*
X96671431Y-71725107D01*
X96634000Y-71762538D01*
X96596569Y-71725107D01*
X96349253Y-71559856D01*
X96074451Y-71446029D01*
X95782722Y-71388000D01*
X95485278Y-71388000D01*
X95193549Y-71446029D01*
X94918747Y-71559856D01*
X94671431Y-71725107D01*
X94461107Y-71935431D01*
X94459390Y-71938000D01*
X80217276Y-71938000D01*
X80188918Y-71869537D01*
X80009987Y-71601748D01*
X79782252Y-71374013D01*
X79514463Y-71195082D01*
X79216912Y-71071832D01*
X78901033Y-71009000D01*
X78578967Y-71009000D01*
X78263088Y-71071832D01*
X77965537Y-71195082D01*
X77697748Y-71374013D01*
X77470013Y-71601748D01*
X77291082Y-71869537D01*
X77167832Y-72167088D01*
X77105000Y-72482967D01*
X67425501Y-72482967D01*
X67537126Y-72305126D01*
X67473086Y-72094003D01*
X67338251Y-71824990D01*
X67153525Y-71587451D01*
X66926006Y-71390514D01*
X66664439Y-71241748D01*
X66378875Y-71146870D01*
X66140500Y-71296040D01*
X65939500Y-71296040D01*
X65701125Y-71146870D01*
X65415561Y-71241748D01*
X65153994Y-71390514D01*
X64926475Y-71587451D01*
X64741749Y-71824990D01*
X64606914Y-72094003D01*
X64542874Y-72305126D01*
X62074000Y-72305126D01*
X62074000Y-69694000D01*
X134268000Y-69694000D01*
X134268001Y-137824000D01*
%TA.AperFunction,Conductor*%
D40*
G36*
X134268001Y-137824000D02*
G01*
X62074000Y-137824000D01*
X62074000Y-114149000D01*
X63796000Y-114149000D01*
X63796000Y-125119000D01*
X68016000Y-125119000D01*
X68016000Y-114149000D01*
X63796000Y-114149000D01*
X62074000Y-114149000D01*
X62074000Y-85368035D01*
X62181130Y-85368035D01*
X62181130Y-85827965D01*
X62270858Y-86279056D01*
X62446865Y-86703975D01*
X62702388Y-87086393D01*
X63027607Y-87411612D01*
X63410025Y-87667135D01*
X63531001Y-87717245D01*
X63531000Y-90629620D01*
X63526235Y-90678000D01*
X63536239Y-90779576D01*
X63545253Y-90871093D01*
X63601576Y-91056766D01*
X63693040Y-91227884D01*
X63816130Y-91377870D01*
X63853715Y-91408715D01*
X64801289Y-92356290D01*
X64832130Y-92393870D01*
X64982116Y-92516960D01*
X65153233Y-92608424D01*
X65338906Y-92664747D01*
X65532000Y-92683765D01*
X65580380Y-92679000D01*
X70196960Y-92679000D01*
X70196960Y-92794000D01*
X70213082Y-92957689D01*
X70260828Y-93115087D01*
X70338364Y-93260146D01*
X70442709Y-93387291D01*
X70569854Y-93491636D01*
X70637886Y-93528000D01*
X69897152Y-93528000D01*
X69850000Y-93523356D01*
X69802848Y-93528000D01*
X69802838Y-93528000D01*
X69661807Y-93541890D01*
X69480846Y-93596784D01*
X69314071Y-93685927D01*
X69204526Y-93775829D01*
X69167893Y-93805893D01*
X69137829Y-93842526D01*
X68188531Y-94791825D01*
X68151893Y-94821893D01*
X68031927Y-94968072D01*
X67942784Y-95134847D01*
X67887890Y-95315808D01*
X67874000Y-95456839D01*
X67874000Y-95456848D01*
X67869356Y-95504000D01*
X67874000Y-95551152D01*
X67874001Y-98651794D01*
X67820311Y-98657082D01*
X67662913Y-98704828D01*
X67517854Y-98782364D01*
X67390709Y-98886709D01*
X67286364Y-99013854D01*
X67208828Y-99158913D01*
X67161082Y-99316311D01*
X67144960Y-99480000D01*
X67144960Y-101180000D01*
X67161082Y-101343689D01*
X67208828Y-101501087D01*
X67286364Y-101646146D01*
X67390709Y-101773291D01*
X67487299Y-101852560D01*
X67448919Y-101910000D01*
X67103160Y-101910000D01*
X67056000Y-101905355D01*
X67008840Y-101910000D01*
X67008838Y-101910000D01*
X66867807Y-101923890D01*
X66686846Y-101978784D01*
X66520071Y-102067927D01*
X66412238Y-102156424D01*
X66373893Y-102187893D01*
X66343829Y-102224526D01*
X65648526Y-102919830D01*
X65611894Y-102949893D01*
X65581830Y-102986526D01*
X65581829Y-102986527D01*
X65491927Y-103096072D01*
X65402784Y-103262847D01*
X65387617Y-103312847D01*
X65347891Y-103443807D01*
X65340833Y-103515474D01*
X65329356Y-103632000D01*
X65334001Y-103679162D01*
X65334000Y-106378848D01*
X65329356Y-106426000D01*
X65334000Y-106473152D01*
X65334000Y-106473161D01*
X65347890Y-106614192D01*
X65402784Y-106795153D01*
X65491927Y-106961928D01*
X65611893Y-107108107D01*
X65648531Y-107138175D01*
X66597829Y-108087474D01*
X66627893Y-108124107D01*
X66664526Y-108154171D01*
X66774071Y-108244073D01*
X66813049Y-108264907D01*
X66940846Y-108333216D01*
X67121807Y-108388110D01*
X67262838Y-108402000D01*
X67262848Y-108402000D01*
X67310000Y-108406644D01*
X67357152Y-108402000D01*
X73104848Y-108402000D01*
X73152000Y-108406644D01*
X73199152Y-108402000D01*
X73199162Y-108402000D01*
X73340193Y-108388110D01*
X73521154Y-108333216D01*
X73687928Y-108244073D01*
X73834107Y-108124107D01*
X73864175Y-108087469D01*
X74732000Y-107219645D01*
X74732001Y-110950838D01*
X74727356Y-110998000D01*
X74745891Y-111186192D01*
X74800784Y-111367153D01*
X74889927Y-111533928D01*
X74950369Y-111607576D01*
X75009894Y-111680107D01*
X75046526Y-111710170D01*
X75889356Y-112553000D01*
X73454377Y-112553000D01*
X73405999Y-112548235D01*
X73357621Y-112553000D01*
X73357620Y-112553000D01*
X73212906Y-112567253D01*
X73027233Y-112623576D01*
X72856116Y-112715040D01*
X72706130Y-112838130D01*
X72675284Y-112875716D01*
X70203716Y-115347284D01*
X70166130Y-115378130D01*
X70043040Y-115528116D01*
X69955384Y-115692110D01*
X69951576Y-115699234D01*
X69895253Y-115884907D01*
X69876235Y-116078000D01*
X69881000Y-116126380D01*
X69881001Y-133047610D01*
X69876235Y-133096000D01*
X69895253Y-133289093D01*
X69951576Y-133474766D01*
X69951577Y-133474767D01*
X70043041Y-133645884D01*
X70166131Y-133795870D01*
X70203711Y-133826711D01*
X72929289Y-136552290D01*
X72960130Y-136589870D01*
X72997709Y-136620710D01*
X73110116Y-136712960D01*
X73281233Y-136804424D01*
X73466906Y-136860747D01*
X73660000Y-136879765D01*
X73708380Y-136875000D01*
X126951620Y-136875000D01*
X127000000Y-136879765D01*
X127048380Y-136875000D01*
X127193094Y-136860747D01*
X127378767Y-136804424D01*
X127549884Y-136712960D01*
X127699870Y-136589870D01*
X127730716Y-136552284D01*
X132234284Y-132048716D01*
X132271870Y-132017870D01*
X132394960Y-131867884D01*
X132486424Y-131696767D01*
X132542747Y-131511094D01*
X132557000Y-131366380D01*
X132557000Y-131366379D01*
X132561765Y-131318001D01*
X132557000Y-131269621D01*
X132557000Y-124000379D01*
X132561765Y-123951999D01*
X132542747Y-123758905D01*
X132517570Y-123675909D01*
X132486424Y-123573233D01*
X132394960Y-123402116D01*
X132271870Y-123252130D01*
X132234284Y-123221284D01*
X131032716Y-122019716D01*
X131001870Y-121982130D01*
X130975040Y-121960111D01*
X130975040Y-121832000D01*
X130958918Y-121668311D01*
X130911172Y-121510913D01*
X130833636Y-121365854D01*
X130729291Y-121238709D01*
X130602146Y-121134364D01*
X130457087Y-121056828D01*
X130299689Y-121009082D01*
X130136000Y-120992960D01*
X128436000Y-120992960D01*
X128272311Y-121009082D01*
X128114913Y-121056828D01*
X127969854Y-121134364D01*
X127842709Y-121238709D01*
X127738364Y-121365854D01*
X127660828Y-121510913D01*
X127613082Y-121668311D01*
X127596960Y-121832000D01*
X127596960Y-123532000D01*
X127613082Y-123695689D01*
X127660828Y-123853087D01*
X127738364Y-123998146D01*
X127842709Y-124125291D01*
X127939299Y-124204560D01*
X127792772Y-124423853D01*
X127665754Y-124730504D01*
X127601000Y-125056042D01*
X127601000Y-125387958D01*
X127665754Y-125713496D01*
X127792772Y-126020147D01*
X127977175Y-126296125D01*
X128211875Y-126530825D01*
X128326001Y-126607082D01*
X128326000Y-130158355D01*
X125586356Y-132898000D01*
X91922522Y-132898000D01*
X91887094Y-132887253D01*
X91742380Y-132873000D01*
X74576001Y-132873000D01*
X73121000Y-131418000D01*
X73121000Y-129513162D01*
X73534966Y-129513162D01*
X73598617Y-129788270D01*
X73868888Y-129923843D01*
X74160416Y-130004084D01*
X74461996Y-130025909D01*
X74762039Y-129988479D01*
X75049015Y-129893232D01*
X75245383Y-129788270D01*
X75309034Y-129513162D01*
X75216746Y-129420874D01*
X89740874Y-129420874D01*
X89781385Y-129576569D01*
X89905859Y-129851238D01*
X90081527Y-130096345D01*
X90301637Y-130302471D01*
X90557731Y-130461695D01*
X90839967Y-130567899D01*
X91137500Y-130617000D01*
X91537500Y-130617000D01*
X91537500Y-129182500D01*
X91738500Y-129182500D01*
X91738500Y-130617000D01*
X92138500Y-130617000D01*
X92436033Y-130567899D01*
X92718269Y-130461695D01*
X92974363Y-130302471D01*
X93194473Y-130096345D01*
X93370141Y-129851238D01*
X93494615Y-129576569D01*
X93535126Y-129420874D01*
X93385507Y-129182500D01*
X91738500Y-129182500D01*
X91537500Y-129182500D01*
X89890493Y-129182500D01*
X89740874Y-129420874D01*
X75216746Y-129420874D01*
X74422000Y-128626128D01*
X73534966Y-129513162D01*
X73121000Y-129513162D01*
X73121000Y-129308140D01*
X73392838Y-129371034D01*
X74279872Y-128484000D01*
X74564128Y-128484000D01*
X75451162Y-129371034D01*
X75726270Y-129307383D01*
X75861843Y-129037112D01*
X75942084Y-128745584D01*
X75963909Y-128444004D01*
X75926479Y-128143961D01*
X75831232Y-127856985D01*
X75726270Y-127660617D01*
X75451162Y-127596966D01*
X74564128Y-128484000D01*
X74279872Y-128484000D01*
X73392838Y-127596966D01*
X73121000Y-127659860D01*
X73121000Y-126979838D01*
X73152013Y-127026252D01*
X73379748Y-127253987D01*
X73554431Y-127370707D01*
X73534966Y-127454838D01*
X74422000Y-128341872D01*
X75309034Y-127454838D01*
X75289569Y-127370707D01*
X75464252Y-127253987D01*
X75691987Y-127026252D01*
X75746946Y-126944000D01*
X80393846Y-126944000D01*
X80393911Y-126944327D01*
X80513391Y-127232779D01*
X80686850Y-127492379D01*
X80907621Y-127713150D01*
X81167221Y-127886609D01*
X81455673Y-128006089D01*
X81761891Y-128067000D01*
X82074109Y-128067000D01*
X82380327Y-128006089D01*
X82668779Y-127886609D01*
X82928379Y-127713150D01*
X83139529Y-127502000D01*
X89910744Y-127502000D01*
X90076286Y-127703714D01*
X90286200Y-127875985D01*
X90081527Y-128067655D01*
X89905859Y-128312762D01*
X89781385Y-128587431D01*
X89740874Y-128743126D01*
X89890493Y-128981500D01*
X91537500Y-128981500D01*
X91537500Y-128961500D01*
X91738500Y-128961500D01*
X91738500Y-128981500D01*
X93385507Y-128981500D01*
X93535126Y-128743126D01*
X93494615Y-128587431D01*
X93370141Y-128312762D01*
X93194473Y-128067655D01*
X92989800Y-127875985D01*
X93199714Y-127703714D01*
X93404031Y-127454752D01*
X93555852Y-127170715D01*
X93649343Y-126862516D01*
X93680911Y-126542000D01*
X93649343Y-126221484D01*
X93555852Y-125913285D01*
X93404031Y-125629248D01*
X93199714Y-125380286D01*
X93067767Y-125272000D01*
X93199714Y-125163714D01*
X93404031Y-124914752D01*
X93555852Y-124630715D01*
X93649343Y-124322516D01*
X93680911Y-124002000D01*
X93649343Y-123681484D01*
X93555852Y-123373285D01*
X93404031Y-123089248D01*
X93199714Y-122840286D01*
X93067767Y-122732000D01*
X93199714Y-122623714D01*
X93404031Y-122374752D01*
X93555852Y-122090715D01*
X93649343Y-121782516D01*
X93680911Y-121462000D01*
X93649343Y-121141484D01*
X93555852Y-120833285D01*
X93404031Y-120549248D01*
X93199714Y-120300286D01*
X93067767Y-120192000D01*
X93199714Y-120083714D01*
X93404031Y-119834752D01*
X93555852Y-119550715D01*
X93649343Y-119242516D01*
X93680911Y-118922000D01*
X93649343Y-118601484D01*
X93555852Y-118293285D01*
X93404031Y-118009248D01*
X93199714Y-117760286D01*
X93067767Y-117652000D01*
X93199714Y-117543714D01*
X93404031Y-117294752D01*
X93555852Y-117010715D01*
X93649343Y-116702516D01*
X93680911Y-116382000D01*
X93649343Y-116061484D01*
X93555852Y-115753285D01*
X93404031Y-115469248D01*
X93199714Y-115220286D01*
X93067767Y-115112000D01*
X93199714Y-115003714D01*
X93404031Y-114754752D01*
X93555852Y-114470715D01*
X93649343Y-114162516D01*
X93680911Y-113842000D01*
X93649343Y-113521484D01*
X93555852Y-113213285D01*
X93404031Y-112929248D01*
X93199714Y-112680286D01*
X93067767Y-112572000D01*
X93199714Y-112463714D01*
X93404031Y-112214752D01*
X93555852Y-111930715D01*
X93649343Y-111622516D01*
X93680911Y-111302000D01*
X93649343Y-110981484D01*
X93555852Y-110673285D01*
X93404031Y-110389248D01*
X93199714Y-110140286D01*
X93067767Y-110032000D01*
X93199714Y-109923714D01*
X93404031Y-109674752D01*
X93555852Y-109390715D01*
X93649343Y-109082516D01*
X93680911Y-108762000D01*
X93649343Y-108441484D01*
X93555852Y-108133285D01*
X93404031Y-107849248D01*
X93199714Y-107600286D01*
X93067767Y-107492000D01*
X93199714Y-107383714D01*
X93404031Y-107134752D01*
X93555852Y-106850715D01*
X93649343Y-106542516D01*
X93680911Y-106222000D01*
X93649343Y-105901484D01*
X93555852Y-105593285D01*
X93404031Y-105309248D01*
X93199714Y-105060286D01*
X93067767Y-104952000D01*
X93199714Y-104843714D01*
X93404031Y-104594752D01*
X93555852Y-104310715D01*
X93649343Y-104002516D01*
X93680911Y-103682000D01*
X93649343Y-103361484D01*
X93555852Y-103053285D01*
X93404031Y-102769248D01*
X93199714Y-102520286D01*
X93067767Y-102412000D01*
X93199714Y-102303714D01*
X93404031Y-102054752D01*
X93555852Y-101770715D01*
X93649343Y-101462516D01*
X93680911Y-101142000D01*
X93649343Y-100821484D01*
X93555852Y-100513285D01*
X93404031Y-100229248D01*
X93199714Y-99980286D01*
X93067767Y-99872000D01*
X93199714Y-99763714D01*
X93404031Y-99514752D01*
X93555852Y-99230715D01*
X93649343Y-98922516D01*
X93680911Y-98602000D01*
X93649343Y-98281484D01*
X93555852Y-97973285D01*
X93404031Y-97689248D01*
X93199714Y-97440286D01*
X93067767Y-97332000D01*
X93199714Y-97223714D01*
X93404031Y-96974752D01*
X93555852Y-96690715D01*
X93649343Y-96382516D01*
X93680911Y-96062000D01*
X93649343Y-95741484D01*
X93555852Y-95433285D01*
X93404031Y-95149248D01*
X93199714Y-94900286D01*
X93067767Y-94792000D01*
X93199714Y-94683714D01*
X93404031Y-94434752D01*
X93555852Y-94150715D01*
X93649343Y-93842516D01*
X93680911Y-93522000D01*
X93649343Y-93201484D01*
X93555852Y-92893285D01*
X93404031Y-92609248D01*
X93199714Y-92360286D01*
X93067767Y-92252000D01*
X93199714Y-92143714D01*
X93404031Y-91894752D01*
X93555852Y-91610715D01*
X93649343Y-91302516D01*
X93680911Y-90982000D01*
X93649343Y-90661484D01*
X93555852Y-90353285D01*
X93404031Y-90069248D01*
X93199714Y-89820286D01*
X92959790Y-89623386D01*
X93083275Y-89557382D01*
X93286555Y-89390555D01*
X93453382Y-89187275D01*
X93577347Y-88955354D01*
X93653683Y-88703706D01*
X93679459Y-88442000D01*
X93653683Y-88180294D01*
X93577347Y-87928646D01*
X93453382Y-87696725D01*
X93286555Y-87493445D01*
X93083275Y-87326618D01*
X92851354Y-87202653D01*
X92750304Y-87172000D01*
X92851354Y-87141347D01*
X93083275Y-87017382D01*
X93286555Y-86850555D01*
X93453382Y-86647275D01*
X93577347Y-86415354D01*
X93653683Y-86163706D01*
X93679459Y-85902000D01*
X93653683Y-85640294D01*
X93577347Y-85388646D01*
X93453382Y-85156725D01*
X93286555Y-84953445D01*
X93083275Y-84786618D01*
X92959790Y-84720614D01*
X93199714Y-84523714D01*
X93404031Y-84274752D01*
X93555852Y-83990715D01*
X93649343Y-83682516D01*
X93680911Y-83362000D01*
X93649343Y-83041484D01*
X93555852Y-82733285D01*
X93404031Y-82449248D01*
X93299639Y-82322045D01*
X93304146Y-82319636D01*
X93431291Y-82215291D01*
X93535636Y-82088146D01*
X93613172Y-81943087D01*
X93660918Y-81785689D01*
X93677040Y-81622000D01*
X93677040Y-80022000D01*
X93660918Y-79858311D01*
X93613172Y-79700913D01*
X93535636Y-79555854D01*
X93431291Y-79428709D01*
X93304146Y-79324364D01*
X93159087Y-79246828D01*
X93001689Y-79199082D01*
X92838000Y-79182960D01*
X90438000Y-79182960D01*
X90274311Y-79199082D01*
X90116913Y-79246828D01*
X89971854Y-79324364D01*
X89844709Y-79428709D01*
X89740364Y-79555854D01*
X89662828Y-79700913D01*
X89615082Y-79858311D01*
X89598960Y-80022000D01*
X89598960Y-81622000D01*
X89615082Y-81785689D01*
X89662828Y-81943087D01*
X89740364Y-82088146D01*
X89844709Y-82215291D01*
X89971854Y-82319636D01*
X89976361Y-82322045D01*
X89871969Y-82449248D01*
X89720148Y-82733285D01*
X89626657Y-83041484D01*
X89595089Y-83362000D01*
X89626657Y-83682516D01*
X89720148Y-83990715D01*
X89871969Y-84274752D01*
X90076286Y-84523714D01*
X90316210Y-84720614D01*
X90192725Y-84786618D01*
X89989445Y-84953445D01*
X89822618Y-85156725D01*
X89698653Y-85388646D01*
X89622317Y-85640294D01*
X89596541Y-85902000D01*
X89622317Y-86163706D01*
X89698653Y-86415354D01*
X89822618Y-86647275D01*
X89989445Y-86850555D01*
X90192725Y-87017382D01*
X90424646Y-87141347D01*
X90525696Y-87172000D01*
X90424646Y-87202653D01*
X90192725Y-87326618D01*
X89989445Y-87493445D01*
X89822618Y-87696725D01*
X89698653Y-87928646D01*
X89622317Y-88180294D01*
X89596541Y-88442000D01*
X89622317Y-88703706D01*
X89698653Y-88955354D01*
X89822618Y-89187275D01*
X89989445Y-89390555D01*
X90192725Y-89557382D01*
X90316210Y-89623386D01*
X90076286Y-89820286D01*
X89871969Y-90069248D01*
X89720148Y-90353285D01*
X89626657Y-90661484D01*
X89595089Y-90982000D01*
X89626657Y-91302516D01*
X89720148Y-91610715D01*
X89871969Y-91894752D01*
X90076286Y-92143714D01*
X90208233Y-92252000D01*
X90076286Y-92360286D01*
X89910744Y-92562000D01*
X81531151Y-92562000D01*
X81492470Y-92558190D01*
X81616639Y-92258419D01*
X81691000Y-91884581D01*
X81691000Y-91503419D01*
X81632696Y-91210305D01*
X82196001Y-90647000D01*
X85032761Y-90647000D01*
X85063748Y-90677987D01*
X85331537Y-90856918D01*
X85629088Y-90980168D01*
X85944967Y-91043000D01*
X86267033Y-91043000D01*
X86582912Y-90980168D01*
X86880463Y-90856918D01*
X87148252Y-90677987D01*
X87375987Y-90450252D01*
X87554918Y-90182463D01*
X87678168Y-89884912D01*
X87741000Y-89569033D01*
X87741000Y-89246967D01*
X87721701Y-89149944D01*
X87767474Y-89104171D01*
X87804107Y-89074107D01*
X87865163Y-88999710D01*
X87924073Y-88927929D01*
X88013216Y-88761154D01*
X88029300Y-88708131D01*
X88068110Y-88580193D01*
X88082000Y-88439162D01*
X88082000Y-88439152D01*
X88086644Y-88392000D01*
X88082000Y-88344848D01*
X88082000Y-75739151D01*
X88086644Y-75691999D01*
X88082000Y-75644847D01*
X88082000Y-75644838D01*
X88068110Y-75503807D01*
X88013216Y-75322846D01*
X87924073Y-75156072D01*
X87804107Y-75009893D01*
X87767469Y-74979825D01*
X87326175Y-74538531D01*
X87296107Y-74501893D01*
X87149928Y-74381927D01*
X86983154Y-74292784D01*
X86802193Y-74237890D01*
X86661162Y-74224000D01*
X86661152Y-74224000D01*
X86614000Y-74219356D01*
X86566848Y-74224000D01*
X82851151Y-74224000D01*
X82803999Y-74219356D01*
X82756847Y-74224000D01*
X82756838Y-74224000D01*
X82615807Y-74237890D01*
X82480286Y-74279000D01*
X82434846Y-74292784D01*
X82268071Y-74381927D01*
X82180486Y-74453807D01*
X82121893Y-74501893D01*
X82091829Y-74538526D01*
X81792056Y-74838299D01*
X81695033Y-74819000D01*
X81372967Y-74819000D01*
X81057088Y-74881832D01*
X80759537Y-75005082D01*
X80491748Y-75184013D01*
X80264013Y-75411748D01*
X80209054Y-75494000D01*
X79803151Y-75494000D01*
X79755999Y-75489356D01*
X79708847Y-75494000D01*
X79708838Y-75494000D01*
X79567807Y-75507890D01*
X79386846Y-75562784D01*
X79220072Y-75651927D01*
X79073893Y-75771893D01*
X79043825Y-75808531D01*
X78729527Y-76122829D01*
X78692894Y-76152893D01*
X78662830Y-76189526D01*
X78662829Y-76189527D01*
X78572927Y-76299072D01*
X78483784Y-76465847D01*
X78468886Y-76514960D01*
X78430291Y-76642194D01*
X78428891Y-76646808D01*
X78410356Y-76835000D01*
X78415001Y-76882161D01*
X78415000Y-77453355D01*
X77326356Y-78542000D01*
X76006301Y-78542000D01*
X75990918Y-78385811D01*
X75943172Y-78228413D01*
X75865636Y-78083354D01*
X75761291Y-77956209D01*
X75634146Y-77851864D01*
X75489087Y-77774328D01*
X75331689Y-77726582D01*
X75168000Y-77710460D01*
X73168000Y-77710460D01*
X73004311Y-77726582D01*
X72846913Y-77774328D01*
X72701854Y-77851864D01*
X72574709Y-77956209D01*
X72470364Y-78083354D01*
X72392828Y-78228413D01*
X72345082Y-78385811D01*
X72328960Y-78549500D01*
X72328960Y-80454500D01*
X72345082Y-80618189D01*
X72392828Y-80775587D01*
X72470364Y-80920646D01*
X72574709Y-81047791D01*
X72696218Y-81147511D01*
X72567252Y-81384303D01*
X72472456Y-81679223D01*
X72620112Y-81941500D01*
X74067500Y-81941500D01*
X74067500Y-81921500D01*
X74268500Y-81921500D01*
X74268500Y-81941500D01*
X75715888Y-81941500D01*
X75863544Y-81679223D01*
X75768748Y-81384303D01*
X75639782Y-81147511D01*
X75761291Y-81047791D01*
X75865636Y-80920646D01*
X75943172Y-80775587D01*
X75990918Y-80618189D01*
X76006301Y-80462000D01*
X77676848Y-80462000D01*
X77724000Y-80466644D01*
X77771152Y-80462000D01*
X77771162Y-80462000D01*
X77912193Y-80448110D01*
X78093154Y-80393216D01*
X78259928Y-80304073D01*
X78406107Y-80184107D01*
X78436175Y-80147469D01*
X80020474Y-78563171D01*
X80057107Y-78533107D01*
X80177073Y-78386928D01*
X80266216Y-78220154D01*
X80321110Y-78039193D01*
X80335000Y-77898162D01*
X80335000Y-77898160D01*
X80339645Y-77851000D01*
X80335000Y-77803840D01*
X80335000Y-77567239D01*
X80491748Y-77723987D01*
X80759537Y-77902918D01*
X81057088Y-78026168D01*
X81372967Y-78089000D01*
X81695033Y-78089000D01*
X82010912Y-78026168D01*
X82308463Y-77902918D01*
X82576252Y-77723987D01*
X82803987Y-77496252D01*
X82812733Y-77483162D01*
X83146966Y-77483162D01*
X83210617Y-77758270D01*
X83480888Y-77893843D01*
X83772416Y-77974084D01*
X84073996Y-77995909D01*
X84374039Y-77958479D01*
X84661015Y-77863232D01*
X84857383Y-77758270D01*
X84921034Y-77483162D01*
X84034000Y-76596128D01*
X83146966Y-77483162D01*
X82812733Y-77483162D01*
X82920707Y-77321569D01*
X83004838Y-77341034D01*
X83891872Y-76454000D01*
X83877730Y-76439858D01*
X84019858Y-76297730D01*
X84034000Y-76311872D01*
X84048143Y-76297730D01*
X84190271Y-76439858D01*
X84176128Y-76454000D01*
X85063162Y-77341034D01*
X85338270Y-77277383D01*
X85473843Y-77007112D01*
X85554084Y-76715584D01*
X85575909Y-76414004D01*
X85542226Y-76144000D01*
X86162001Y-76144000D01*
X86162000Y-87773000D01*
X85944967Y-87773000D01*
X85629088Y-87835832D01*
X85331537Y-87959082D01*
X85063748Y-88138013D01*
X84836013Y-88365748D01*
X84657082Y-88633537D01*
X84639079Y-88677000D01*
X83941290Y-88677000D01*
X84007444Y-88577993D01*
X84100541Y-88353237D01*
X84148001Y-88114638D01*
X84148001Y-87871364D01*
X84100541Y-87632765D01*
X84007444Y-87408009D01*
X83873001Y-87206801D01*
X83873001Y-86821858D01*
X84026416Y-86864084D01*
X84327996Y-86885909D01*
X84628039Y-86848479D01*
X84915015Y-86753232D01*
X85111383Y-86648270D01*
X85175034Y-86373162D01*
X84288000Y-85486128D01*
X84273858Y-85500271D01*
X84131730Y-85358143D01*
X84145872Y-85344000D01*
X84430128Y-85344000D01*
X85317162Y-86231034D01*
X85592270Y-86167383D01*
X85727843Y-85897112D01*
X85808084Y-85605584D01*
X85829909Y-85304004D01*
X85792479Y-85003961D01*
X85697232Y-84716985D01*
X85592270Y-84520617D01*
X85317162Y-84456966D01*
X84430128Y-85344000D01*
X84145872Y-85344000D01*
X84131730Y-85329858D01*
X84273858Y-85187730D01*
X84288000Y-85201872D01*
X85175034Y-84314838D01*
X85111383Y-84039730D01*
X84841112Y-83904157D01*
X84549584Y-83823916D01*
X84248004Y-83802091D01*
X83947961Y-83839521D01*
X83873001Y-83864400D01*
X83873001Y-83709784D01*
X83877326Y-83650207D01*
X83867174Y-83568678D01*
X83859111Y-83486808D01*
X83855496Y-83474893D01*
X83853960Y-83462553D01*
X83828097Y-83384568D01*
X83804217Y-83305847D01*
X83798348Y-83294867D01*
X83794433Y-83283062D01*
X83753837Y-83211594D01*
X83715074Y-83139073D01*
X83707180Y-83129454D01*
X83701034Y-83118634D01*
X83647255Y-83056435D01*
X83595108Y-82992894D01*
X83585491Y-82985002D01*
X83577351Y-82975587D01*
X83512467Y-82925072D01*
X83448929Y-82872928D01*
X83396239Y-82844765D01*
X83099273Y-82657196D01*
X83174000Y-82664556D01*
X83789750Y-82661000D01*
X83973500Y-82477250D01*
X83973500Y-81126500D01*
X84174500Y-81126500D01*
X84174500Y-82477250D01*
X84358250Y-82661000D01*
X84974000Y-82664556D01*
X85118085Y-82650365D01*
X85256633Y-82608337D01*
X85384320Y-82540087D01*
X85496238Y-82448238D01*
X85588087Y-82336320D01*
X85656337Y-82208633D01*
X85698365Y-82070085D01*
X85712556Y-81926000D01*
X85709000Y-81310250D01*
X85525250Y-81126500D01*
X84174500Y-81126500D01*
X83973500Y-81126500D01*
X83953500Y-81126500D01*
X83953500Y-80925500D01*
X83973500Y-80925500D01*
X83973500Y-79574750D01*
X84174500Y-79574750D01*
X84174500Y-80925500D01*
X85525250Y-80925500D01*
X85709000Y-80741750D01*
X85712556Y-80126000D01*
X85698365Y-79981915D01*
X85656337Y-79843367D01*
X85588087Y-79715680D01*
X85496238Y-79603762D01*
X85384320Y-79511913D01*
X85256633Y-79443663D01*
X85118085Y-79401635D01*
X84974000Y-79387444D01*
X84358250Y-79391000D01*
X84174500Y-79574750D01*
X83973500Y-79574750D01*
X83789750Y-79391000D01*
X83174000Y-79387444D01*
X83029915Y-79401635D01*
X82891367Y-79443663D01*
X82763680Y-79511913D01*
X82651762Y-79603762D01*
X82608069Y-79657002D01*
X82355831Y-79488463D01*
X82040081Y-79357675D01*
X81704883Y-79291000D01*
X81363117Y-79291000D01*
X81027919Y-79357675D01*
X80712169Y-79488463D01*
X80428002Y-79678337D01*
X80186337Y-79920002D01*
X79996463Y-80204169D01*
X79865675Y-80519919D01*
X79799000Y-80855117D01*
X79799000Y-81196883D01*
X79865675Y-81532081D01*
X79996463Y-81847831D01*
X80186337Y-82131998D01*
X80428002Y-82373663D01*
X80549000Y-82454511D01*
X80549000Y-82852379D01*
X80563253Y-82997093D01*
X80619576Y-83182766D01*
X80711040Y-83353884D01*
X80834130Y-83503870D01*
X80984116Y-83626960D01*
X81155233Y-83718424D01*
X81210686Y-83735245D01*
X81285435Y-83782458D01*
X81013537Y-83895082D01*
X80745748Y-84074013D01*
X80518013Y-84301748D01*
X80339082Y-84569537D01*
X80215832Y-84867088D01*
X80153000Y-85182967D01*
X80153000Y-85505033D01*
X80215832Y-85820912D01*
X80241550Y-85883000D01*
X75592001Y-85883000D01*
X75519600Y-85810600D01*
X75708942Y-85579886D01*
X75874924Y-85269356D01*
X75977136Y-84932411D01*
X76011648Y-84582000D01*
X75977136Y-84231589D01*
X75874924Y-83894644D01*
X75708942Y-83584114D01*
X75485568Y-83311932D01*
X75400454Y-83242081D01*
X75610593Y-82990083D01*
X75768748Y-82699697D01*
X75863544Y-82404777D01*
X75715888Y-82142500D01*
X74268500Y-82142500D01*
X74268500Y-82162500D01*
X74067500Y-82162500D01*
X74067500Y-82142500D01*
X72620112Y-82142500D01*
X72472456Y-82404777D01*
X72567252Y-82699697D01*
X72725407Y-82990083D01*
X72935546Y-83242081D01*
X72850432Y-83311932D01*
X72627058Y-83584114D01*
X72461076Y-83894644D01*
X72358864Y-84231589D01*
X72324352Y-84582000D01*
X72358864Y-84932411D01*
X72461076Y-85269356D01*
X72627058Y-85579886D01*
X72850432Y-85852068D01*
X73122614Y-86075442D01*
X73222685Y-86128931D01*
X73253576Y-86230766D01*
X73259273Y-86241424D01*
X73345041Y-86401884D01*
X73468131Y-86551870D01*
X73505711Y-86582711D01*
X74453289Y-87530290D01*
X74484130Y-87567870D01*
X74634116Y-87690960D01*
X74787602Y-87773000D01*
X74805233Y-87782424D01*
X74990906Y-87838747D01*
X75184000Y-87857765D01*
X75232380Y-87853000D01*
X81231620Y-87853000D01*
X81280000Y-87857765D01*
X81328380Y-87853000D01*
X81473094Y-87838747D01*
X81658767Y-87782424D01*
X81700085Y-87760339D01*
X81678001Y-87871364D01*
X81678001Y-88114638D01*
X81725461Y-88353237D01*
X81818558Y-88577993D01*
X81884712Y-88677000D01*
X81836380Y-88677000D01*
X81788000Y-88672235D01*
X81739620Y-88677000D01*
X81594906Y-88691253D01*
X81409233Y-88747576D01*
X81238116Y-88839040D01*
X81088130Y-88962130D01*
X81057289Y-88999710D01*
X80239695Y-89817304D01*
X79946581Y-89759000D01*
X79565419Y-89759000D01*
X79191581Y-89833361D01*
X78839434Y-89979225D01*
X78522509Y-90190987D01*
X78252987Y-90460509D01*
X78041225Y-90777434D01*
X77895361Y-91129581D01*
X77821000Y-91503419D01*
X77821000Y-91884581D01*
X77895361Y-92258419D01*
X78041225Y-92610566D01*
X78252987Y-92927491D01*
X78522509Y-93197013D01*
X78839434Y-93408775D01*
X79127269Y-93528000D01*
X73634114Y-93528000D01*
X73702146Y-93491636D01*
X73829291Y-93387291D01*
X73933636Y-93260146D01*
X74011172Y-93115087D01*
X74058918Y-92957689D01*
X74075040Y-92794000D01*
X74075040Y-90594000D01*
X74058918Y-90430311D01*
X74011172Y-90272913D01*
X73933636Y-90127854D01*
X73829291Y-90000709D01*
X73702146Y-89896364D01*
X73557087Y-89818828D01*
X73399689Y-89771082D01*
X73236000Y-89754960D01*
X71036000Y-89754960D01*
X70872311Y-89771082D01*
X70714913Y-89818828D01*
X70569854Y-89896364D01*
X70442709Y-90000709D01*
X70338364Y-90127854D01*
X70260828Y-90272913D01*
X70213082Y-90430311D01*
X70196960Y-90594000D01*
X70196960Y-90709000D01*
X65940001Y-90709000D01*
X65501000Y-90270000D01*
X65501000Y-87717244D01*
X65621975Y-87667135D01*
X66004393Y-87411612D01*
X66329612Y-87086393D01*
X66585135Y-86703975D01*
X66761142Y-86279056D01*
X66850870Y-85827965D01*
X66850870Y-85368035D01*
X66761142Y-84916944D01*
X66585135Y-84492025D01*
X66329612Y-84109607D01*
X66004393Y-83784388D01*
X65621975Y-83528865D01*
X65197056Y-83352858D01*
X64745965Y-83263130D01*
X64286035Y-83263130D01*
X63834944Y-83352858D01*
X63410025Y-83528865D01*
X63027607Y-83784388D01*
X62702388Y-84109607D01*
X62446865Y-84492025D01*
X62270858Y-84916944D01*
X62181130Y-85368035D01*
X62074000Y-85368035D01*
X62074000Y-82126619D01*
X63130790Y-82126619D01*
X63278649Y-82473329D01*
X63668033Y-82678715D01*
X64090004Y-82804189D01*
X64528345Y-82844930D01*
X64966213Y-82799373D01*
X65386779Y-82669267D01*
X65753351Y-82473329D01*
X65901210Y-82126619D01*
X64516000Y-80741408D01*
X63130790Y-82126619D01*
X62074000Y-82126619D01*
X62074000Y-80611625D01*
X62270350Y-80611625D01*
X62315907Y-81049493D01*
X62446013Y-81470059D01*
X62641951Y-81836631D01*
X62988661Y-81984490D01*
X64373872Y-80599280D01*
X64658128Y-80599280D01*
X66043339Y-81984490D01*
X66390049Y-81836631D01*
X66595435Y-81447247D01*
X66720909Y-81025276D01*
X66761650Y-80586935D01*
X66716093Y-80149067D01*
X66585987Y-79728501D01*
X66390049Y-79361929D01*
X66043339Y-79214070D01*
X64658128Y-80599280D01*
X64373872Y-80599280D01*
X62988661Y-79214070D01*
X62641951Y-79361929D01*
X62436565Y-79751313D01*
X62311091Y-80173284D01*
X62270350Y-80611625D01*
X62074000Y-80611625D01*
X62074000Y-79071941D01*
X63130790Y-79071941D01*
X64516000Y-80457152D01*
X65901210Y-79071941D01*
X65753351Y-78725231D01*
X65363967Y-78519845D01*
X64941996Y-78394371D01*
X64503655Y-78353630D01*
X64065787Y-78399187D01*
X63645221Y-78529293D01*
X63278649Y-78725231D01*
X63130790Y-79071941D01*
X62074000Y-79071941D01*
X62074000Y-72982874D01*
X64542874Y-72982874D01*
X64606914Y-73193997D01*
X64741749Y-73463010D01*
X64926475Y-73700549D01*
X65153994Y-73897486D01*
X65415561Y-74046252D01*
X65701125Y-74141130D01*
X65939500Y-73991960D01*
X65939500Y-72744500D01*
X66140500Y-72744500D01*
X66140500Y-73991960D01*
X66378875Y-74141130D01*
X66664439Y-74046252D01*
X66926006Y-73897486D01*
X67153525Y-73700549D01*
X67338251Y-73463010D01*
X67473086Y-73193997D01*
X67537126Y-72982874D01*
X67387507Y-72744500D01*
X66140500Y-72744500D01*
X65939500Y-72744500D01*
X64692493Y-72744500D01*
X64542874Y-72982874D01*
X62074000Y-72982874D01*
X62074000Y-72305126D01*
X64542874Y-72305126D01*
X64692493Y-72543500D01*
X65939500Y-72543500D01*
X65939500Y-71296040D01*
X66140500Y-71296040D01*
X66140500Y-72543500D01*
X67387507Y-72543500D01*
X67425501Y-72482967D01*
X77105000Y-72482967D01*
X77105000Y-72805033D01*
X77167832Y-73120912D01*
X77291082Y-73418463D01*
X77470013Y-73686252D01*
X77697748Y-73913987D01*
X77965537Y-74092918D01*
X78263088Y-74216168D01*
X78578967Y-74279000D01*
X78901033Y-74279000D01*
X79216912Y-74216168D01*
X79514463Y-74092918D01*
X79782252Y-73913987D01*
X79838239Y-73858000D01*
X94459390Y-73858000D01*
X94461107Y-73860569D01*
X94671431Y-74070893D01*
X94918747Y-74236144D01*
X95193549Y-74349971D01*
X95485278Y-74408000D01*
X95782722Y-74408000D01*
X96074451Y-74349971D01*
X96349253Y-74236144D01*
X96596569Y-74070893D01*
X96634000Y-74033462D01*
X96671431Y-74070893D01*
X96674001Y-74072610D01*
X96674000Y-74732000D01*
X90956200Y-74732000D01*
X90754992Y-74597557D01*
X90530236Y-74504460D01*
X90291637Y-74457000D01*
X90048363Y-74457000D01*
X89809764Y-74504460D01*
X89585008Y-74597557D01*
X89382733Y-74732713D01*
X89210713Y-74904733D01*
X89075557Y-75107008D01*
X88982460Y-75331764D01*
X88935000Y-75570363D01*
X88935000Y-75813637D01*
X88982460Y-76052236D01*
X89075557Y-76276992D01*
X89210713Y-76479267D01*
X89382733Y-76651287D01*
X89585008Y-76786443D01*
X89809764Y-76879540D01*
X90048363Y-76927000D01*
X90291637Y-76927000D01*
X90530236Y-76879540D01*
X90754992Y-76786443D01*
X90956200Y-76652000D01*
X94216965Y-76652000D01*
X94193927Y-76680072D01*
X94104784Y-76846847D01*
X94049890Y-77027808D01*
X94036000Y-77168839D01*
X94036000Y-77168848D01*
X94031356Y-77216000D01*
X94036000Y-77263152D01*
X94036001Y-127460838D01*
X94031356Y-127508000D01*
X94036001Y-127555162D01*
X94049891Y-127696193D01*
X94055035Y-127713150D01*
X94104784Y-127877153D01*
X94193927Y-128043928D01*
X94283829Y-128153473D01*
X94313894Y-128190107D01*
X94350526Y-128220170D01*
X95857829Y-129727474D01*
X95887893Y-129764107D01*
X95924525Y-129794170D01*
X96034071Y-129884073D01*
X96108476Y-129923843D01*
X96200846Y-129973216D01*
X96381807Y-130028110D01*
X96522838Y-130042000D01*
X96522847Y-130042000D01*
X96569999Y-130046644D01*
X96617151Y-130042000D01*
X105150744Y-130042000D01*
X105316286Y-130243714D01*
X105565248Y-130448031D01*
X105849285Y-130599852D01*
X106157484Y-130693343D01*
X106397678Y-130717000D01*
X107358322Y-130717000D01*
X107598516Y-130693343D01*
X107906715Y-130599852D01*
X108190752Y-130448031D01*
X108439714Y-130243714D01*
X108472628Y-130203608D01*
X115406520Y-130203608D01*
X115494268Y-130499163D01*
X115798592Y-130654695D01*
X116127412Y-130747867D01*
X116468091Y-130775100D01*
X116807536Y-130735346D01*
X117132703Y-130630134D01*
X117377732Y-130499163D01*
X117465480Y-130203608D01*
X121906520Y-130203608D01*
X121994268Y-130499163D01*
X122298592Y-130654695D01*
X122627412Y-130747867D01*
X122968091Y-130775100D01*
X123307536Y-130735346D01*
X123632703Y-130630134D01*
X123877732Y-130499163D01*
X123965480Y-130203608D01*
X122936000Y-129174128D01*
X121906520Y-130203608D01*
X117465480Y-130203608D01*
X116436000Y-129174128D01*
X115406520Y-130203608D01*
X108472628Y-130203608D01*
X108644031Y-129994752D01*
X108795852Y-129710715D01*
X108889343Y-129402516D01*
X108920911Y-129082000D01*
X108919148Y-129064091D01*
X114692900Y-129064091D01*
X114732654Y-129403536D01*
X114837866Y-129728703D01*
X114968837Y-129973732D01*
X115264392Y-130061480D01*
X116293872Y-129032000D01*
X116578128Y-129032000D01*
X117607608Y-130061480D01*
X117903163Y-129973732D01*
X118058695Y-129669408D01*
X118151867Y-129340588D01*
X118173969Y-129064091D01*
X121192900Y-129064091D01*
X121232654Y-129403536D01*
X121337866Y-129728703D01*
X121468837Y-129973732D01*
X121764392Y-130061480D01*
X122793872Y-129032000D01*
X123078128Y-129032000D01*
X124107608Y-130061480D01*
X124403163Y-129973732D01*
X124558695Y-129669408D01*
X124651867Y-129340588D01*
X124679100Y-128999909D01*
X124639346Y-128660464D01*
X124534134Y-128335297D01*
X124403163Y-128090268D01*
X124107608Y-128002520D01*
X123078128Y-129032000D01*
X122793872Y-129032000D01*
X121764392Y-128002520D01*
X121468837Y-128090268D01*
X121313305Y-128394592D01*
X121220133Y-128723412D01*
X121192900Y-129064091D01*
X118173969Y-129064091D01*
X118179100Y-128999909D01*
X118139346Y-128660464D01*
X118034134Y-128335297D01*
X117903163Y-128090268D01*
X117607608Y-128002520D01*
X116578128Y-129032000D01*
X116293872Y-129032000D01*
X115264392Y-128002520D01*
X114968837Y-128090268D01*
X114813305Y-128394592D01*
X114720133Y-128723412D01*
X114692900Y-129064091D01*
X108919148Y-129064091D01*
X108889343Y-128761484D01*
X108795852Y-128453285D01*
X108644031Y-128169248D01*
X108439714Y-127920286D01*
X108366733Y-127860392D01*
X115406520Y-127860392D01*
X116436000Y-128889872D01*
X117465480Y-127860392D01*
X121906520Y-127860392D01*
X122936000Y-128889872D01*
X123965480Y-127860392D01*
X123877732Y-127564837D01*
X123573408Y-127409305D01*
X123244588Y-127316133D01*
X122903909Y-127288900D01*
X122564464Y-127328654D01*
X122239297Y-127433866D01*
X121994268Y-127564837D01*
X121906520Y-127860392D01*
X117465480Y-127860392D01*
X117377732Y-127564837D01*
X117073408Y-127409305D01*
X116744588Y-127316133D01*
X116403909Y-127288900D01*
X116064464Y-127328654D01*
X115739297Y-127433866D01*
X115494268Y-127564837D01*
X115406520Y-127860392D01*
X108366733Y-127860392D01*
X108307767Y-127812000D01*
X108439714Y-127703714D01*
X108644031Y-127454752D01*
X108795852Y-127170715D01*
X108889343Y-126862516D01*
X108920911Y-126542000D01*
X108889343Y-126221484D01*
X108795852Y-125913285D01*
X108644031Y-125629248D01*
X108439714Y-125380286D01*
X108199790Y-125183386D01*
X108323275Y-125117382D01*
X108526555Y-124950555D01*
X108693382Y-124747275D01*
X108817347Y-124515354D01*
X108867121Y-124351268D01*
X114601000Y-124351268D01*
X114601000Y-124712732D01*
X114671518Y-125067250D01*
X114809844Y-125401199D01*
X115010662Y-125701744D01*
X115266256Y-125957338D01*
X115566801Y-126158156D01*
X115900750Y-126296482D01*
X116255268Y-126367000D01*
X116616732Y-126367000D01*
X116971250Y-126296482D01*
X117305199Y-126158156D01*
X117605744Y-125957338D01*
X117861338Y-125701744D01*
X118001485Y-125492000D01*
X121370515Y-125492000D01*
X121510662Y-125701744D01*
X121766256Y-125957338D01*
X122066801Y-126158156D01*
X122400750Y-126296482D01*
X122755268Y-126367000D01*
X123116732Y-126367000D01*
X123471250Y-126296482D01*
X123805199Y-126158156D01*
X124105744Y-125957338D01*
X124361338Y-125701744D01*
X124562156Y-125401199D01*
X124700482Y-125067250D01*
X124771000Y-124712732D01*
X124771000Y-124351268D01*
X124700482Y-123996750D01*
X124562156Y-123662801D01*
X124361338Y-123362256D01*
X124105744Y-123106662D01*
X123805199Y-122905844D01*
X123471250Y-122767518D01*
X123116732Y-122697000D01*
X122755268Y-122697000D01*
X122400750Y-122767518D01*
X122066801Y-122905844D01*
X121766256Y-123106662D01*
X121510662Y-123362256D01*
X121370515Y-123572000D01*
X118001485Y-123572000D01*
X117861338Y-123362256D01*
X117605744Y-123106662D01*
X117305199Y-122905844D01*
X116971250Y-122767518D01*
X116616732Y-122697000D01*
X116255268Y-122697000D01*
X115900750Y-122767518D01*
X115566801Y-122905844D01*
X115266256Y-123106662D01*
X115010662Y-123362256D01*
X114809844Y-123662801D01*
X114671518Y-123996750D01*
X114601000Y-124351268D01*
X108867121Y-124351268D01*
X108893683Y-124263706D01*
X108919459Y-124002000D01*
X108893683Y-123740294D01*
X108817347Y-123488646D01*
X108693382Y-123256725D01*
X108526555Y-123053445D01*
X108323275Y-122886618D01*
X108091354Y-122762653D01*
X107990304Y-122732000D01*
X108091354Y-122701347D01*
X108323275Y-122577382D01*
X108526555Y-122410555D01*
X108693382Y-122207275D01*
X108817347Y-121975354D01*
X108893683Y-121723706D01*
X108919459Y-121462000D01*
X108893683Y-121200294D01*
X108817347Y-120948646D01*
X108693382Y-120716725D01*
X108526555Y-120513445D01*
X108323275Y-120346618D01*
X108199790Y-120280614D01*
X108439714Y-120083714D01*
X108644031Y-119834752D01*
X108795852Y-119550715D01*
X108889343Y-119242516D01*
X108920911Y-118922000D01*
X108889343Y-118601484D01*
X108795852Y-118293285D01*
X108644031Y-118009248D01*
X108439714Y-117760286D01*
X108307767Y-117652000D01*
X108439714Y-117543714D01*
X108644031Y-117294752D01*
X108795852Y-117010715D01*
X108889343Y-116702516D01*
X108892459Y-116670875D01*
X115088870Y-116670875D01*
X115183748Y-116956439D01*
X115332514Y-117218006D01*
X115529451Y-117445525D01*
X115766990Y-117630251D01*
X116036003Y-117765086D01*
X116247126Y-117829126D01*
X116485500Y-117679507D01*
X116485500Y-116432500D01*
X116686500Y-116432500D01*
X116686500Y-117679507D01*
X116924874Y-117829126D01*
X117135997Y-117765086D01*
X117405010Y-117630251D01*
X117642549Y-117445525D01*
X117839486Y-117218006D01*
X117988252Y-116956439D01*
X118083130Y-116670875D01*
X117953604Y-116463890D01*
X119872031Y-116463890D01*
X119981785Y-116806461D01*
X120156262Y-117121038D01*
X120388758Y-117395532D01*
X120670338Y-117619394D01*
X120990180Y-117784021D01*
X121280111Y-117871966D01*
X121565500Y-117726189D01*
X121565500Y-116178500D01*
X121766500Y-116178500D01*
X121766500Y-117726189D01*
X122051889Y-117871966D01*
X122341820Y-117784021D01*
X122661662Y-117619394D01*
X122943242Y-117395532D01*
X123175738Y-117121038D01*
X123350215Y-116806461D01*
X123459969Y-116463890D01*
X123314499Y-116178500D01*
X121766500Y-116178500D01*
X121565500Y-116178500D01*
X120017501Y-116178500D01*
X119872031Y-116463890D01*
X117953604Y-116463890D01*
X117933960Y-116432500D01*
X116686500Y-116432500D01*
X116485500Y-116432500D01*
X115238040Y-116432500D01*
X115088870Y-116670875D01*
X108892459Y-116670875D01*
X108920911Y-116382000D01*
X108889343Y-116061484D01*
X108868607Y-115993125D01*
X115088870Y-115993125D01*
X115238040Y-116231500D01*
X116485500Y-116231500D01*
X116485500Y-114984493D01*
X116686500Y-114984493D01*
X116686500Y-116231500D01*
X117933960Y-116231500D01*
X118083130Y-115993125D01*
X117988252Y-115707561D01*
X117979465Y-115692110D01*
X119872031Y-115692110D01*
X120017501Y-115977500D01*
X121565500Y-115977500D01*
X121565500Y-114429811D01*
X121766500Y-114429811D01*
X121766500Y-115977500D01*
X123314499Y-115977500D01*
X123459969Y-115692110D01*
X123350215Y-115349539D01*
X123175738Y-115034962D01*
X122943242Y-114760468D01*
X122661662Y-114536606D01*
X122341820Y-114371979D01*
X122051889Y-114284034D01*
X121766500Y-114429811D01*
X121565500Y-114429811D01*
X121280111Y-114284034D01*
X120990180Y-114371979D01*
X120670338Y-114536606D01*
X120388758Y-114760468D01*
X120156262Y-115034962D01*
X119981785Y-115349539D01*
X119872031Y-115692110D01*
X117979465Y-115692110D01*
X117839486Y-115445994D01*
X117642549Y-115218475D01*
X117405010Y-115033749D01*
X117135997Y-114898914D01*
X116924874Y-114834874D01*
X116686500Y-114984493D01*
X116485500Y-114984493D01*
X116247126Y-114834874D01*
X116036003Y-114898914D01*
X115766990Y-115033749D01*
X115529451Y-115218475D01*
X115332514Y-115445994D01*
X115183748Y-115707561D01*
X115088870Y-115993125D01*
X108868607Y-115993125D01*
X108795852Y-115753285D01*
X108644031Y-115469248D01*
X108439714Y-115220286D01*
X108307767Y-115112000D01*
X108439714Y-115003714D01*
X108644031Y-114754752D01*
X108795852Y-114470715D01*
X108889343Y-114162516D01*
X108920911Y-113842000D01*
X108889343Y-113521484D01*
X108795852Y-113213285D01*
X108644031Y-112929248D01*
X108439714Y-112680286D01*
X108307767Y-112572000D01*
X108439714Y-112463714D01*
X108584739Y-112287000D01*
X109375620Y-112287000D01*
X109424000Y-112291765D01*
X109472380Y-112287000D01*
X109617094Y-112272747D01*
X109802767Y-112216424D01*
X109973884Y-112124960D01*
X110123870Y-112001870D01*
X110154715Y-111964285D01*
X111152290Y-110966711D01*
X111189870Y-110935870D01*
X111312960Y-110785884D01*
X111404424Y-110614767D01*
X111460747Y-110429094D01*
X111475000Y-110284380D01*
X111479765Y-110236000D01*
X111475000Y-110187620D01*
X111475000Y-89816000D01*
X114962290Y-86328711D01*
X114999870Y-86297870D01*
X115122960Y-86147884D01*
X115214424Y-85976767D01*
X115270747Y-85791094D01*
X115285000Y-85646380D01*
X115289765Y-85598000D01*
X115285000Y-85549620D01*
X115285000Y-75486379D01*
X115289765Y-75437999D01*
X115270747Y-75244905D01*
X115250430Y-75177929D01*
X115214424Y-75059233D01*
X115122960Y-74888116D01*
X114999870Y-74738130D01*
X114962284Y-74707284D01*
X114619000Y-74364000D01*
X114619000Y-74048462D01*
X114634000Y-74033462D01*
X114671431Y-74070893D01*
X114918747Y-74236144D01*
X115193549Y-74349971D01*
X115485278Y-74408000D01*
X115782722Y-74408000D01*
X116074451Y-74349971D01*
X116349253Y-74236144D01*
X116596569Y-74070893D01*
X116634000Y-74033462D01*
X116671431Y-74070893D01*
X116918747Y-74236144D01*
X117193549Y-74349971D01*
X117485278Y-74408000D01*
X117782722Y-74408000D01*
X118074451Y-74349971D01*
X118349253Y-74236144D01*
X118596569Y-74070893D01*
X118634000Y-74033462D01*
X118671431Y-74070893D01*
X118918747Y-74236144D01*
X119193549Y-74349971D01*
X119485278Y-74408000D01*
X119782722Y-74408000D01*
X120074451Y-74349971D01*
X120349253Y-74236144D01*
X120596569Y-74070893D01*
X120634000Y-74033462D01*
X120671431Y-74070893D01*
X120674000Y-74072610D01*
X120674001Y-78152838D01*
X120669356Y-78200000D01*
X120674001Y-78247162D01*
X120687767Y-78386928D01*
X120687891Y-78388192D01*
X120742784Y-78569153D01*
X120831927Y-78735928D01*
X120889276Y-78805807D01*
X120951894Y-78882107D01*
X120988526Y-78912170D01*
X122283829Y-80207474D01*
X122313893Y-80244107D01*
X122350526Y-80274171D01*
X122375906Y-80295000D01*
X121196242Y-80295000D01*
X121157987Y-80237748D01*
X120930252Y-80010013D01*
X120662463Y-79831082D01*
X120364912Y-79707832D01*
X120049033Y-79645000D01*
X119726967Y-79645000D01*
X119411088Y-79707832D01*
X119113537Y-79831082D01*
X118845748Y-80010013D01*
X118618013Y-80237748D01*
X118439082Y-80505537D01*
X118315832Y-80803088D01*
X118253000Y-81118967D01*
X118253000Y-81441033D01*
X118315832Y-81756912D01*
X118439082Y-82054463D01*
X118618013Y-82322252D01*
X118845748Y-82549987D01*
X119035836Y-82677000D01*
X118845748Y-82804013D01*
X118618013Y-83031748D01*
X118439082Y-83299537D01*
X118315832Y-83597088D01*
X118253000Y-83912967D01*
X118253000Y-84235033D01*
X118315832Y-84550912D01*
X118439082Y-84848463D01*
X118618013Y-85116252D01*
X118845748Y-85343987D01*
X119113537Y-85522918D01*
X119411088Y-85646168D01*
X119726967Y-85709000D01*
X120049033Y-85709000D01*
X120364912Y-85646168D01*
X120662463Y-85522918D01*
X120930252Y-85343987D01*
X121157987Y-85116252D01*
X121336918Y-84848463D01*
X121460168Y-84550912D01*
X121523000Y-84235033D01*
X121523000Y-83912967D01*
X121460168Y-83597088D01*
X121336918Y-83299537D01*
X121157987Y-83031748D01*
X120930252Y-82804013D01*
X120740164Y-82677000D01*
X120930252Y-82549987D01*
X121157987Y-82322252D01*
X121196242Y-82265000D01*
X123290000Y-82265000D01*
X123467008Y-82442008D01*
X123467009Y-83779602D01*
X123462243Y-83827992D01*
X123467008Y-83876372D01*
X123467009Y-88546009D01*
X122904716Y-87983716D01*
X122873870Y-87946130D01*
X122723884Y-87823040D01*
X122552767Y-87731576D01*
X122367094Y-87675253D01*
X122222380Y-87661000D01*
X122174000Y-87656235D01*
X122125620Y-87661000D01*
X115618380Y-87661000D01*
X115570000Y-87656235D01*
X115521620Y-87661000D01*
X115376906Y-87675253D01*
X115191233Y-87731576D01*
X115020116Y-87823040D01*
X114870130Y-87946130D01*
X114839289Y-87983710D01*
X113709711Y-89113289D01*
X113672131Y-89144130D01*
X113549041Y-89294116D01*
X113514028Y-89359621D01*
X113457576Y-89465234D01*
X113401253Y-89650907D01*
X113382235Y-89844000D01*
X113387001Y-89892390D01*
X113387001Y-90907219D01*
X113202256Y-91030662D01*
X112946662Y-91286256D01*
X112745844Y-91586801D01*
X112607518Y-91920750D01*
X112537000Y-92275268D01*
X112537000Y-92636732D01*
X112607518Y-92991250D01*
X112745844Y-93325199D01*
X112946662Y-93625744D01*
X113202256Y-93881338D01*
X113412000Y-94021485D01*
X113412001Y-97390515D01*
X113202256Y-97530662D01*
X112946662Y-97786256D01*
X112745844Y-98086801D01*
X112607518Y-98420750D01*
X112537000Y-98775268D01*
X112537000Y-99136732D01*
X112607518Y-99491250D01*
X112745844Y-99825199D01*
X112946662Y-100125744D01*
X113202256Y-100381338D01*
X113502801Y-100582156D01*
X113836750Y-100720482D01*
X114191268Y-100791000D01*
X114552732Y-100791000D01*
X114907250Y-100720482D01*
X115241199Y-100582156D01*
X115541744Y-100381338D01*
X115797338Y-100125744D01*
X115998156Y-99825199D01*
X116136482Y-99491250D01*
X116207000Y-99136732D01*
X116207000Y-98775268D01*
X116136482Y-98420750D01*
X115998156Y-98086801D01*
X115797338Y-97786256D01*
X115541744Y-97530662D01*
X115332000Y-97390515D01*
X115332000Y-94021485D01*
X115541744Y-93881338D01*
X115797338Y-93625744D01*
X115998156Y-93325199D01*
X116136482Y-92991250D01*
X116207000Y-92636732D01*
X116207000Y-92275268D01*
X116136482Y-91920750D01*
X115998156Y-91586801D01*
X115797338Y-91286256D01*
X115541744Y-91030662D01*
X115357000Y-90907220D01*
X115357000Y-90252000D01*
X115978001Y-89631000D01*
X121766000Y-89631000D01*
X122967000Y-90832001D01*
X122967001Y-93908990D01*
X122885854Y-93952364D01*
X122758709Y-94056709D01*
X122654364Y-94183854D01*
X122576828Y-94328913D01*
X122529082Y-94486311D01*
X122512960Y-94650000D01*
X122512960Y-95850000D01*
X122529082Y-96013689D01*
X122576828Y-96171087D01*
X122611609Y-96236157D01*
X122572147Y-96331426D01*
X122517000Y-96608665D01*
X122517000Y-96792000D01*
X121338000Y-97971000D01*
X120420780Y-97971000D01*
X120297338Y-97786256D01*
X120041744Y-97530662D01*
X119832000Y-97390515D01*
X119832000Y-94021485D01*
X120041744Y-93881338D01*
X120297338Y-93625744D01*
X120498156Y-93325199D01*
X120636482Y-92991250D01*
X120707000Y-92636732D01*
X120707000Y-92275268D01*
X120636482Y-91920750D01*
X120498156Y-91586801D01*
X120297338Y-91286256D01*
X120041744Y-91030662D01*
X119741199Y-90829844D01*
X119407250Y-90691518D01*
X119052732Y-90621000D01*
X118691268Y-90621000D01*
X118336750Y-90691518D01*
X118002801Y-90829844D01*
X117702256Y-91030662D01*
X117446662Y-91286256D01*
X117245844Y-91586801D01*
X117107518Y-91920750D01*
X117037000Y-92275268D01*
X117037000Y-92636732D01*
X117107518Y-92991250D01*
X117245844Y-93325199D01*
X117446662Y-93625744D01*
X117702256Y-93881338D01*
X117912000Y-94021485D01*
X117912001Y-97390515D01*
X117702256Y-97530662D01*
X117446662Y-97786256D01*
X117245844Y-98086801D01*
X117107518Y-98420750D01*
X117037000Y-98775268D01*
X117037000Y-99136732D01*
X117080347Y-99354653D01*
X115923711Y-100511289D01*
X115886131Y-100542130D01*
X115763041Y-100692116D01*
X115747879Y-100720482D01*
X115671576Y-100863234D01*
X115615253Y-101048907D01*
X115596235Y-101242000D01*
X115601001Y-101290390D01*
X115601001Y-102323758D01*
X115543748Y-102362013D01*
X115316013Y-102589748D01*
X115137082Y-102857537D01*
X115013832Y-103155088D01*
X114951000Y-103470967D01*
X114951000Y-103793033D01*
X115013832Y-104108912D01*
X115137082Y-104406463D01*
X115316013Y-104674252D01*
X115543748Y-104901987D01*
X115811537Y-105080918D01*
X116109088Y-105204168D01*
X116424967Y-105267000D01*
X116747033Y-105267000D01*
X117062912Y-105204168D01*
X117360463Y-105080918D01*
X117628252Y-104901987D01*
X117855987Y-104674252D01*
X118034918Y-104406463D01*
X118158168Y-104108912D01*
X118221000Y-103793033D01*
X118221000Y-103470967D01*
X118158168Y-103155088D01*
X118034918Y-102857537D01*
X117855987Y-102589748D01*
X117628252Y-102362013D01*
X117571000Y-102323758D01*
X117571000Y-101650000D01*
X118473347Y-100747653D01*
X118691268Y-100791000D01*
X119052732Y-100791000D01*
X119407250Y-100720482D01*
X119741199Y-100582156D01*
X120041744Y-100381338D01*
X120297338Y-100125744D01*
X120420780Y-99941000D01*
X121697620Y-99941000D01*
X121746000Y-99945765D01*
X121794380Y-99941000D01*
X121939094Y-99926747D01*
X122124767Y-99870424D01*
X122295884Y-99778960D01*
X122445870Y-99655870D01*
X122476716Y-99618284D01*
X123910000Y-98185000D01*
X124093335Y-98185000D01*
X124370574Y-98129853D01*
X124631727Y-98021680D01*
X124866759Y-97864637D01*
X125066637Y-97664759D01*
X125223680Y-97429727D01*
X125331853Y-97168574D01*
X125387000Y-96891335D01*
X125387000Y-96608665D01*
X125331853Y-96331426D01*
X125292391Y-96236157D01*
X125327172Y-96171087D01*
X125374918Y-96013689D01*
X125391040Y-95850000D01*
X125391040Y-94650000D01*
X125374918Y-94486311D01*
X125327172Y-94328913D01*
X125249636Y-94183854D01*
X125145291Y-94056709D01*
X125018146Y-93952364D01*
X124937000Y-93908990D01*
X124937000Y-90770000D01*
X126015000Y-91848001D01*
X126015001Y-106779999D01*
X125322000Y-107473000D01*
X123605040Y-107473000D01*
X123605040Y-107358000D01*
X123588918Y-107194311D01*
X123541172Y-107036913D01*
X123463636Y-106891854D01*
X123359291Y-106764709D01*
X123232146Y-106660364D01*
X123087087Y-106582828D01*
X122929689Y-106535082D01*
X122766000Y-106518960D01*
X120566000Y-106518960D01*
X120402311Y-106535082D01*
X120244913Y-106582828D01*
X120099854Y-106660364D01*
X119972709Y-106764709D01*
X119868364Y-106891854D01*
X119790828Y-107036913D01*
X119743082Y-107194311D01*
X119726960Y-107358000D01*
X119726960Y-109558000D01*
X119743082Y-109721689D01*
X119790828Y-109879087D01*
X119868364Y-110024146D01*
X119972709Y-110151291D01*
X120099854Y-110255636D01*
X120244913Y-110333172D01*
X120402311Y-110380918D01*
X120566000Y-110397040D01*
X122766000Y-110397040D01*
X122929689Y-110380918D01*
X123087087Y-110333172D01*
X123232146Y-110255636D01*
X123359291Y-110151291D01*
X123463636Y-110024146D01*
X123541172Y-109879087D01*
X123588918Y-109721689D01*
X123605040Y-109558000D01*
X123605040Y-109443000D01*
X125681620Y-109443000D01*
X125730000Y-109447765D01*
X125778380Y-109443000D01*
X125923094Y-109428747D01*
X126108767Y-109372424D01*
X126279884Y-109280960D01*
X126429870Y-109157870D01*
X126460716Y-109120284D01*
X127662284Y-107918716D01*
X127699870Y-107887870D01*
X127822960Y-107737884D01*
X127914424Y-107566767D01*
X127967850Y-107390645D01*
X127970747Y-107381095D01*
X127989765Y-107188001D01*
X127985000Y-107139621D01*
X127985000Y-91488380D01*
X127989765Y-91440000D01*
X127970747Y-91246906D01*
X127914424Y-91061233D01*
X127904678Y-91043000D01*
X127822960Y-90890116D01*
X127699870Y-90740130D01*
X127662290Y-90709289D01*
X125437008Y-88484008D01*
X125437008Y-84812992D01*
X127705628Y-84812992D01*
X127754008Y-84817757D01*
X127802388Y-84812992D01*
X127947102Y-84798739D01*
X128132775Y-84742416D01*
X128303892Y-84650952D01*
X128453878Y-84527862D01*
X128484724Y-84490276D01*
X129440284Y-83534716D01*
X129477870Y-83503870D01*
X129600960Y-83353884D01*
X129691449Y-83184590D01*
X130357538Y-83184590D01*
X130430230Y-83467364D01*
X130713273Y-83610422D01*
X131018787Y-83695513D01*
X131335031Y-83719365D01*
X131649852Y-83681064D01*
X131951151Y-83582080D01*
X132165770Y-83467364D01*
X132238462Y-83184590D01*
X131298000Y-82244128D01*
X130357538Y-83184590D01*
X129691449Y-83184590D01*
X129692424Y-83182767D01*
X129740654Y-83023773D01*
X129748747Y-82997095D01*
X129767765Y-82804001D01*
X129763000Y-82755621D01*
X129763000Y-82587979D01*
X129817920Y-82755151D01*
X129932636Y-82969770D01*
X130215410Y-83042462D01*
X131155872Y-82102000D01*
X131440128Y-82102000D01*
X132380590Y-83042462D01*
X132663364Y-82969770D01*
X132806422Y-82686727D01*
X132891513Y-82381213D01*
X132915365Y-82064969D01*
X132877064Y-81750148D01*
X132778080Y-81448849D01*
X132663364Y-81234230D01*
X132380590Y-81161538D01*
X131440128Y-82102000D01*
X131155872Y-82102000D01*
X131141730Y-82087858D01*
X131283858Y-81945730D01*
X131298000Y-81959872D01*
X132238462Y-81019410D01*
X132165770Y-80736636D01*
X131882727Y-80593578D01*
X131649649Y-80528662D01*
X131724424Y-80388767D01*
X131780747Y-80203094D01*
X131795000Y-80058380D01*
X131795000Y-80058379D01*
X131799765Y-80010000D01*
X131795000Y-79961620D01*
X131795000Y-77264377D01*
X131799765Y-77215999D01*
X131786470Y-77081015D01*
X131780747Y-77022906D01*
X131724424Y-76837233D01*
X131632960Y-76666116D01*
X131509870Y-76516130D01*
X131472284Y-76485284D01*
X130016716Y-75029716D01*
X129985870Y-74992130D01*
X129835884Y-74869040D01*
X129664767Y-74777576D01*
X129479094Y-74721253D01*
X129334380Y-74707000D01*
X129286000Y-74702235D01*
X129237620Y-74707000D01*
X125122001Y-74707000D01*
X124663414Y-74248413D01*
X124676367Y-74255337D01*
X124814915Y-74297365D01*
X124959000Y-74311556D01*
X125349750Y-74308000D01*
X125533500Y-74124250D01*
X125533500Y-72998500D01*
X125734500Y-72998500D01*
X125734500Y-74124250D01*
X125918250Y-74308000D01*
X126309000Y-74311556D01*
X126453085Y-74297365D01*
X126591633Y-74255337D01*
X126719320Y-74187087D01*
X126831238Y-74095238D01*
X126923087Y-73983320D01*
X126991337Y-73855633D01*
X127033365Y-73717085D01*
X127047556Y-73573000D01*
X127044000Y-73182250D01*
X126860250Y-72998500D01*
X125734500Y-72998500D01*
X125533500Y-72998500D01*
X125513500Y-72998500D01*
X125513500Y-72797500D01*
X125533500Y-72797500D01*
X125533500Y-71671750D01*
X125734500Y-71671750D01*
X125734500Y-72797500D01*
X126860250Y-72797500D01*
X127044000Y-72613750D01*
X127047556Y-72223000D01*
X127033365Y-72078915D01*
X126991337Y-71940367D01*
X126923087Y-71812680D01*
X126831238Y-71700762D01*
X126719320Y-71608913D01*
X126591633Y-71540663D01*
X126453085Y-71498635D01*
X126309000Y-71484444D01*
X125918250Y-71488000D01*
X125734500Y-71671750D01*
X125533500Y-71671750D01*
X125349750Y-71488000D01*
X124959000Y-71484444D01*
X124814915Y-71498635D01*
X124676367Y-71540663D01*
X124596751Y-71583219D01*
X124598644Y-71563999D01*
X124594000Y-71516847D01*
X124594000Y-71516838D01*
X124580110Y-71375807D01*
X124525216Y-71194846D01*
X124499572Y-71146870D01*
X124436073Y-71028071D01*
X124346171Y-70918526D01*
X124316107Y-70881893D01*
X124279474Y-70851829D01*
X123648175Y-70220531D01*
X123618107Y-70183893D01*
X123471928Y-70063927D01*
X123305154Y-69974784D01*
X123124193Y-69919890D01*
X122983162Y-69906000D01*
X122983152Y-69906000D01*
X122936000Y-69901356D01*
X122888848Y-69906000D01*
X98345160Y-69906000D01*
X98298000Y-69901355D01*
X98250840Y-69906000D01*
X98250838Y-69906000D01*
X98109807Y-69919890D01*
X97928846Y-69974784D01*
X97762071Y-70063927D01*
X97652526Y-70153829D01*
X97615893Y-70183893D01*
X97585829Y-70220526D01*
X96988526Y-70817830D01*
X96951894Y-70847893D01*
X96921830Y-70884526D01*
X96921829Y-70884527D01*
X96831927Y-70994072D01*
X96742784Y-71160847D01*
X96704543Y-71286914D01*
X96687891Y-71341807D01*
X96683094Y-71390514D01*
X96669356Y-71530000D01*
X96674001Y-71577162D01*
X96674001Y-71723390D01*
X96671431Y-71725107D01*
X96634000Y-71762538D01*
X96596569Y-71725107D01*
X96349253Y-71559856D01*
X96074451Y-71446029D01*
X95782722Y-71388000D01*
X95485278Y-71388000D01*
X95193549Y-71446029D01*
X94918747Y-71559856D01*
X94671431Y-71725107D01*
X94461107Y-71935431D01*
X94459390Y-71938000D01*
X80217276Y-71938000D01*
X80188918Y-71869537D01*
X80009987Y-71601748D01*
X79782252Y-71374013D01*
X79514463Y-71195082D01*
X79216912Y-71071832D01*
X78901033Y-71009000D01*
X78578967Y-71009000D01*
X78263088Y-71071832D01*
X77965537Y-71195082D01*
X77697748Y-71374013D01*
X77470013Y-71601748D01*
X77291082Y-71869537D01*
X77167832Y-72167088D01*
X77105000Y-72482967D01*
X67425501Y-72482967D01*
X67537126Y-72305126D01*
X67473086Y-72094003D01*
X67338251Y-71824990D01*
X67153525Y-71587451D01*
X66926006Y-71390514D01*
X66664439Y-71241748D01*
X66378875Y-71146870D01*
X66140500Y-71296040D01*
X65939500Y-71296040D01*
X65701125Y-71146870D01*
X65415561Y-71241748D01*
X65153994Y-71390514D01*
X64926475Y-71587451D01*
X64741749Y-71824990D01*
X64606914Y-72094003D01*
X64542874Y-72305126D01*
X62074000Y-72305126D01*
X62074000Y-69694000D01*
X134268000Y-69694000D01*
X134268001Y-137824000D01*
G37*
%TD.AperFunction*%
D39*
X80662468Y-120628112D02*
X80513391Y-120851221D01*
X80393911Y-121139673D01*
X80333000Y-121445891D01*
X80333000Y-121758109D01*
X80393911Y-122064327D01*
X80513391Y-122352779D01*
X80686850Y-122612379D01*
X80907621Y-122833150D01*
X81167221Y-123006609D01*
X81455673Y-123126089D01*
X81761891Y-123187000D01*
X82074109Y-123187000D01*
X82380327Y-123126089D01*
X82668779Y-123006609D01*
X82928379Y-122833150D01*
X83149150Y-122612379D01*
X83182812Y-122562000D01*
X87168356Y-122562000D01*
X89253829Y-124647474D01*
X89283893Y-124684107D01*
X89430072Y-124804073D01*
X89596846Y-124893216D01*
X89777807Y-124948110D01*
X89910033Y-124961133D01*
X90076286Y-125163714D01*
X90208233Y-125272000D01*
X90076286Y-125380286D01*
X89910744Y-125582000D01*
X83222903Y-125582000D01*
X83149150Y-125471621D01*
X82928379Y-125250850D01*
X82668779Y-125077391D01*
X82380327Y-124957911D01*
X82074109Y-124897000D01*
X81761891Y-124897000D01*
X81455673Y-124957911D01*
X81296119Y-125024000D01*
X75746946Y-125024000D01*
X75691987Y-124941748D01*
X75464252Y-124714013D01*
X75196463Y-124535082D01*
X74898912Y-124411832D01*
X74583033Y-124349000D01*
X74260967Y-124349000D01*
X73945088Y-124411832D01*
X73647537Y-124535082D01*
X73379748Y-124714013D01*
X73152013Y-124941748D01*
X73121000Y-124988162D01*
X73121000Y-123267453D01*
X73148839Y-123295292D01*
X73280967Y-123163164D01*
X73344617Y-123438270D01*
X73614888Y-123573843D01*
X73906416Y-123654084D01*
X74207996Y-123675909D01*
X74508039Y-123638479D01*
X74795015Y-123543232D01*
X74991383Y-123438270D01*
X75055034Y-123163162D01*
X74168000Y-122276128D01*
X74153858Y-122290271D01*
X74011730Y-122148143D01*
X74025872Y-122134000D01*
X74310128Y-122134000D01*
X75197162Y-123021034D01*
X75472270Y-122957383D01*
X75607843Y-122687112D01*
X75688084Y-122395584D01*
X75709909Y-122094004D01*
X75672479Y-121793961D01*
X75577232Y-121506985D01*
X75472270Y-121310617D01*
X75197162Y-121246966D01*
X74310128Y-122134000D01*
X74025872Y-122134000D01*
X74011730Y-122119858D01*
X74153858Y-121977730D01*
X74168000Y-121991872D01*
X75055034Y-121104838D01*
X75035569Y-121020707D01*
X75210252Y-120903987D01*
X75437987Y-120676252D01*
X75492946Y-120594000D01*
X80628356Y-120594000D01*
X80662468Y-120628112D01*
%TA.AperFunction,Conductor*%
D40*
G36*
X80662468Y-120628112D02*
G01*
X80513391Y-120851221D01*
X80393911Y-121139673D01*
X80333000Y-121445891D01*
X80333000Y-121758109D01*
X80393911Y-122064327D01*
X80513391Y-122352779D01*
X80686850Y-122612379D01*
X80907621Y-122833150D01*
X81167221Y-123006609D01*
X81455673Y-123126089D01*
X81761891Y-123187000D01*
X82074109Y-123187000D01*
X82380327Y-123126089D01*
X82668779Y-123006609D01*
X82928379Y-122833150D01*
X83149150Y-122612379D01*
X83182812Y-122562000D01*
X87168356Y-122562000D01*
X89253829Y-124647474D01*
X89283893Y-124684107D01*
X89430072Y-124804073D01*
X89596846Y-124893216D01*
X89777807Y-124948110D01*
X89910033Y-124961133D01*
X90076286Y-125163714D01*
X90208233Y-125272000D01*
X90076286Y-125380286D01*
X89910744Y-125582000D01*
X83222903Y-125582000D01*
X83149150Y-125471621D01*
X82928379Y-125250850D01*
X82668779Y-125077391D01*
X82380327Y-124957911D01*
X82074109Y-124897000D01*
X81761891Y-124897000D01*
X81455673Y-124957911D01*
X81296119Y-125024000D01*
X75746946Y-125024000D01*
X75691987Y-124941748D01*
X75464252Y-124714013D01*
X75196463Y-124535082D01*
X74898912Y-124411832D01*
X74583033Y-124349000D01*
X74260967Y-124349000D01*
X73945088Y-124411832D01*
X73647537Y-124535082D01*
X73379748Y-124714013D01*
X73152013Y-124941748D01*
X73121000Y-124988162D01*
X73121000Y-123267453D01*
X73148839Y-123295292D01*
X73280967Y-123163164D01*
X73344617Y-123438270D01*
X73614888Y-123573843D01*
X73906416Y-123654084D01*
X74207996Y-123675909D01*
X74508039Y-123638479D01*
X74795015Y-123543232D01*
X74991383Y-123438270D01*
X75055034Y-123163162D01*
X74168000Y-122276128D01*
X74153858Y-122290271D01*
X74011730Y-122148143D01*
X74025872Y-122134000D01*
X74310128Y-122134000D01*
X75197162Y-123021034D01*
X75472270Y-122957383D01*
X75607843Y-122687112D01*
X75688084Y-122395584D01*
X75709909Y-122094004D01*
X75672479Y-121793961D01*
X75577232Y-121506985D01*
X75472270Y-121310617D01*
X75197162Y-121246966D01*
X74310128Y-122134000D01*
X74025872Y-122134000D01*
X74011730Y-122119858D01*
X74153858Y-121977730D01*
X74168000Y-121991872D01*
X75055034Y-121104838D01*
X75035569Y-121020707D01*
X75210252Y-120903987D01*
X75437987Y-120676252D01*
X75492946Y-120594000D01*
X80628356Y-120594000D01*
X80662468Y-120628112D01*
G37*
%TD.AperFunction*%
D39*
X90076286Y-104843714D02*
X90208233Y-104952000D01*
X90076286Y-105060286D01*
X89931261Y-105237000D01*
X89152379Y-105237000D01*
X89103999Y-105232235D01*
X88984121Y-105244042D01*
X88910906Y-105251253D01*
X88725233Y-105307576D01*
X88554116Y-105399040D01*
X88404130Y-105522130D01*
X88373284Y-105559716D01*
X87729711Y-106203289D01*
X87692131Y-106234130D01*
X87569041Y-106384116D01*
X87552483Y-106415094D01*
X87477576Y-106555234D01*
X87421253Y-106740907D01*
X87402235Y-106934000D01*
X87407001Y-106982390D01*
X87407000Y-112113999D01*
X86968000Y-112553000D01*
X86264511Y-112553000D01*
X86204998Y-112463931D01*
X86258238Y-112420238D01*
X86350087Y-112308320D01*
X86418337Y-112180633D01*
X86460365Y-112042085D01*
X86474556Y-111898000D01*
X86471000Y-111282250D01*
X86287250Y-111098500D01*
X84936500Y-111098500D01*
X84936500Y-111118500D01*
X84735500Y-111118500D01*
X84735500Y-111098500D01*
X83384750Y-111098500D01*
X83201000Y-111282250D01*
X83197444Y-111898000D01*
X83211635Y-112042085D01*
X83253663Y-112180633D01*
X83321913Y-112308320D01*
X83413762Y-112420238D01*
X83467002Y-112463931D01*
X83298463Y-112716169D01*
X83167675Y-113031919D01*
X83101000Y-113367117D01*
X83101000Y-113708883D01*
X83129390Y-113851610D01*
X82142000Y-114839000D01*
X79384661Y-114839000D01*
X79579663Y-114643998D01*
X79769537Y-114359831D01*
X79900325Y-114044081D01*
X79967000Y-113708883D01*
X79967000Y-113367117D01*
X79900325Y-113031919D01*
X79769537Y-112716169D01*
X79600998Y-112463931D01*
X79654238Y-112420238D01*
X79746087Y-112308320D01*
X79814337Y-112180633D01*
X79856365Y-112042085D01*
X79870556Y-111898000D01*
X79867000Y-111282250D01*
X79683250Y-111098500D01*
X78332500Y-111098500D01*
X78332500Y-111118500D01*
X78131500Y-111118500D01*
X78131500Y-111098500D01*
X78111500Y-111098500D01*
X78111500Y-110897500D01*
X78131500Y-110897500D01*
X78131500Y-109546750D01*
X78332500Y-109546750D01*
X78332500Y-110897500D01*
X79683250Y-110897500D01*
X79867000Y-110713750D01*
X79870556Y-110098000D01*
X83197444Y-110098000D01*
X83201000Y-110713750D01*
X83384750Y-110897500D01*
X84735500Y-110897500D01*
X84735500Y-109546750D01*
X84936500Y-109546750D01*
X84936500Y-110897500D01*
X86287250Y-110897500D01*
X86471000Y-110713750D01*
X86474556Y-110098000D01*
X86460365Y-109953915D01*
X86418337Y-109815367D01*
X86350087Y-109687680D01*
X86258238Y-109575762D01*
X86146320Y-109483913D01*
X86018633Y-109415663D01*
X85880085Y-109373635D01*
X85736000Y-109359444D01*
X85120250Y-109363000D01*
X84936500Y-109546750D01*
X84735500Y-109546750D01*
X84551750Y-109363000D01*
X83936000Y-109359444D01*
X83791915Y-109373635D01*
X83653367Y-109415663D01*
X83525680Y-109483913D01*
X83413762Y-109575762D01*
X83321913Y-109687680D01*
X83253663Y-109815367D01*
X83211635Y-109953915D01*
X83197444Y-110098000D01*
X79870556Y-110098000D01*
X79856365Y-109953915D01*
X79814337Y-109815367D01*
X79746087Y-109687680D01*
X79654238Y-109575762D01*
X79542320Y-109483913D01*
X79414633Y-109415663D01*
X79276085Y-109373635D01*
X79132000Y-109359444D01*
X78516250Y-109363000D01*
X78332500Y-109546750D01*
X78131500Y-109546750D01*
X77947750Y-109363000D01*
X77332000Y-109359444D01*
X77187915Y-109373635D01*
X77049367Y-109415663D01*
X76921680Y-109483913D01*
X76809762Y-109575762D01*
X76717913Y-109687680D01*
X76652000Y-109810995D01*
X76652000Y-105553644D01*
X77563645Y-104642000D01*
X89910744Y-104642000D01*
X90076286Y-104843714D01*
%TA.AperFunction,Conductor*%
D40*
G36*
X90076286Y-104843714D02*
G01*
X90208233Y-104952000D01*
X90076286Y-105060286D01*
X89931261Y-105237000D01*
X89152379Y-105237000D01*
X89103999Y-105232235D01*
X88984121Y-105244042D01*
X88910906Y-105251253D01*
X88725233Y-105307576D01*
X88554116Y-105399040D01*
X88404130Y-105522130D01*
X88373284Y-105559716D01*
X87729711Y-106203289D01*
X87692131Y-106234130D01*
X87569041Y-106384116D01*
X87552483Y-106415094D01*
X87477576Y-106555234D01*
X87421253Y-106740907D01*
X87402235Y-106934000D01*
X87407001Y-106982390D01*
X87407000Y-112113999D01*
X86968000Y-112553000D01*
X86264511Y-112553000D01*
X86204998Y-112463931D01*
X86258238Y-112420238D01*
X86350087Y-112308320D01*
X86418337Y-112180633D01*
X86460365Y-112042085D01*
X86474556Y-111898000D01*
X86471000Y-111282250D01*
X86287250Y-111098500D01*
X84936500Y-111098500D01*
X84936500Y-111118500D01*
X84735500Y-111118500D01*
X84735500Y-111098500D01*
X83384750Y-111098500D01*
X83201000Y-111282250D01*
X83197444Y-111898000D01*
X83211635Y-112042085D01*
X83253663Y-112180633D01*
X83321913Y-112308320D01*
X83413762Y-112420238D01*
X83467002Y-112463931D01*
X83298463Y-112716169D01*
X83167675Y-113031919D01*
X83101000Y-113367117D01*
X83101000Y-113708883D01*
X83129390Y-113851610D01*
X82142000Y-114839000D01*
X79384661Y-114839000D01*
X79579663Y-114643998D01*
X79769537Y-114359831D01*
X79900325Y-114044081D01*
X79967000Y-113708883D01*
X79967000Y-113367117D01*
X79900325Y-113031919D01*
X79769537Y-112716169D01*
X79600998Y-112463931D01*
X79654238Y-112420238D01*
X79746087Y-112308320D01*
X79814337Y-112180633D01*
X79856365Y-112042085D01*
X79870556Y-111898000D01*
X79867000Y-111282250D01*
X79683250Y-111098500D01*
X78332500Y-111098500D01*
X78332500Y-111118500D01*
X78131500Y-111118500D01*
X78131500Y-111098500D01*
X78111500Y-111098500D01*
X78111500Y-110897500D01*
X78131500Y-110897500D01*
X78131500Y-109546750D01*
X78332500Y-109546750D01*
X78332500Y-110897500D01*
X79683250Y-110897500D01*
X79867000Y-110713750D01*
X79870556Y-110098000D01*
X83197444Y-110098000D01*
X83201000Y-110713750D01*
X83384750Y-110897500D01*
X84735500Y-110897500D01*
X84735500Y-109546750D01*
X84936500Y-109546750D01*
X84936500Y-110897500D01*
X86287250Y-110897500D01*
X86471000Y-110713750D01*
X86474556Y-110098000D01*
X86460365Y-109953915D01*
X86418337Y-109815367D01*
X86350087Y-109687680D01*
X86258238Y-109575762D01*
X86146320Y-109483913D01*
X86018633Y-109415663D01*
X85880085Y-109373635D01*
X85736000Y-109359444D01*
X85120250Y-109363000D01*
X84936500Y-109546750D01*
X84735500Y-109546750D01*
X84551750Y-109363000D01*
X83936000Y-109359444D01*
X83791915Y-109373635D01*
X83653367Y-109415663D01*
X83525680Y-109483913D01*
X83413762Y-109575762D01*
X83321913Y-109687680D01*
X83253663Y-109815367D01*
X83211635Y-109953915D01*
X83197444Y-110098000D01*
X79870556Y-110098000D01*
X79856365Y-109953915D01*
X79814337Y-109815367D01*
X79746087Y-109687680D01*
X79654238Y-109575762D01*
X79542320Y-109483913D01*
X79414633Y-109415663D01*
X79276085Y-109373635D01*
X79132000Y-109359444D01*
X78516250Y-109363000D01*
X78332500Y-109546750D01*
X78131500Y-109546750D01*
X77947750Y-109363000D01*
X77332000Y-109359444D01*
X77187915Y-109373635D01*
X77049367Y-109415663D01*
X76921680Y-109483913D01*
X76809762Y-109575762D01*
X76717913Y-109687680D01*
X76652000Y-109810995D01*
X76652000Y-105553644D01*
X77563645Y-104642000D01*
X89910744Y-104642000D01*
X90076286Y-104843714D01*
G37*
%TD.AperFunction*%
D39*
X73208001Y-106028354D02*
X72754356Y-106482000D01*
X72538205Y-106482000D01*
X72712787Y-106258462D01*
X72852589Y-105980975D01*
X72920615Y-105756712D01*
X72771641Y-105510500D01*
X71474500Y-105510500D01*
X71474500Y-105530500D01*
X71273500Y-105530500D01*
X71273500Y-105510500D01*
X71253500Y-105510500D01*
X71253500Y-105309500D01*
X71273500Y-105309500D01*
X71273500Y-105289500D01*
X71474500Y-105289500D01*
X71474500Y-105309500D01*
X72771641Y-105309500D01*
X72920615Y-105063288D01*
X72852589Y-104839025D01*
X72712787Y-104561538D01*
X72521536Y-104316657D01*
X72399402Y-104211381D01*
X72448125Y-104178825D01*
X72682825Y-103944125D01*
X72867228Y-103668147D01*
X72988658Y-103374986D01*
X73208001Y-103155644D01*
X73208001Y-106028354D01*
%TA.AperFunction,Conductor*%
D40*
G36*
X73208001Y-106028354D02*
G01*
X72754356Y-106482000D01*
X72538205Y-106482000D01*
X72712787Y-106258462D01*
X72852589Y-105980975D01*
X72920615Y-105756712D01*
X72771641Y-105510500D01*
X71474500Y-105510500D01*
X71474500Y-105530500D01*
X71273500Y-105530500D01*
X71273500Y-105510500D01*
X71253500Y-105510500D01*
X71253500Y-105309500D01*
X71273500Y-105309500D01*
X71273500Y-105289500D01*
X71474500Y-105289500D01*
X71474500Y-105309500D01*
X72771641Y-105309500D01*
X72920615Y-105063288D01*
X72852589Y-104839025D01*
X72712787Y-104561538D01*
X72521536Y-104316657D01*
X72399402Y-104211381D01*
X72448125Y-104178825D01*
X72682825Y-103944125D01*
X72867228Y-103668147D01*
X72988658Y-103374986D01*
X73208001Y-103155644D01*
X73208001Y-106028354D01*
G37*
%TD.AperFunction*%
%TD*%
M02*
