M48
; DRILL file {KiCad (5.1.9)-1} date 04/15/21 23:19:22
; FORMAT={-:-/ absolute / inch / decimal}
; #@! TF.CreationDate,2021-04-15T23:19:22+05:30
; #@! TF.GenerationSoftware,Kicad,Pcbnew,(5.1.9)-1
; #@! TF.FileFunction,Plated,1,2,PTH
FMAT,2
INCH
T1C0.0157
T2C0.0236
T3C0.0276
T4C0.0315
T5C0.0354
T6C0.0394
T7C0.0433
T8C0.0472
T9C0.0512
T10C0.0984
%
G90
G05
T1
X3.13Y-4.19
X3.2643Y-3.4643
X3.55Y-2.98
T2
X4.88Y-3.75
X4.88Y-3.8091
T3
X4.9692Y-3.2324
X5.0692Y-3.1324
X5.1692Y-3.2324
T4
X2.6Y-2.86
X2.92Y-4.71
X2.92Y-4.8084
X2.93Y-4.96
X2.93Y-5.0584
X3.1Y-2.86
X3.21Y-3.01
X3.22Y-3.36
X3.2251Y-4.7875
X3.2251Y-4.9796
X3.3084Y-3.01
X3.3184Y-3.36
X3.39Y-3.52
X3.39Y-4.02
X3.6078Y-3.182
X3.6078Y-3.282
X3.6078Y-3.382
X3.6078Y-3.482
X3.6078Y-3.582
X3.6078Y-3.682
X3.6078Y-3.782
X3.6078Y-3.882
X3.6078Y-3.982
X3.6078Y-4.082
X3.6078Y-4.182
X3.6078Y-4.282
X3.6078Y-4.382
X3.6078Y-4.482
X3.6078Y-4.582
X3.6078Y-4.682
X3.6078Y-4.782
X3.6078Y-4.882
X3.6078Y-4.982
X3.6078Y-5.082
X3.7651Y-2.87
X3.8439Y-2.87
X3.9226Y-2.87
X4.0013Y-2.87
X4.0801Y-2.87
X4.1588Y-2.87
X4.2078Y-3.182
X4.2078Y-3.282
X4.2078Y-3.382
X4.2078Y-3.482
X4.2078Y-3.582
X4.2078Y-3.682
X4.2078Y-3.782
X4.2078Y-3.882
X4.2078Y-3.982
X4.2078Y-4.082
X4.2078Y-4.182
X4.2078Y-4.282
X4.2078Y-4.382
X4.2078Y-4.482
X4.2078Y-4.582
X4.2078Y-4.682
X4.2078Y-4.782
X4.2078Y-4.882
X4.2078Y-4.982
X4.2078Y-5.082
X4.2376Y-2.87
X4.3163Y-2.87
X4.395Y-2.87
X4.42Y-3.2
X4.42Y-3.31
X4.4738Y-2.87
X4.5525Y-2.87
X4.59Y-4.08
X4.59Y-4.58
X4.6313Y-2.87
X4.71Y-2.87
X4.72Y-3.2
X4.72Y-3.31
X4.7887Y-2.87
X4.8675Y-2.87
X4.9462Y-2.87
T5
X3.08Y-4.37
X3.08Y-4.47
X3.21Y-3.19
X3.31Y-3.19
X3.34Y-4.37
X3.34Y-4.47
T6
X2.71Y-3.95
X2.71Y-4.05
X2.71Y-4.15
X2.81Y-3.95
X2.81Y-4.05
X2.81Y-4.15
X5.09Y-4.83
X5.09Y-4.93
T7
X2.84Y-3.61
X2.92Y-3.13
X2.92Y-3.23
X2.92Y-3.33
X3.14Y-3.61
X4.5028Y-3.64
X4.5028Y-3.8959
X4.5841Y-4.9028
X4.5841Y-5.08
X4.68Y-3.64
X4.68Y-3.8959
X4.79Y-4.27
X4.79Y-4.57
X4.84Y-4.9028
X4.84Y-5.08
T8
X3.66Y-2.29
X3.76Y-2.29
X3.86Y-2.29
X3.96Y-2.29
X4.06Y-2.29
X4.16Y-2.29
X4.26Y-2.29
X4.36Y-2.29
X4.46Y-2.29
X4.56Y-2.29
X4.66Y-2.29
X4.76Y-2.29
X4.86Y-2.29
X4.96Y-2.29
X5.06Y-2.29
X5.16Y-2.29
T9
X2.54Y-3.1732
X2.54Y-3.37
T10
X2.4238Y-2.29
X2.4238Y-1.0695
X5.3765Y-1.0695
X5.3765Y-2.29
T0
M30
