%TF.GenerationSoftware,KiCad,Pcbnew,(5.1.9)-1*%
%TF.CreationDate,2021-04-15T23:19:31+05:30*%
%TF.ProjectId,8051 Transmitter End,38303531-2054-4726-916e-736d69747465,01*%
%TF.SameCoordinates,Original*%
%TF.FileFunction,Copper,L1,Top*%
%TF.FilePolarity,Positive*%
%FSLAX46Y46*%
G04 Gerber Fmt 4.6, Leading zero omitted, Abs format (unit mm)*
G04 Created by KiCad (PCBNEW (5.1.9)-1) date 2021-04-15 23:19:31*
%MOMM*%
%LPD*%
G01*
G04 APERTURE LIST*
%TA.AperFunction,ComponentPad*%
%ADD10O,1.700000X1.700000*%
%TD*%
%TA.AperFunction,ComponentPad*%
%ADD11R,1.700000X1.700000*%
%TD*%
%TA.AperFunction,ComponentPad*%
%ADD12O,2.400000X1.600000*%
%TD*%
%TA.AperFunction,ComponentPad*%
%ADD13O,2.400000X1.000000*%
%TD*%
%TA.AperFunction,ComponentPad*%
%ADD14R,2.400000X1.600000*%
%TD*%
%TA.AperFunction,ComponentPad*%
%ADD15O,1.350000X1.350000*%
%TD*%
%TA.AperFunction,ComponentPad*%
%ADD16R,1.350000X1.350000*%
%TD*%
%TA.AperFunction,ComponentPad*%
%ADD17O,1.600000X1.600000*%
%TD*%
%TA.AperFunction,ComponentPad*%
%ADD18C,1.600000*%
%TD*%
%TA.AperFunction,ComponentPad*%
%ADD19O,2.200000X2.200000*%
%TD*%
%TA.AperFunction,ComponentPad*%
%ADD20R,2.200000X2.200000*%
%TD*%
%TA.AperFunction,ComponentPad*%
%ADD21R,1.600000X1.600000*%
%TD*%
%TA.AperFunction,ComponentPad*%
%ADD22C,1.500000*%
%TD*%
%TA.AperFunction,ComponentPad*%
%ADD23O,2.000000X1.905000*%
%TD*%
%TA.AperFunction,ComponentPad*%
%ADD24R,2.000000X1.905000*%
%TD*%
%TA.AperFunction,ComponentPad*%
%ADD25C,2.000000*%
%TD*%
%TA.AperFunction,ComponentPad*%
%ADD26C,1.750000*%
%TD*%
%TA.AperFunction,ComponentPad*%
%ADD27C,2.999740*%
%TD*%
%TA.AperFunction,ComponentPad*%
%ADD28C,3.000000*%
%TD*%
%TA.AperFunction,ComponentPad*%
%ADD29O,1.800000X2.600000*%
%TD*%
%TA.AperFunction,ComponentPad*%
%ADD30R,1.800000X2.600000*%
%TD*%
%TA.AperFunction,ComponentPad*%
%ADD31C,1.800000*%
%TD*%
%TA.AperFunction,ComponentPad*%
%ADD32R,1.800000X1.800000*%
%TD*%
%TA.AperFunction,ComponentPad*%
%ADD33C,1.200000*%
%TD*%
%TA.AperFunction,ComponentPad*%
%ADD34R,1.200000X1.200000*%
%TD*%
%TA.AperFunction,ViaPad*%
%ADD35C,0.800000*%
%TD*%
%TA.AperFunction,Conductor*%
%ADD36C,0.250000*%
%TD*%
%TA.AperFunction,Conductor*%
%ADD37C,0.300000*%
%TD*%
G04 APERTURE END LIST*
D10*
%TO.P,P1,6*%
%TO.N,GND*%
X71374000Y-105410000D03*
%TO.P,P1,5*%
%TO.N,RESET*%
X68834000Y-105410000D03*
%TO.P,P1,4*%
%TO.N,MISO*%
X71374000Y-102870000D03*
%TO.P,P1,3*%
%TO.N,SCK*%
X68834000Y-102870000D03*
%TO.P,P1,2*%
%TO.N,Vin2*%
X71374000Y-100330000D03*
D11*
%TO.P,P1,1*%
%TO.N,MOSI*%
X68834000Y-100330000D03*
%TD*%
D12*
%TO.P,IC1,40*%
%TO.N,Vin*%
X106878000Y-80822000D03*
%TO.P,IC1,20*%
%TO.N,GND*%
X91638000Y-129082000D03*
%TO.P,IC1,39*%
%TO.N,Net-(IC1-Pad39)*%
X106878000Y-83362000D03*
%TO.P,IC1,19*%
%TO.N,XTAL1*%
X91638000Y-126542000D03*
D13*
%TO.P,IC1,38*%
%TO.N,Net-(IC1-Pad38)*%
X106878000Y-85902000D03*
D12*
%TO.P,IC1,18*%
%TO.N,XTAL2*%
X91638000Y-124002000D03*
D13*
%TO.P,IC1,37*%
%TO.N,Net-(IC1-Pad37)*%
X106878000Y-88442000D03*
D12*
%TO.P,IC1,17*%
%TO.N,Net-(IC1-Pad17)*%
X91638000Y-121462000D03*
%TO.P,IC1,36*%
%TO.N,Net-(IC1-Pad36)*%
X106878000Y-90982000D03*
%TO.P,IC1,16*%
%TO.N,Net-(IC1-Pad16)*%
X91638000Y-118922000D03*
%TO.P,IC1,35*%
%TO.N,Net-(IC1-Pad35)*%
X106878000Y-93522000D03*
%TO.P,IC1,15*%
%TO.N,Net-(IC1-Pad15)*%
X91638000Y-116382000D03*
%TO.P,IC1,34*%
%TO.N,Net-(IC1-Pad34)*%
X106878000Y-96062000D03*
%TO.P,IC1,14*%
%TO.N,Net-(IC1-Pad14)*%
X91638000Y-113842000D03*
%TO.P,IC1,33*%
%TO.N,Net-(IC1-Pad33)*%
X106878000Y-98602000D03*
%TO.P,IC1,13*%
%TO.N,Net-(IC1-Pad13)*%
X91638000Y-111302000D03*
%TO.P,IC1,32*%
%TO.N,Net-(IC1-Pad32)*%
X106878000Y-101142000D03*
%TO.P,IC1,12*%
%TO.N,Net-(IC1-Pad12)*%
X91638000Y-108762000D03*
D13*
%TO.P,IC1,31*%
%TO.N,Vin*%
X106878000Y-103682000D03*
D12*
%TO.P,IC1,11*%
%TO.N,Tx*%
X91638000Y-106222000D03*
D13*
%TO.P,IC1,30*%
%TO.N,Net-(IC1-Pad30)*%
X106878000Y-106222000D03*
D12*
%TO.P,IC1,10*%
%TO.N,Rx*%
X91638000Y-103682000D03*
%TO.P,IC1,29*%
%TO.N,Net-(IC1-Pad29)*%
X106878000Y-108762000D03*
%TO.P,IC1,9*%
%TO.N,RESET*%
X91638000Y-101142000D03*
%TO.P,IC1,28*%
%TO.N,DATA0*%
X106878000Y-111302000D03*
%TO.P,IC1,8*%
%TO.N,SCK*%
X91638000Y-98602000D03*
%TO.P,IC1,27*%
%TO.N,DATA1*%
X106878000Y-113842000D03*
%TO.P,IC1,7*%
%TO.N,MISO*%
X91638000Y-96062000D03*
%TO.P,IC1,26*%
%TO.N,DATA2*%
X106878000Y-116382000D03*
%TO.P,IC1,6*%
%TO.N,MOSI*%
X91638000Y-93522000D03*
%TO.P,IC1,25*%
%TO.N,DATA3*%
X106878000Y-118922000D03*
%TO.P,IC1,5*%
%TO.N,Net-(IC1-Pad5)*%
X91638000Y-90982000D03*
D13*
%TO.P,IC1,24*%
%TO.N,DATA4*%
X106878000Y-121462000D03*
%TO.P,IC1,4*%
%TO.N,Net-(IC1-Pad4)*%
X91638000Y-88442000D03*
%TO.P,IC1,23*%
%TO.N,DATA5*%
X106878000Y-124002000D03*
%TO.P,IC1,3*%
%TO.N,RS*%
X91638000Y-85902000D03*
D12*
%TO.P,IC1,22*%
%TO.N,DATA6*%
X106878000Y-126542000D03*
%TO.P,IC1,2*%
%TO.N,RW*%
X91638000Y-83362000D03*
%TO.P,IC1,21*%
%TO.N,DATA7*%
X106878000Y-129082000D03*
D14*
%TO.P,IC1,1*%
%TO.N,EN*%
X91638000Y-80822000D03*
%TD*%
D15*
%TO.P,J3,16*%
%TO.N,Net-(DS1-Pad16)*%
X95634000Y-72898000D03*
%TO.P,J3,15*%
%TO.N,Vin1*%
X97634000Y-72898000D03*
%TO.P,J3,14*%
%TO.N,DATA7*%
X99634000Y-72898000D03*
%TO.P,J3,13*%
%TO.N,DATA6*%
X101634000Y-72898000D03*
%TO.P,J3,12*%
%TO.N,DATA5*%
X103634000Y-72898000D03*
%TO.P,J3,11*%
%TO.N,DATA4*%
X105634000Y-72898000D03*
%TO.P,J3,10*%
%TO.N,DATA3*%
X107634000Y-72898000D03*
%TO.P,J3,9*%
%TO.N,DATA2*%
X109634000Y-72898000D03*
%TO.P,J3,8*%
%TO.N,DATA1*%
X111634000Y-72898000D03*
%TO.P,J3,7*%
%TO.N,DATA0*%
X113634000Y-72898000D03*
%TO.P,J3,6*%
%TO.N,EN*%
X115634000Y-72898000D03*
%TO.P,J3,5*%
%TO.N,RW*%
X117634000Y-72898000D03*
%TO.P,J3,4*%
%TO.N,RS*%
X119634000Y-72898000D03*
%TO.P,J3,3*%
%TO.N,Net-(DS1-Pad3)*%
X121634000Y-72898000D03*
%TO.P,J3,2*%
%TO.N,Vin1*%
X123634000Y-72898000D03*
D16*
%TO.P,J3,1*%
%TO.N,GND*%
X125634000Y-72898000D03*
%TD*%
D10*
%TO.P,J2,2*%
%TO.N,Tx*%
X129286000Y-125222000D03*
D11*
%TO.P,J2,1*%
%TO.N,Rx*%
X129286000Y-122682000D03*
%TD*%
D17*
%TO.P,R3,2*%
%TO.N,GND*%
X66040000Y-72644000D03*
D18*
%TO.P,R3,1*%
%TO.N,Net-(DS1-Pad16)*%
X78740000Y-72644000D03*
%TD*%
D17*
%TO.P,R2,2*%
%TO.N,Net-(D1-Pad2)*%
X86106000Y-102108000D03*
D18*
%TO.P,R2,1*%
%TO.N,VCC*%
X86106000Y-89408000D03*
%TD*%
D17*
%TO.P,R1,2*%
%TO.N,GND*%
X116586000Y-116332000D03*
D18*
%TO.P,R1,1*%
%TO.N,RESET*%
X116586000Y-103632000D03*
%TD*%
D19*
%TO.P,D5,2*%
%TO.N,VCC*%
X79756000Y-91694000D03*
D20*
%TO.P,D5,1*%
%TO.N,Net-(D5-Pad1)*%
X72136000Y-91694000D03*
%TD*%
D19*
%TO.P,D4,2*%
%TO.N,GND*%
X121666000Y-116078000D03*
D20*
%TO.P,D4,1*%
%TO.N,Vin1*%
X121666000Y-108458000D03*
%TD*%
D17*
%TO.P,D3,2*%
%TO.N,Vin2*%
X119888000Y-84074000D03*
D21*
%TO.P,D3,1*%
%TO.N,Vin*%
X112268000Y-84074000D03*
%TD*%
D17*
%TO.P,D2,2*%
%TO.N,Vin1*%
X119888000Y-81280000D03*
D21*
%TO.P,D2,1*%
%TO.N,Vin*%
X112268000Y-81280000D03*
%TD*%
D22*
%TO.P,Y1,2*%
%TO.N,XTAL1*%
X81918000Y-126482000D03*
%TO.P,Y1,1*%
%TO.N,XTAL2*%
X81918000Y-121602000D03*
%TD*%
D23*
%TO.P,U1,3*%
%TO.N,Vin1*%
X74168000Y-84582000D03*
%TO.P,U1,2*%
%TO.N,GND*%
X74168000Y-82042000D03*
D24*
%TO.P,U1,1*%
%TO.N,VCC*%
X74168000Y-79502000D03*
%TD*%
D25*
%TO.P,SW2,1*%
%TO.N,GND*%
X116436000Y-129032000D03*
%TO.P,SW2,2*%
%TO.N,Net-(IC1-Pad12)*%
X116436000Y-124532000D03*
%TO.P,SW2,1*%
%TO.N,GND*%
X122936000Y-129032000D03*
%TO.P,SW2,2*%
%TO.N,Net-(IC1-Pad12)*%
X122936000Y-124532000D03*
%TD*%
%TO.P,RST,1*%
%TO.N,RESET*%
X118872000Y-98956000D03*
%TO.P,RST,2*%
%TO.N,Vin*%
X114372000Y-98956000D03*
%TO.P,RST,1*%
%TO.N,RESET*%
X118872000Y-92456000D03*
%TO.P,RST,2*%
%TO.N,Vin*%
X114372000Y-92456000D03*
%TD*%
D26*
%TO.P,RV1,1*%
%TO.N,Net-(RV1-Pad1)*%
X126218000Y-82102000D03*
%TO.P,RV1,2*%
%TO.N,Net-(DS1-Pad3)*%
X128758000Y-79562000D03*
%TO.P,RV1,3*%
%TO.N,GND*%
X131298000Y-82102000D03*
%TD*%
D27*
%TO.P,J1,2*%
%TO.N,GND*%
X64516000Y-80599280D03*
%TO.P,J1,1*%
%TO.N,Net-(D5-Pad1)*%
X64516000Y-85598000D03*
%TD*%
D28*
%TO.P,DS1,*%
%TO.N,*%
X61564000Y-58166000D03*
X61564520Y-27165300D03*
X136563100Y-27165300D03*
X136563100Y-58166000D03*
D29*
%TO.P,DS1,16*%
%TO.N,Net-(DS1-Pad16)*%
X92964000Y-58166000D03*
%TO.P,DS1,15*%
%TO.N,Vin1*%
X95504000Y-58166000D03*
%TO.P,DS1,14*%
%TO.N,DATA7*%
X98044000Y-58166000D03*
%TO.P,DS1,13*%
%TO.N,DATA6*%
X100584000Y-58166000D03*
%TO.P,DS1,12*%
%TO.N,DATA5*%
X103124000Y-58166000D03*
%TO.P,DS1,11*%
%TO.N,DATA4*%
X105664000Y-58166000D03*
%TO.P,DS1,10*%
%TO.N,DATA3*%
X108204000Y-58166000D03*
%TO.P,DS1,9*%
%TO.N,DATA2*%
X110744000Y-58166000D03*
%TO.P,DS1,8*%
%TO.N,DATA1*%
X113284000Y-58166000D03*
%TO.P,DS1,7*%
%TO.N,DATA0*%
X115824000Y-58166000D03*
%TO.P,DS1,6*%
%TO.N,EN*%
X118364000Y-58166000D03*
%TO.P,DS1,5*%
%TO.N,RW*%
X120904000Y-58166000D03*
%TO.P,DS1,4*%
%TO.N,RS*%
X123444000Y-58166000D03*
%TO.P,DS1,3*%
%TO.N,Net-(DS1-Pad3)*%
X125984000Y-58166000D03*
%TO.P,DS1,2*%
%TO.N,Vin1*%
X128524000Y-58166000D03*
D30*
%TO.P,DS1,1*%
%TO.N,GND*%
X131064000Y-58166000D03*
%TD*%
D31*
%TO.P,Tx,2*%
%TO.N,Tx*%
X84836000Y-113538000D03*
D32*
%TO.P,Tx,1*%
%TO.N,GND*%
X84836000Y-110998000D03*
%TD*%
D31*
%TO.P,Rx,2*%
%TO.N,Rx*%
X78232000Y-113538000D03*
D32*
%TO.P,Rx,1*%
%TO.N,GND*%
X78232000Y-110998000D03*
%TD*%
D31*
%TO.P,D1,2*%
%TO.N,Net-(D1-Pad2)*%
X81534000Y-81026000D03*
D32*
%TO.P,D1,1*%
%TO.N,GND*%
X84074000Y-81026000D03*
%TD*%
D18*
%TO.P,C5,2*%
%TO.N,GND*%
X84288000Y-85344000D03*
%TO.P,C5,1*%
%TO.N,Vin1*%
X81788000Y-85344000D03*
%TD*%
%TO.P,C4,2*%
%TO.N,GND*%
X74422000Y-128484000D03*
%TO.P,C4,1*%
%TO.N,XTAL1*%
X74422000Y-125984000D03*
%TD*%
D33*
%TO.P,C3,2*%
%TO.N,RESET*%
X123952000Y-96750000D03*
D34*
%TO.P,C3,1*%
%TO.N,Vin*%
X123952000Y-95250000D03*
%TD*%
D18*
%TO.P,C2,2*%
%TO.N,GND*%
X74168000Y-122134000D03*
%TO.P,C2,1*%
%TO.N,XTAL2*%
X74168000Y-119634000D03*
%TD*%
%TO.P,C1,2*%
%TO.N,GND*%
X84034000Y-76454000D03*
%TO.P,C1,1*%
%TO.N,VCC*%
X81534000Y-76454000D03*
%TD*%
D35*
%TO.N,GND*%
X79502000Y-106426000D03*
%TO.N,Vin1*%
X90170000Y-75692000D03*
%TO.N,Net-(D1-Pad2)*%
X82913001Y-87993001D03*
%TD*%
D36*
%TO.N,GND*%
X71374000Y-105410000D02*
X78486000Y-105410000D01*
X78486000Y-105410000D02*
X79502000Y-106426000D01*
X74168000Y-122134000D02*
X71842000Y-122134000D01*
X71842000Y-122134000D02*
X70612000Y-120904000D01*
X70612000Y-120904000D02*
X70612000Y-111506000D01*
X71120000Y-110998000D02*
X78232000Y-110998000D01*
X70612000Y-111506000D02*
X71120000Y-110998000D01*
D37*
X74422000Y-128484000D02*
X77002000Y-128484000D01*
X77002000Y-128484000D02*
X77470000Y-128016000D01*
X77470000Y-128016000D02*
X77470000Y-123444000D01*
X76160000Y-122134000D02*
X74168000Y-122134000D01*
X77470000Y-123444000D02*
X76160000Y-122134000D01*
D36*
%TO.N,RESET*%
X91638000Y-101142000D02*
X89612000Y-101142000D01*
X89612000Y-101142000D02*
X88392000Y-102362000D01*
X88392000Y-102362000D02*
X88392000Y-104902000D01*
X88392000Y-104902000D02*
X85344000Y-107950000D01*
X85344000Y-107950000D02*
X69596000Y-107950000D01*
X68834000Y-107188000D02*
X68834000Y-105410000D01*
X69596000Y-107950000D02*
X68834000Y-107188000D01*
X91638000Y-101142000D02*
X101396000Y-101142000D01*
X101396000Y-101142000D02*
X105156000Y-104902000D01*
D37*
X115316000Y-104902000D02*
X116586000Y-103632000D01*
X105156000Y-104902000D02*
X115316000Y-104902000D01*
D36*
%TO.N,Vin1*%
X82550000Y-83058000D02*
X81788000Y-83820000D01*
X81788000Y-83820000D02*
X81788000Y-85344000D01*
X88138000Y-83058000D02*
X82550000Y-83058000D01*
X89154000Y-82042000D02*
X88138000Y-83058000D01*
X89154000Y-76708000D02*
X89154000Y-82042000D01*
X90170000Y-75692000D02*
X89154000Y-76708000D01*
%TO.N,Net-(D1-Pad2)*%
X82913001Y-87993001D02*
X82913001Y-100947001D01*
X84074000Y-102108000D02*
X86106000Y-102108000D01*
X82913001Y-100947001D02*
X84074000Y-102108000D01*
%TO.N,Vin*%
X106878000Y-103682000D02*
X111964000Y-103682000D01*
X114372000Y-101274000D02*
X114372000Y-98956000D01*
X111964000Y-103682000D02*
X114372000Y-101274000D01*
D37*
%TO.N,Vin2*%
X118872000Y-87122000D02*
X119888000Y-84074000D01*
X76708000Y-87122000D02*
X118872000Y-87122000D01*
X75438000Y-93218000D02*
X75438000Y-88392000D01*
X74422000Y-94234000D02*
X75438000Y-93218000D01*
X72136000Y-94234000D02*
X74422000Y-94234000D01*
X71374000Y-94996000D02*
X72136000Y-94234000D01*
X75438000Y-88392000D02*
X76708000Y-87122000D01*
X71374000Y-100330000D02*
X71374000Y-94996000D01*
D36*
%TO.N,EN*%
X91638000Y-80822000D02*
X91638000Y-78034000D01*
X91638000Y-78034000D02*
X92964000Y-76708000D01*
X115570000Y-74676000D02*
X115634000Y-72898000D01*
X115316000Y-74930000D02*
X115570000Y-74676000D01*
D37*
X115316000Y-74930000D02*
X93218000Y-74930000D01*
X92964000Y-75184000D02*
X92964000Y-76708000D01*
X93218000Y-74930000D02*
X92964000Y-75184000D01*
D36*
%TO.N,RW*%
X91638000Y-83362000D02*
X93168000Y-83362000D01*
X93168000Y-83362000D02*
X93472000Y-83058000D01*
X93472000Y-83058000D02*
X93472000Y-78486000D01*
X93472000Y-78486000D02*
X94488000Y-77470000D01*
X94488000Y-77470000D02*
X115316000Y-77470000D01*
X117634000Y-75152000D02*
X117634000Y-72898000D01*
X115316000Y-77470000D02*
X117634000Y-75152000D01*
%TO.N,RS*%
X119634000Y-72898000D02*
X119634000Y-75692000D01*
X116441001Y-78884999D02*
X95394999Y-78884999D01*
X119634000Y-75692000D02*
X116441001Y-78884999D01*
X95394999Y-78884999D02*
X94488000Y-79791998D01*
X94488000Y-79791998D02*
X94488000Y-84836000D01*
X93422000Y-85902000D02*
X91638000Y-85902000D01*
X94488000Y-84836000D02*
X93422000Y-85902000D01*
D37*
%TO.N,Net-(IC1-Pad12)*%
X91638000Y-108762000D02*
X101904000Y-108762000D01*
X101904000Y-108762000D02*
X103632000Y-110490000D01*
X103632000Y-110490000D02*
X103632000Y-122428000D01*
X103632000Y-122428000D02*
X103886000Y-122682000D01*
X103886000Y-122682000D02*
X112014000Y-122682000D01*
X113864000Y-124532000D02*
X116436000Y-124532000D01*
X112014000Y-122682000D02*
X113864000Y-124532000D01*
%TD*%
M02*
